<svg width="423" height="533" viewBox="0 0 423 533" fill="none" xmlns="http://www.w3.org/2000/svg">
<path d="M416.69 387.55C395.32 334.75 311.38 295.34 211 295.34C110.62 295.34 26.69 334.74 5.33002 387.55H0.0200195V417.78H0.190018C3.79002 481.55 96.77 532.55 211.03 532.55C325.29 532.55 418.26 481.55 421.86 417.76H422.03V387.55H416.69Z" fill="url(#paint0_linear)"/>
<path d="M211.01 512.82C327.548 512.82 422.02 459.712 422.02 394.2C422.02 328.688 327.548 275.58 211.01 275.58C94.4724 275.58 0 328.688 0 394.2C0 459.712 94.4724 512.82 211.01 512.82Z" fill="url(#paint1_linear)"/>
<path d="M211.01 511.17C325.924 511.17 419.08 458.8 419.08 394.2C419.08 329.599 325.924 277.23 211.01 277.23C96.0961 277.23 2.93994 329.599 2.93994 394.2C2.93994 458.8 96.0961 511.17 211.01 511.17Z" fill="url(#paint2_linear)"/>
<path d="M211.03 494.47C312.7 494.47 395.12 448.136 395.12 390.98C395.12 333.824 312.7 287.49 211.03 287.49C109.36 287.49 26.9399 333.824 26.9399 390.98C26.9399 448.136 109.36 494.47 211.03 494.47Z" fill="url(#paint3_linear)"/>
<path d="M211.03 493.42C311.673 493.42 393.26 447.556 393.26 390.98C393.26 334.404 311.673 288.54 211.03 288.54C110.387 288.54 28.7998 334.404 28.7998 390.98C28.7998 447.556 110.387 493.42 211.03 493.42Z" fill="url(#paint4_linear)"/>
<path d="M211.03 490.01C308.321 490.01 387.19 445.672 387.19 390.98C387.19 336.287 308.321 291.95 211.03 291.95C113.74 291.95 34.8701 336.287 34.8701 390.98C34.8701 445.672 113.74 490.01 211.03 490.01Z" fill="url(#paint5_linear)"/>
<path d="M211.03 475.64C294.204 475.64 361.63 437.736 361.63 390.98C361.63 344.223 294.204 306.32 211.03 306.32C127.856 306.32 60.4299 344.223 60.4299 390.98C60.4299 437.736 127.856 475.64 211.03 475.64Z" fill="url(#paint6_linear)"/>
<path d="M211 493C311.516 493 393 446.885 393 390C393 333.114 311.516 287 211 287C110.484 287 29 333.114 29 390C29 446.885 110.484 493 211 493Z" fill="url(#paint7_linear)"/>
<path d="M211.03 449.23C268.252 449.23 314.64 423.15 314.64 390.98C314.64 358.809 268.252 332.73 211.03 332.73C153.808 332.73 107.42 358.809 107.42 390.98C107.42 423.15 153.808 449.23 211.03 449.23Z" fill="url(#paint8_linear)"/>
<path d="M211.03 430.61C249.961 430.61 281.52 412.867 281.52 390.98C281.52 369.093 249.961 351.35 211.03 351.35C172.099 351.35 140.54 369.093 140.54 390.98C140.54 412.867 172.099 430.61 211.03 430.61Z" fill="url(#paint9_linear)"/>
<path opacity="0.33" d="M13.8101 32.9998L140.3 390.84C140.36 401.31 147.3 411.78 161.16 419.77C188.84 435.77 233.57 435.77 261.07 419.77C274.82 411.77 281.66 401.31 281.6 390.84L404.85 32.9998H13.8101Z" fill="url(#paint10_linear)"/>
<path d="M69.96 106.39L158.24 384.45C158.24 392.59 163.69 400.73 174.44 406.94C195.95 419.36 230.71 419.36 252.08 406.94C262.77 400.73 268.08 392.59 268.03 384.45L353.79 106.39H69.96Z" fill="url(#paint11_linear)"/>
<path d="M244.246 153.247C250.535 153.247 255.632 148.149 255.632 141.861C255.632 135.573 250.535 130.475 244.246 130.475C237.958 130.475 232.861 135.573 232.861 141.861C232.861 148.149 237.958 153.247 244.246 153.247Z" fill="white"/>
<path d="M166.55 53.0654L204.46 47.6375L203.214 47.8093L165.247 53.223L166.55 53.0654Z" fill="url(#paint12_linear)"/>
<path d="M135.241 76.2412C153.603 30.1413 193.45 24.102 224.095 62.7958C254.74 101.49 264.839 170.186 246.538 216.286C228.236 262.386 188.329 268.425 157.684 229.772C127.039 191.119 116.888 122.372 135.241 76.2412Z" fill="#4C68EF"/>
<path d="M131.579 71.6301C151.135 22.4595 193.552 16.0327 226.288 57.2666C259.024 98.5005 269.715 171.757 250.149 220.907C230.583 270.057 188.196 276.474 155.44 235.24C122.683 194.006 112.012 120.76 131.579 71.6301ZM246.405 216.285C264.768 170.185 254.73 101.449 224.013 62.7957C193.297 24.1428 153.522 30.1514 135.159 76.2411C116.797 122.331 126.835 191.078 157.602 229.772C188.37 268.465 228.175 262.416 246.446 216.285" fill="white"/>
<path d="M243.444 8.18074C240.504 6.46149 237.434 4.97438 234.263 3.73295C231.493 2.66267 228.645 1.80664 225.745 1.1724C220.341 -0.0207189 214.776 -0.303442 209.28 0.335892L172.004 5.67121C174.712 5.35635 177.443 5.27444 180.165 5.42637C182.941 5.56851 185.701 5.93699 188.418 6.52812C191.319 7.16931 194.167 8.03216 196.936 9.10907C200.107 10.3433 203.177 11.8237 206.117 13.5365C209.855 15.7003 213.413 18.1599 216.757 20.8916C222.112 25.2694 227.038 30.1473 231.468 35.4592L233.896 38.336C240.897 47.2703 246.923 56.9282 251.87 67.1446C255.95 75.4336 259.457 83.9922 262.368 92.7603C264 97.6161 266.244 104.594 267.703 110.225L267.489 110.225C268.754 115.326 269.855 120.426 270.784 125.649C271.654 130.41 272.379 135.205 272.957 140.033C273.507 144.665 273.977 149.327 274.222 153.958C274.466 158.59 274.67 163.241 274.691 167.832C274.711 172.423 274.589 177.401 274.303 182.114C273.997 187.296 273.518 192.315 272.844 197.294C272.028 203.414 270.906 209.362 269.58 215.187C267.854 222.57 265.593 229.819 262.816 236.875C250.86 266.898 231.896 283.801 210.922 286.78L248.218 281.465C269.213 278.456 288.136 261.583 300.092 231.591C302.869 224.535 305.129 217.286 306.856 209.903C308.216 204.081 309.311 198.117 310.141 192.009C310.821 187.031 311.304 181.971 311.589 176.83C311.865 172.117 311.997 167.342 311.987 162.548C311.977 157.753 311.803 153.316 311.518 148.674C311.232 144.032 310.804 139.38 310.232 134.749C309.661 130.118 308.937 125.139 308.06 120.365C307.128 115.19 306.029 110.055 304.764 104.961C303.265 99.0035 301.582 93.1377 299.664 87.3943C296.736 78.6361 293.229 70.0822 289.167 61.7889V61.7889C284.187 51.576 278.145 41.9163 271.141 32.9701L269.876 31.399C265.167 25.5902 259.883 20.272 254.105 15.5257C250.752 12.7982 247.187 10.3421 243.444 8.18074V8.18074Z" fill="#4C68EF"/>
<path d="M118.899 55.6553C142.658 -4.01249 194.114 -11.8063 233.858 38.1906C273.603 88.1875 286.569 177.143 262.83 236.801C239.092 296.459 187.616 304.283 147.83 254.255C108.045 204.228 95.1504 115.343 118.899 55.6553ZM250.15 220.917C269.716 171.788 259.046 98.501 226.289 57.2773C193.532 16.0536 151.136 22.4601 131.58 71.6306C112.023 120.801 122.684 194.047 155.44 235.281C188.197 276.515 230.594 270.078 250.15 220.907" fill="#4C68EF"/>
<path d="M243.457 8.17781C240.517 6.45856 237.447 4.97145 234.275 3.73002C231.506 2.65974 228.658 1.80371 225.757 1.16947C220.354 -0.0236485 214.789 -0.306371 209.292 0.332962L172.016 5.66828C174.725 5.35342 177.455 5.27151 180.177 5.42344C182.954 5.56558 185.714 5.93406 188.43 6.52519C191.332 7.16638 194.179 8.02923 196.948 9.10614C200.12 10.3404 203.189 11.8207 206.13 13.5335C209.867 15.6974 213.425 18.157 216.77 20.8887C222.125 25.2664 227.05 30.1443 231.48 35.4563L233.908 38.333C240.91 47.2674 246.936 56.9252 251.883 67.1417C255.962 75.4307 259.47 83.9892 262.38 92.7573C264.012 97.6132 266.257 104.591 267.715 110.222L267.501 110.222C268.766 115.323 269.868 120.423 270.796 125.647C271.667 130.407 272.391 135.202 272.969 140.03C273.52 144.662 273.989 149.324 274.234 153.955C274.479 158.587 274.683 163.239 274.703 167.829C274.724 172.42 274.601 177.398 274.316 182.111C274.01 187.293 273.53 192.312 272.857 197.291C272.041 203.412 270.919 209.359 269.592 215.184C267.866 222.568 265.606 229.816 262.829 236.872C250.873 266.895 231.909 283.798 210.935 286.777L248.231 281.462C269.225 278.453 288.149 261.58 300.105 231.588C302.881 224.532 305.142 217.283 306.868 209.9C308.228 204.078 309.323 198.114 310.153 192.006C310.833 187.028 311.316 181.968 311.602 176.827C311.877 172.114 312.01 167.34 312 162.545C311.989 157.75 311.816 153.313 311.53 148.671C311.245 144.029 310.816 139.378 310.245 134.746C309.674 130.115 308.949 125.136 308.072 120.362C307.14 115.187 306.042 110.052 304.777 104.958C303.277 99.0006 301.594 93.1348 299.676 87.3914C296.748 78.6332 293.241 70.0792 289.179 61.786V61.786C284.2 51.573 278.158 41.9134 271.153 32.9671L269.888 31.3961C265.179 25.5872 259.895 20.2691 254.117 15.5228C250.764 12.7953 247.199 10.3392 243.457 8.17781V8.17781Z" fill="url(#paint13_linear)"/>
<rect width="97.3906" height="35.9831" rx="17.9915" transform="matrix(0.429703 -0.610379 0.744268 0.942793 144.25 147.359)" fill="url(#paint14_linear)" fill-opacity="0.5"/>
<g filter="url(#filter0_f)">
<rect width="97.3906" height="35.9831" rx="17.9915" transform="matrix(0.429703 1.12167 -0.744268 0.0572072 197.537 94.7944)" fill="#F7F7F7"/>
</g>
<rect width="97.3906" height="42.6132" rx="21.3066" transform="matrix(0.429703 1.12167 -0.744268 0.0572072 198.403 94.728)" fill="#F7F7F7"/>
<g filter="url(#filter1_f)">
<rect width="97.3906" height="36.9438" rx="18.4719" transform="matrix(0.429703 -0.610379 0.744268 0.942793 143.535 146.454)" fill="url(#paint15_linear)" fill-opacity="0.5"/>
</g>
<defs>
<filter id="filter0_f" x="166.413" y="85.7969" width="77.3163" height="129.294" filterUnits="userSpaceOnUse" color-interpolation-filters="sRGB">
<feFlood flood-opacity="0" result="BackgroundImageFix"/>
<feBlend mode="normal" in="SourceGraphic" in2="BackgroundImageFix" result="shape"/>
<feGaussianBlur stdDeviation="5" result="effect1_foregroundBlur"/>
</filter>
<filter id="filter1_f" x="141.343" y="86.9497" width="73.7292" height="94.3931" filterUnits="userSpaceOnUse" color-interpolation-filters="sRGB">
<feFlood flood-opacity="0" result="BackgroundImageFix"/>
<feBlend mode="normal" in="SourceGraphic" in2="BackgroundImageFix" result="shape"/>
<feGaussianBlur stdDeviation="4" result="effect1_foregroundBlur"/>
</filter>
<linearGradient id="paint0_linear" x1="0.0200195" y1="413.95" x2="422.03" y2="413.95" gradientUnits="userSpaceOnUse">
<stop stop-color="#C5C5C5"/>
<stop offset="0.98" stop-color="#8F8F8F" stop-opacity="0.28"/>
</linearGradient>
<linearGradient id="paint1_linear" x1="332.06" y1="273.14" x2="89.96" y2="515.25" gradientUnits="userSpaceOnUse">
<stop stop-color="white"/>
<stop offset="0.98" stop-color="#EDEDED"/>
</linearGradient>
<linearGradient id="paint2_linear" x1="211.01" y1="511.17" x2="211.01" y2="277.23" gradientUnits="userSpaceOnUse">
<stop stop-color="white"/>
<stop offset="1" stop-color="#F5F5F5"/>
</linearGradient>
<linearGradient id="paint3_linear" x1="211.03" y1="287.49" x2="211.03" y2="494.47" gradientUnits="userSpaceOnUse">
<stop stop-color="white"/>
</linearGradient>
<linearGradient id="paint4_linear" x1="211.03" y1="493.42" x2="211.03" y2="288.54" gradientUnits="userSpaceOnUse">
<stop stop-color="#001A23"/>
</linearGradient>
<linearGradient id="paint5_linear" x1="211.03" y1="490.01" x2="211.03" y2="291.95" gradientUnits="userSpaceOnUse">
<stop stop-color="#00070A"/>
<stop offset="1" stop-color="#00070A"/>
</linearGradient>
<linearGradient id="paint6_linear" x1="263.57" y1="482" x2="158.48" y2="299.96" gradientUnits="userSpaceOnUse">
<stop stop-color="#00070A"/>
<stop offset="1" stop-color="#050046"/>
</linearGradient>
<linearGradient id="paint7_linear" x1="393" y1="390" x2="28.9877" y2="390" gradientUnits="userSpaceOnUse">
<stop stop-color="#00090C"/>
<stop offset="1" stop-color="#002937"/>
</linearGradient>
<linearGradient id="paint8_linear" x1="211.03" y1="449.23" x2="211.03" y2="332.73" gradientUnits="userSpaceOnUse">
<stop stop-color="white"/>
<stop offset="1" stop-color="#EFEFEF"/>
</linearGradient>
<linearGradient id="paint9_linear" x1="211.03" y1="351.35" x2="211.03" y2="430.61" gradientUnits="userSpaceOnUse">
<stop stop-color="#E2E2E2"/>
<stop offset="1" stop-color="white"/>
</linearGradient>
<linearGradient id="paint10_linear" x1="209.33" y1="32.9998" x2="209.33" y2="431.77" gradientUnits="userSpaceOnUse">
<stop stop-color="white" stop-opacity="0.39"/>
<stop offset="0.9999" stop-color="white" stop-opacity="0.27"/>
</linearGradient>
<linearGradient id="paint11_linear" x1="211.88" y1="106.39" x2="211.88" y2="416.25" gradientUnits="userSpaceOnUse">
<stop stop-color="white" stop-opacity="0"/>
<stop offset="0.37" stop-color="white" stop-opacity="0.01"/>
<stop offset="0.51" stop-color="white" stop-opacity="0.03"/>
<stop offset="0.6" stop-color="white" stop-opacity="0.08"/>
<stop offset="0.68" stop-color="white" stop-opacity="0.15"/>
<stop offset="0.75" stop-color="white" stop-opacity="0.23"/>
<stop offset="0.8" stop-color="#E3E3E3" stop-opacity="0.34"/>
<stop offset="0.99" stop-color="white" stop-opacity="0.96"/>
<stop offset="1" stop-color="#F8F8F8"/>
</linearGradient>
<linearGradient id="paint12_linear" x1="184.893" y1="3346.31" x2="184.893" y2="3385.87" gradientUnits="userSpaceOnUse">
<stop offset="0.01" stop-color="#835C1F"/>
<stop offset="0.41" stop-color="#AA812A"/>
<stop offset="0.79" stop-color="#C99D32"/>
<stop offset="1" stop-color="#D4A835"/>
</linearGradient>
<linearGradient id="paint13_linear" x1="281.691" y1="307.343" x2="213.975" y2="-10.4193" gradientUnits="userSpaceOnUse">
<stop offset="0.06" stop-color="#666666" stop-opacity="0.23"/>
<stop offset="0.88" stop-color="white" stop-opacity="0"/>
</linearGradient>
<linearGradient id="paint14_linear" x1="13.6201" y1="17.958" x2="72.7554" y2="19.4678" gradientUnits="userSpaceOnUse">
<stop stop-color="white" stop-opacity="0.8"/>
</linearGradient>
<linearGradient id="paint15_linear" x1="13.6201" y1="18.4375" x2="72.7574" y2="19.9081" gradientUnits="userSpaceOnUse">
<stop stop-color="white" stop-opacity="0.8"/>
</linearGradient>
</defs>
</svg>
