<svg width="1310" height="1116" viewBox="0 0 1310 1116" fill="none" xmlns="http://www.w3.org/2000/svg">
<path d="M716.222 165L673.002 168.41L944.952 10.3298C966.556 -2.22963 993.238 -2.22963 1014.84 10.3298L733.072 174.8L716.222 165Z" fill="url(#paint0_linear)"/>
<path d="M378.422 654.82V788.64L383.262 791.42V785.82L411.262 769.48V635.38C411.275 633.223 410.641 631.112 409.442 629.32L410.762 628.76L406.002 626.04L405.442 625.72C402.068 623.91 397.986 624.028 394.722 626.03C384.631 632.107 378.464 643.03 378.472 654.81L378.422 654.82Z" fill="url(#paint1_linear)"/>
<path d="M416.062 638.1V772.27L383.302 791.42V657.6C383.304 645.817 389.473 634.895 399.562 628.81C402.924 626.777 407.119 626.71 410.544 628.636C413.969 630.561 416.092 634.181 416.102 638.11L416.062 638.1Z" fill="url(#paint2_linear)"/>
<path d="M924.032 646.65L1052.21 571.65L893.212 477.86L847.092 604.65L924.032 646.65Z" fill="url(#paint3_linear)"/>
<path d="M924.032 669.22L716.222 548.22V528.74L924.032 646.65V669.22Z" fill="url(#paint4_linear)"/>
<path d="M716.222 438.73L964.622 292.09V53.2698L716.222 198.61" fill="url(#paint5_linear)"/>
<path d="M659.052 197.91V514.91L716.222 548.21V165.03C704.459 158.157 689.917 158.107 678.107 164.899C666.297 171.691 659.027 184.286 659.052 197.91Z" fill="url(#paint6_linear)"/>
<path d="M364.212 648.91C364.183 652.013 365.544 654.966 367.922 656.96C368.392 657.33 368.922 657.72 369.492 658.09L557.542 768.4L552.542 759.77L1262.54 335.77L1081.09 228.77C1073.82 224.521 1064.83 224.521 1057.56 228.77L378.402 624.25C369.626 629.364 364.224 638.752 364.212 648.91Z" fill="url(#paint7_linear)"/>
<path opacity="0.2" d="M393.152 615.66L385.762 619.97L589.552 737.64L596.862 733.28L393.152 615.66Z" fill="white"/>
<path opacity="0.2" d="M456.222 578.91L448.822 583.22L651.822 700.42L659.112 696.07L456.222 578.91Z" fill="white"/>
<path opacity="0.2" d="M519.302 542.2L511.922 546.51L714.122 663.25L721.422 658.9L519.302 542.2Z" fill="white"/>
<path opacity="0.2" d="M582.372 505.45L574.972 509.76L776.402 626.06L783.712 621.71L582.372 505.45Z" fill="white"/>
<path opacity="0.2" d="M645.432 468.72L638.032 473.03L838.682 588.91L845.992 584.56L645.432 468.72Z" fill="white"/>
<path opacity="0.2" d="M892.082 546.55C892.639 546.877 893.275 547.046 893.922 547.04C895.661 547.116 897.219 545.973 897.668 544.291C898.118 542.609 897.337 540.841 895.792 540.04L708.492 431.91L701.072 436.22L892.082 546.55Z" fill="white"/>
<path opacity="0.2" d="M941.482 501.91C942.053 502.222 942.691 502.39 943.342 502.4C945.016 502.386 946.475 501.257 946.906 499.639C947.338 498.022 946.636 496.316 945.192 495.47L771.572 395.26L764.152 399.57L941.482 501.91Z" fill="white"/>
<path opacity="0.2" d="M990.892 457.31C991.459 457.63 992.1 457.799 992.752 457.8C994.427 457.801 995.895 456.68 996.334 455.064C996.774 453.448 996.076 451.737 994.632 450.89L834.632 358.52L827.202 362.83L990.892 457.31Z" fill="white"/>
<path d="M1266.13 343.71C1266.13 354.134 1260.6 363.775 1251.59 369.03L567.782 768.28C564.585 770.088 560.673 770.077 557.487 768.25C554.301 766.423 552.315 763.052 552.262 759.38C552.264 748.961 557.795 739.326 566.792 734.07L1250.59 334.8C1253.79 332.982 1257.71 332.988 1260.9 334.816C1264.09 336.644 1266.08 340.022 1266.13 343.7V343.71Z" fill="url(#paint8_linear)"/>
<path d="M1063.21 365.881L1063.42 382.221C1063.19 389.812 1059.81 396.964 1054.09 401.961C1035.56 419.961 995.591 426.041 964.781 415.551C960.63 414.173 956.614 412.419 952.781 410.311C940.201 403.311 933.341 393.651 933.221 383.741L933.021 367.401C933.151 377.311 940.021 386.951 952.591 393.971C956.423 396.081 960.44 397.835 964.591 399.211C995.381 409.701 1035.37 403.661 1053.9 385.621C1059.64 380.644 1063.02 373.478 1063.21 365.881Z" fill="url(#paint9_linear)"/>
<path d="M1063.21 365.881L1063.42 382.221V382.791L1063.23 366.461V365.881" fill="url(#paint10_linear)"/>
<path d="M1062.84 370.151C1062.61 371.39 1062.28 372.607 1061.84 373.791C1061.38 375.069 1060.82 376.309 1060.17 377.501C1059.42 378.87 1058.56 380.184 1057.62 381.431C1056.47 382.912 1055.22 384.309 1053.87 385.611L1053.58 385.891C1051.06 388.266 1048.3 390.373 1045.35 392.181C1040.67 395.024 1035.69 397.329 1030.49 399.051C1026.45 400.419 1022.33 401.511 1018.14 402.321C1015.4 402.861 1012.61 403.321 1009.79 403.611C1007.42 403.891 1005.01 404.091 1002.6 404.211C1000.19 404.331 998.152 404.361 995.982 404.331C993.812 404.301 991.732 404.241 989.622 404.091C987.512 403.941 985.422 403.751 983.342 403.481C981.262 403.211 979.032 402.871 976.912 402.481C974.792 402.091 972.292 401.481 970.052 400.911C968.182 400.401 966.322 399.851 964.512 399.241C963.672 398.961 962.862 398.661 962.062 398.361C958.788 397.142 955.609 395.681 952.552 393.991C939.952 386.991 933.112 377.331 932.992 367.421L933.182 383.761C933.302 393.671 940.182 403.311 952.742 410.331C955.799 412.021 958.978 413.482 962.252 414.701C963.052 415.001 963.862 415.301 964.702 415.581C966.522 416.201 968.362 416.751 970.242 417.251C972.495 417.851 974.782 418.374 977.102 418.821C979.412 419.261 981.372 419.581 983.532 419.821C985.692 420.061 987.722 420.281 989.812 420.431C991.902 420.581 994.042 420.651 996.172 420.671C998.302 420.691 1000.62 420.671 1002.79 420.551C1004.96 420.431 1007.62 420.221 1010 419.951C1012.82 419.631 1015.6 419.201 1018.34 418.661C1022.53 417.856 1026.65 416.767 1030.69 415.401C1035.89 413.679 1040.87 411.374 1045.55 408.531C1048.5 406.714 1051.26 404.607 1053.78 402.241L1054.06 401.971C1055.4 400.661 1056.65 399.261 1057.8 397.781C1058.74 396.536 1059.59 395.226 1060.35 393.861C1061.01 392.67 1061.56 391.43 1062.02 390.151C1062.46 388.969 1062.79 387.751 1063.02 386.511C1063.24 385.292 1063.36 384.059 1063.39 382.821L1063.18 366.481C1063.18 367.712 1063.06 368.94 1062.84 370.151Z" fill="#4C68EF"/>
<path d="M970.142 403.151C972.382 403.761 974.692 404.281 977.002 404.721C979.312 405.161 981.282 405.481 983.432 405.721C985.582 405.961 987.612 406.181 989.722 406.321C991.832 406.461 993.952 406.551 996.072 406.561C998.192 406.571 1000.52 406.561 1002.7 406.441C1004.88 406.321 1007.51 406.121 1009.89 405.851C1012.71 405.521 1015.5 405.091 1018.23 404.551C1022.42 403.741 1026.55 402.652 1030.59 401.291C1035.78 399.561 1040.76 397.253 1045.44 394.411C1048.4 392.605 1051.16 390.493 1053.67 388.111L1053.97 387.831C1055.32 386.525 1056.57 385.121 1057.71 383.631C1058.66 382.402 1059.52 381.101 1060.27 379.741C1060.92 378.545 1061.48 377.301 1061.94 376.021C1062.37 374.839 1062.7 373.625 1062.94 372.391C1063.17 371.171 1063.3 369.933 1063.31 368.691V366.551C1063.26 369.018 1062.81 371.46 1061.97 373.781C1061.51 375.059 1060.96 376.299 1060.31 377.491C1059.56 378.859 1058.7 380.169 1057.75 381.411C1056.61 382.897 1055.36 384.298 1054.01 385.601L1053.71 385.881C1051.19 388.252 1048.43 390.357 1045.48 392.161C1040.81 395.011 1035.82 397.319 1030.62 399.041C1026.58 400.41 1022.46 401.502 1018.27 402.311C1015.53 402.841 1012.74 403.311 1009.92 403.601C1007.55 403.881 1005.14 404.081 1002.74 404.201C1000.34 404.321 998.292 404.341 996.112 404.321C993.932 404.301 991.862 404.211 989.752 404.081C987.642 403.951 985.552 403.741 983.472 403.471C981.392 403.201 979.162 402.861 977.042 402.471C974.922 402.081 972.422 401.471 970.182 400.891C968.312 400.391 966.452 399.841 964.642 399.221C963.802 398.951 962.992 398.651 962.192 398.351C958.918 397.13 955.74 395.669 952.682 393.981C940.092 386.981 933.242 377.321 933.122 367.411V369.821C933.312 379.661 940.122 389.241 952.682 396.241C955.737 397.932 958.916 399.39 962.192 400.601C962.992 400.901 963.802 401.201 964.642 401.481C966.445 402.132 968.281 402.689 970.142 403.151Z" fill="white"/>
<path d="M1043.65 339.071C1064.74 350.831 1069.75 369.961 1053.9 385.361C1035.36 403.361 995.382 409.441 964.592 398.951C960.44 397.575 956.423 395.821 952.592 393.711C931.482 381.951 926.482 362.801 942.352 347.401C960.862 329.401 1000.85 323.321 1031.63 333.811C1035.79 335.2 1039.81 336.96 1043.65 339.071Z" fill="#4C68EF"/>
<path d="M1034.55 344.151C1051.43 353.561 1055.44 368.881 1042.74 381.211C1027.89 395.601 995.902 400.521 971.242 392.081C967.93 390.969 964.724 389.563 961.662 387.881C944.782 378.461 940.782 363.151 953.462 350.821C968.322 336.421 1000.31 331.511 1024.96 339.941C1028.28 341.05 1031.49 342.459 1034.55 344.151Z" fill="#4C68EF"/>
<path d="M1036.63 342.871C1033.39 341.091 1030 339.602 1026.5 338.421C1000.43 329.521 966.612 334.691 950.922 349.921C937.562 362.921 941.752 379.121 959.592 389.081C962.822 390.871 966.209 392.36 969.712 393.531C995.772 402.431 1029.6 397.261 1045.29 382.051C1058.71 369.011 1054.49 352.821 1036.63 342.871ZM1042.74 381.171C1027.89 395.571 995.902 400.481 971.242 392.041C967.926 390.937 964.72 389.532 961.662 387.841C944.782 378.431 940.782 363.111 953.462 350.781C968.322 336.391 1000.31 331.471 1024.96 339.911C1028.28 341.021 1031.49 342.427 1034.55 344.111C1051.43 353.531 1055.44 368.851 1042.74 381.181V381.171Z" fill="white"/>
<path d="M979.022 358.151C984.665 355.847 990.838 355.154 996.852 356.151C998.177 356.373 999.489 356.67 1000.78 357.041C1002.18 357.48 1003.69 357.402 1005.04 356.821L1014.76 351.821L1023.66 357.761L1013.93 362.761C1012.81 363.321 1012.44 364.251 1012.93 365.091C1015.82 369.801 1013.61 374.901 1007.08 378.221C997.293 382.621 985.977 381.987 976.742 376.521C968.672 371.121 969.152 363.151 977.852 358.691C978.192 358.521 978.602 358.351 979.022 358.151Z" fill="white"/>
<path d="M1014.42 352.201L1022.94 357.871C1023.05 357.925 1023.09 358.053 1023.04 358.161C1023.02 358.206 1022.99 358.242 1022.94 358.261C1022.74 358.361 1022.5 358.361 1022.29 358.261L1013.76 352.591C1013.66 352.534 1013.62 352.409 1013.66 352.301C1013.68 352.258 1013.72 352.223 1013.76 352.201C1013.97 352.1 1014.21 352.1 1014.42 352.201ZM1016.23 351.281C1014.98 350.522 1013.43 350.432 1012.09 351.041C1011.41 351.248 1011.02 351.966 1011.22 352.651C1011.33 353.016 1011.59 353.313 1011.94 353.461L1020.45 359.141C1021.71 359.898 1023.26 359.985 1024.59 359.371C1025.11 359.217 1025.48 358.755 1025.51 358.213C1025.55 357.672 1025.24 357.167 1024.74 356.951L1016.23 351.281Z" fill="white"/>
<path d="M980.272 361.571C973.712 364.911 973.382 370.941 979.532 375.041C982.993 377.181 986.955 378.374 991.022 378.501C994.518 378.759 998.029 378.254 1001.31 377.021C1000.53 375.07 999.124 373.434 997.312 372.371C993.882 370.121 987.822 369.531 983.562 365.831C982.168 364.667 981.046 363.213 980.272 361.571Z" fill="#4C68EF"/>
<path d="M1259.3 347.67C1259.31 353.871 1256.02 359.609 1250.66 362.73L568.302 761.91C566.402 763.021 564.052 763.03 562.143 761.933C560.234 760.836 559.058 758.801 559.062 756.6C559.057 750.413 562.324 744.685 567.652 741.54L1249.99 342.36C1251.39 341.525 1253.06 341.279 1254.64 341.677C1256.21 342.075 1257.57 343.083 1258.4 344.48C1259 345.438 1259.31 346.543 1259.3 347.67Z" fill="#4C68EF"/>
<path d="M712.645 165L916.815 283.82C958.755 308.238 984.553 353.109 984.555 401.64V706.54L1266.66 542.3V237.45C1266.66 188.921 1240.87 144.049 1198.93 119.62L1011.18 10.3497L981.485 7.72974L712.645 165Z" fill="url(#paint11_linear)"/>
<path d="M705.159 158.351V218.702L934.225 352.078V291.717L705.159 158.351Z" fill="url(#paint12_linear)"/>
<path d="M554.442 767.18V901L559.282 903.76V898.18L587.282 881.84V747.73C587.296 745.572 586.658 743.46 585.452 741.67L586.792 741.12L582.022 738.4L581.472 738.07C578.093 736.268 574.015 736.382 570.742 738.37C560.658 744.464 554.495 755.387 554.492 767.17L554.442 767.18Z" fill="url(#paint13_linear)"/>
<path d="M592.082 750.5V884.66L559.302 903.76V769.91C559.305 758.125 565.473 747.2 575.562 741.11C578.934 739.078 583.139 739.021 586.565 740.96C589.991 742.899 592.107 746.533 592.102 750.47L592.082 750.5Z" fill="url(#paint14_linear)"/>
<path d="M857.142 589.73V723.56L861.982 726.34V720.75L889.982 704.41V570.29C889.995 568.132 889.358 566.02 888.152 564.23L889.472 563.67L884.692 560.91L884.142 560.59C882.565 559.76 880.813 559.321 879.032 559.31C877.047 559.309 875.101 559.859 873.412 560.9C863.319 566.983 857.15 577.906 857.152 589.69L857.142 589.73Z" fill="url(#paint15_linear)"/>
<path d="M894.792 573.06V707.23L861.982 726.33V592.51C861.984 580.727 868.153 569.805 878.242 563.72C881.612 561.682 885.818 561.621 889.246 563.558C892.674 565.496 894.79 569.132 894.782 573.07L894.792 573.06Z" fill="url(#paint16_linear)"/>
<path d="M699.842 309.65L664.962 289.35V369.57L699.852 389.91L699.842 309.65Z" fill="url(#paint17_linear)"/>
<path d="M705.662 306.35L670.772 286.05L664.962 289.35L699.842 309.65L705.662 306.35Z" fill="url(#paint18_linear)"/>
<path d="M705.662 306.35V386.57L699.852 389.87V309.65L705.662 306.35Z" fill="url(#paint19_linear)"/>
<path d="M694.922 312.41L669.922 297.84V322.66L694.922 337.23V312.41Z" fill="#4C68EF"/>
<path d="M694.922 343.91L688.712 340.29V346.44L694.922 350.06V343.91Z" fill="white"/>
<path d="M685.502 338.45L679.302 334.83V341L685.492 344.61L685.502 338.45Z" fill="white"/>
<path d="M676.102 332.85L669.892 329.23V335.38L676.102 339V332.85Z" fill="white"/>
<path d="M694.922 354.24L688.712 350.62V356.77L694.922 360.39V354.24Z" fill="white"/>
<path d="M685.502 348.82L679.302 345.21V351.37L685.492 354.98L685.502 348.82Z" fill="white"/>
<path d="M676.102 343.23L669.892 339.62V345.78L676.102 349.39V343.23Z" fill="white"/>
<path d="M694.922 364.62L688.712 361.01V367.16L694.922 370.77V364.62Z" fill="white"/>
<path d="M685.502 359.21L679.302 355.6V361.76L685.492 365.38L685.502 359.21Z" fill="white"/>
<path d="M676.102 353.63L669.892 350.01V356.17L676.102 359.79V353.63Z" fill="white"/>
<path d="M694.922 375L688.712 371.39V377.54L694.922 381.15V375Z" fill="#ED1B1C"/>
<path d="M685.502 369.59L679.302 365.98V372.14L685.492 375.76L685.502 369.59Z" fill="#D7E4F9"/>
<path d="M676.102 364.01L669.892 360.39V366.56L676.102 370.17V364.01Z" fill="#7CED14"/>
<path d="M885.992 281.71V309.44L747.352 228.64V200.91L885.992 281.71Z" fill="url(#paint20_linear)"/>
<path d="M889.952 279.41V307.12L885.952 309.44V281.71L889.952 279.41Z" fill="url(#paint21_linear)"/>
<path d="M889.952 279.41L751.302 198.61L747.302 200.93L885.982 281.71L889.952 279.41Z" fill="url(#paint22_linear)"/>
<path d="M879.782 297.17V299.8L753.302 225.63V210.63L755.402 211.86V224.24L879.782 297.17Z" fill="url(#paint23_linear)"/>
<path d="M879.782 284.81V297.17L755.422 224.25V211.91L879.782 284.81Z" fill="#4C68EF"/>
<path d="M1001.99 638V684.74L1023.6 672.18V625.42L1001.99 638Z" fill="url(#paint24_linear)"/>
<path opacity="0.28" d="M1119.96 534.02H1027.58V656.3H1119.96V534.02Z" fill="url(#paint25_linear)"/>
<path d="M1119.96 693.31V712.81C1119.96 728.14 1099.29 740.56 1073.77 740.56C1048.25 740.56 1027.58 728.14 1027.58 712.81V693.31H1119.96Z" fill="url(#paint26_linear)"/>
<path d="M1073.77 721.05C1099.28 721.05 1119.96 708.63 1119.96 693.31C1119.96 677.989 1099.28 665.57 1073.77 665.57C1048.26 665.57 1027.58 677.989 1027.58 693.31C1027.58 708.63 1048.26 721.05 1073.77 721.05Z" fill="url(#paint27_linear)"/>
<path d="M1073.77 714.94C1093.67 714.94 1109.79 705.256 1109.79 693.31C1109.79 681.364 1093.67 671.68 1073.77 671.68C1053.88 671.68 1037.75 681.364 1037.75 693.31C1037.75 705.256 1053.88 714.94 1073.77 714.94Z" fill="url(#paint28_linear)"/>
<path d="M1037.59 605.21L1034.81 607.05C1035.28 606.67 1035.81 606.3 1036.29 605.96V605.84L1037.59 605.21Z" fill="#F39600"/>
<path d="M1073.77 708.85C1088.05 708.85 1099.63 701.892 1099.63 693.31C1099.63 684.727 1088.05 677.77 1073.77 677.77C1059.49 677.77 1047.91 684.727 1047.91 693.31C1047.91 701.892 1059.49 708.85 1073.77 708.85Z" fill="#475254"/>
<path d="M1119.96 656.32V675.91C1119.96 691.23 1099.29 703.66 1073.77 703.66C1048.25 703.66 1027.58 691.23 1027.58 675.91V656.32H1119.96Z" fill="url(#paint29_linear)"/>
<path d="M1073.77 684.06C1099.28 684.06 1119.96 671.64 1119.96 656.32C1119.96 640.999 1099.28 628.58 1073.77 628.58C1048.26 628.58 1027.58 640.999 1027.58 656.32C1027.58 671.64 1048.26 684.06 1073.77 684.06Z" fill="#FEED00"/>
<path d="M1123.5 536.27V550.37C1123.5 566.87 1101.22 580.24 1073.77 580.24C1046.32 580.24 1024.04 566.87 1024.04 550.37V536.27H1123.5Z" fill="url(#paint30_linear)"/>
<path d="M1073.77 566.14C1101.24 566.14 1123.5 552.767 1123.5 536.27C1123.5 519.773 1101.24 506.4 1073.77 506.4C1046.31 506.4 1024.04 519.773 1024.04 536.27C1024.04 552.767 1046.31 566.14 1073.77 566.14Z" fill="url(#paint31_linear)"/>
<path d="M1094.3 522.61V531.3C1094.3 538.12 1085.11 543.64 1073.74 543.64C1062.37 543.64 1053.19 538.12 1053.19 531.3V522.61H1094.3Z" fill="url(#paint32_linear)"/>
<path d="M1073.77 534.95C1085.13 534.95 1094.33 529.425 1094.33 522.61C1094.33 515.795 1085.13 510.27 1073.77 510.27C1062.42 510.27 1053.21 515.795 1053.21 522.61C1053.21 529.425 1062.42 534.95 1073.77 534.95Z" fill="url(#paint33_linear)"/>
<path d="M1073.77 528.83C1079.49 528.83 1084.12 526.045 1084.12 522.61C1084.12 519.175 1079.49 516.39 1073.77 516.39C1068.06 516.39 1063.42 519.175 1063.42 522.61C1063.42 526.045 1068.06 528.83 1073.77 528.83Z" fill="#F39600"/>
<path d="M1084.84 522.61V487.27C1085.47 472.163 1077.68 457.949 1064.61 450.35L1025.08 427.4C1021.41 425.28 1016.88 425.28 1013.2 427.4C1010.7 428.856 1008.88 431.247 1008.14 434.048C1007.4 436.848 1007.8 439.828 1009.26 442.33C1010.18 443.909 1011.48 445.23 1013.04 446.17L1052.19 469.91C1058.66 473.851 1062.6 480.884 1062.59 488.46V522.62C1062.59 522.62 1064.07 528.81 1074.23 528.81C1084.39 528.81 1084.84 522.61 1084.84 522.61Z" fill="url(#paint34_linear)"/>
<path opacity="0.28" d="M1214.48 494.49H1122.1V616.77H1214.48V494.49Z" fill="url(#paint35_linear)"/>
<path d="M1214.49 653.78V673.28C1214.49 688.6 1193.8 701.02 1168.3 701.02C1142.8 701.02 1122.1 688.6 1122.1 673.28V653.78H1214.49Z" fill="url(#paint36_linear)"/>
<path d="M1168.3 681.52C1193.81 681.52 1214.49 669.1 1214.49 653.78C1214.49 638.459 1193.81 626.04 1168.3 626.04C1142.79 626.04 1122.11 638.459 1122.11 653.78C1122.11 669.1 1142.79 681.52 1168.3 681.52Z" fill="url(#paint37_linear)"/>
<path d="M1168.3 675.41C1188.2 675.41 1204.32 665.726 1204.32 653.78C1204.32 641.834 1188.2 632.15 1168.3 632.15C1148.41 632.15 1132.28 641.834 1132.28 653.78C1132.28 665.726 1148.41 675.41 1168.3 675.41Z" fill="url(#paint38_linear)"/>
<path d="M1132.1 565.68L1129.3 567.51L1130.79 566.43V566.31L1132.1 565.68Z" fill="#F39600"/>
<path d="M1168.3 669.31C1182.58 669.31 1194.16 662.352 1194.16 653.77C1194.16 645.187 1182.58 638.23 1168.3 638.23C1154.02 638.23 1142.44 645.187 1142.44 653.77C1142.44 662.352 1154.02 669.31 1168.3 669.31Z" fill="#475254"/>
<path d="M1214.49 616.78V636.37C1214.49 651.69 1193.8 664.11 1168.3 664.11C1142.8 664.11 1122.1 651.69 1122.1 636.37V616.78H1214.49Z" fill="url(#paint39_linear)"/>
<path d="M1168.3 644.52C1193.81 644.52 1214.49 632.1 1214.49 616.78C1214.49 601.459 1193.81 589.04 1168.3 589.04C1142.79 589.04 1122.11 601.459 1122.11 616.78C1122.11 632.1 1142.79 644.52 1168.3 644.52Z" fill="#FEED00"/>
<path d="M1218.03 496.75V510.83C1218.03 527.33 1195.75 540.72 1168.3 540.72C1140.85 540.72 1118.56 527.35 1118.56 510.83V496.75H1218.03Z" fill="url(#paint40_linear)"/>
<path d="M1168.3 526.62C1195.77 526.62 1218.03 513.247 1218.03 496.75C1218.03 480.253 1195.77 466.88 1168.3 466.88C1140.84 466.88 1118.57 480.253 1118.57 496.75C1118.57 513.247 1140.84 526.62 1168.3 526.62Z" fill="url(#paint41_linear)"/>
<path d="M1188.85 483.08V491.76C1188.85 498.59 1179.65 504.12 1168.3 504.12C1156.95 504.12 1147.74 498.59 1147.74 491.76V483.08H1188.85Z" fill="url(#paint42_linear)"/>
<path d="M1168.3 495.42C1179.66 495.42 1188.86 489.895 1188.86 483.08C1188.86 476.265 1179.66 470.74 1168.3 470.74C1156.95 470.74 1147.74 476.265 1147.74 483.08C1147.74 489.895 1156.95 495.42 1168.3 495.42Z" fill="url(#paint43_linear)"/>
<path d="M1168.3 489.31C1174.02 489.31 1178.65 486.525 1178.65 483.09C1178.65 479.655 1174.02 476.87 1168.3 476.87C1162.59 476.87 1157.95 479.655 1157.95 483.09C1157.95 486.525 1162.59 489.31 1168.3 489.31Z" fill="#F39600"/>
<path d="M1179.36 483.08V447.74C1179.97 432.654 1172.17 418.474 1159.1 410.91L1119.57 387.91C1115.9 385.79 1111.37 385.79 1107.69 387.91C1104.36 389.85 1102.3 393.401 1102.26 397.256C1102.23 401.112 1104.23 404.7 1107.52 406.7L1146.66 430.47C1153.13 434.415 1157.06 441.447 1157.05 449.02V483.18C1157.05 483.18 1158.54 489.36 1168.7 489.36C1178.86 489.36 1179.36 483.08 1179.36 483.08Z" fill="url(#paint44_linear)"/>
<path opacity="0.28" d="M1306.38 444.44H1214V566.72H1306.38V444.44Z" fill="url(#paint45_linear)"/>
<path d="M1306.38 603.72V623.25C1306.38 638.57 1285.71 651 1260.19 651C1234.67 651 1214 638.57 1214 623.25V603.72H1306.38Z" fill="url(#paint46_linear)"/>
<path d="M1260.19 631.46C1285.7 631.46 1306.38 619.04 1306.38 603.72C1306.38 588.399 1285.7 575.98 1260.19 575.98C1234.68 575.98 1214 588.399 1214 603.72C1214 619.04 1234.68 631.46 1260.19 631.46Z" fill="url(#paint47_linear)"/>
<path d="M1260.19 625.35C1280.09 625.35 1296.21 615.666 1296.21 603.72C1296.21 591.774 1280.09 582.09 1260.19 582.09C1240.3 582.09 1224.17 591.774 1224.17 603.72C1224.17 615.666 1240.3 625.35 1260.19 625.35Z" fill="url(#paint48_linear)"/>
<path d="M1224 515.63L1221.22 517.47C1221.7 517.1 1222.22 516.73 1222.7 516.38V516.31L1224 515.63Z" fill="#F39600"/>
<path d="M1260.19 619.26C1274.47 619.26 1286.05 612.302 1286.05 603.72C1286.05 595.137 1274.47 588.18 1260.19 588.18C1245.91 588.18 1234.33 595.137 1234.33 603.72C1234.33 612.302 1245.91 619.26 1260.19 619.26Z" fill="#475254"/>
<path d="M1306.38 566.72V586.31C1306.38 601.64 1285.71 614.06 1260.19 614.06C1234.67 614.06 1214 601.64 1214 586.31V566.72H1306.38Z" fill="url(#paint49_linear)"/>
<path d="M1260.19 594.46C1285.7 594.46 1306.38 582.04 1306.38 566.72C1306.38 551.399 1285.7 538.98 1260.19 538.98C1234.68 538.98 1214 551.399 1214 566.72C1214 582.04 1234.68 594.46 1260.19 594.46Z" fill="#FEED00"/>
<path d="M1309.92 446.7V460.8C1309.92 477.3 1287.64 490.67 1260.19 490.67C1232.74 490.67 1210.46 477.3 1210.46 460.8V446.7H1309.92Z" fill="url(#paint50_linear)"/>
<path d="M1260.19 476.57C1287.66 476.57 1309.92 463.196 1309.92 446.7C1309.92 430.203 1287.66 416.83 1260.19 416.83C1232.73 416.83 1210.46 430.203 1210.46 446.7C1210.46 463.196 1232.73 476.57 1260.19 476.57Z" fill="url(#paint51_linear)"/>
<path d="M1280.75 433.03V441.72C1280.75 448.54 1271.54 454.06 1260.19 454.06C1248.84 454.06 1239.64 448.54 1239.64 441.72V433.03H1280.75Z" fill="url(#paint52_linear)"/>
<path d="M1260.19 445.37C1271.55 445.37 1280.75 439.845 1280.75 433.03C1280.75 426.215 1271.55 420.69 1260.19 420.69C1248.84 420.69 1239.63 426.215 1239.63 433.03C1239.63 439.845 1248.84 445.37 1260.19 445.37Z" fill="url(#paint53_linear)"/>
<path d="M1260.19 439.25C1265.91 439.25 1270.54 436.465 1270.54 433.03C1270.54 429.595 1265.91 426.81 1260.19 426.81C1254.48 426.81 1249.84 429.595 1249.84 433.03C1249.84 436.465 1254.48 439.25 1260.19 439.25Z" fill="#F39600"/>
<path d="M1271.3 433.03V397.7C1271.94 382.589 1264.15 368.37 1251.07 360.77L1211.55 337.77C1207.88 335.65 1203.35 335.65 1199.67 337.77C1196.34 339.702 1194.27 343.254 1194.24 347.109C1194.2 350.965 1196.21 354.551 1199.51 356.54L1238.66 380.31C1245.13 384.274 1249.05 391.328 1249 398.91V433.07C1249 433.07 1250.49 439.26 1260.65 439.26C1270.81 439.26 1271.3 433.03 1271.3 433.03Z" fill="url(#paint54_linear)"/>
<path d="M1188.64 144.44C1195.97 148.67 1196 155.52 1188.64 159.75L997.742 270.75C989.436 274.98 979.608 274.98 971.302 270.75L779.062 159.75C771.742 155.52 771.712 148.67 778.992 144.44L969.992 33.4398C978.298 29.2097 988.126 29.2097 996.432 33.4398L1188.64 144.44Z" fill="url(#paint55_linear)"/>
<path d="M968.952 48.6898L778.472 159.38L779.062 159.76L971.302 270.72C979.605 274.96 989.438 274.96 997.742 270.72L1188.2 160.03L1187.62 159.66L995.442 48.6598C987.109 44.4594 977.275 44.4705 968.952 48.6898Z" fill="url(#paint56_linear)"/>
<path d="M983.792 180.43C983.552 180.44 983.315 180.377 983.112 180.25L887.442 125.02C886.79 124.645 886.563 123.815 886.932 123.16C887.306 122.513 888.132 122.29 888.782 122.66L984.462 177.91C984.774 178.086 985.002 178.38 985.096 178.725C985.19 179.071 985.142 179.44 984.962 179.75C984.725 180.177 984.271 180.439 983.782 180.43H983.792Z" fill="white"/>
<path d="M1036.8 149.85C1036.57 149.848 1036.34 149.779 1036.14 149.65L940.502 94.4898C940.191 94.3173 939.963 94.028 939.867 93.6861C939.771 93.3443 939.816 92.9784 939.992 92.6698C940.377 92.0301 941.201 91.8129 941.852 92.1798L1037.47 147.35C1038.01 147.657 1038.27 148.285 1038.11 148.881C1037.95 149.478 1037.41 149.892 1036.79 149.89L1036.8 149.85Z" fill="white"/>
<path d="M877.362 172.63L916.812 195.63L1057.05 105.09L1028.3 86.9097L1023.49 94.5397L1015.8 105.19L1003.13 115.71L995.892 121.6L983.892 127.38L968.262 132.47L940.862 139.15L914.262 142.99L894.302 151.46L881.172 164.39L877.362 172.63Z" fill="url(#paint57_linear)"/>
<path d="M877.362 172.63C877.187 172.627 877.014 172.594 876.852 172.53C876.159 172.256 875.819 171.473 876.092 170.78C876.492 169.78 886.322 146.24 919.292 140.78C923.192 140.13 927.292 139.57 931.552 138.96C962.552 134.51 1001.22 129.06 1026.38 87.3998C1026.83 86.8659 1027.61 86.7482 1028.2 87.1241C1028.79 87.4999 1029.01 88.2539 1028.72 88.8898C1002.85 131.58 963.522 137.16 931.932 141.65C927.652 142.26 923.612 142.82 919.742 143.47C907.491 145.243 896.127 150.88 887.302 159.56C883.713 163.083 880.78 167.218 878.642 171.77C878.426 172.287 877.922 172.625 877.362 172.63Z" fill="url(#paint58_linear)"/>
<path d="M900.302 186.12L905.182 175.59L910.742 169.65L915.082 166.65L932.872 156.91L939.752 154.54L948.372 151.82L955.962 145.88L959.962 140.5L962.962 134.18L967.832 115.6C967.832 115.6 971.142 99.5298 973.222 96.8098C975.302 94.0898 981.972 85.0298 981.972 85.0298L986.502 82.6498L990.642 79.1298L997.712 77.5698L1003.02 75.3498L1006.08 74.7498L1052.08 100.65L920.572 197.65L900.302 186.12Z" fill="url(#paint59_linear)"/>
<path d="M900.052 187.59H899.892C899.155 187.501 898.625 186.838 898.702 186.1C898.812 185.21 901.702 164.1 941.462 152.87C958.712 148.03 962.262 133.21 965.992 117.51C970.622 98.1098 975.422 78.0498 1005.51 74.0998C1005.87 74.0635 1006.22 74.1707 1006.5 74.3977C1006.78 74.6247 1006.96 74.9529 1006.99 75.3098C1007.06 76.0226 1006.57 76.6676 1005.86 76.7898C977.642 80.4998 973.052 99.6398 968.632 118.15C964.852 133.91 960.962 150.22 942.212 155.49C922.302 161.07 912.302 169.21 907.372 175.05C904.41 178.236 902.359 182.16 901.432 186.41C901.34 187.101 900.739 187.611 900.042 187.59H900.052Z" fill="#4C68EF"/>
<path d="M935.912 207.99C935.674 207.989 935.441 207.931 935.232 207.82L839.502 152.58C838.901 152.183 838.714 151.387 839.075 150.764C839.435 150.141 840.218 149.907 840.862 150.23L936.542 205.47C937.182 205.844 937.405 206.663 937.042 207.31C936.801 207.739 936.343 208.001 935.852 207.99H935.912Z" fill="white"/>
<path d="M1086.06 121.58C1085.82 121.583 1085.59 121.517 1085.39 121.39L989.642 66.1497C989.182 65.9269 988.885 65.4645 988.875 64.9531C988.864 64.4417 989.142 63.9677 989.593 63.7264C990.044 63.4851 990.592 63.5173 991.012 63.8097L1086.68 119.04C1087.33 119.415 1087.56 120.245 1087.19 120.9C1086.95 121.302 1086.53 121.558 1086.06 121.58Z" fill="white"/>
<path d="M1006.3 203.09C995.735 197.72 983.239 197.72 972.672 203.09C969.375 204.693 966.927 207.636 965.952 211.17L971.892 210.74C972.833 208.447 974.564 206.567 976.772 205.44C984.79 201.349 994.283 201.349 1002.3 205.44C1009.37 209.52 1009.4 216.15 1002.38 220.29C998.956 222.143 995.145 223.17 991.252 223.29L991.112 226.61C996.471 226.521 1001.73 225.15 1006.45 222.61C1015.7 217.2 1015.64 208.47 1006.3 203.09Z" fill="url(#paint60_linear)"/>
<path d="M975.722 221.12C984.427 225.579 994.747 225.579 1003.45 221.12C1006.17 219.807 1008.19 217.382 1008.99 214.47L1004.12 214.83C1003.36 216.718 1001.94 218.266 1000.12 219.19C993.535 222.569 985.728 222.592 979.122 219.25C973.282 215.88 973.262 210.43 979.052 207.05C981.873 205.519 985.014 204.67 988.222 204.57L988.342 201.83C983.926 201.901 979.592 203.029 975.702 205.12C967.992 209.5 968.032 216.7 975.722 221.12Z" fill="url(#paint61_linear)"/>
<path d="M1003.21 205.1C994.5 200.65 984.183 200.65 975.472 205.1C972.746 206.426 970.721 208.859 969.912 211.78L974.782 211.4C975.558 209.52 976.975 207.975 978.782 207.04C985.4 203.68 993.224 203.68 999.842 207.04C1005.66 210.41 1005.68 215.88 999.842 219.23C997.017 220.765 993.875 221.624 990.662 221.74L990.542 224.47C994.965 224.402 999.308 223.27 1003.2 221.17C1010.91 216.72 1010.87 209.54 1003.21 205.1Z" fill="#4C68EF"/>
<path d="M1056.56 170.78C1046 165.399 1033.5 165.399 1022.93 170.78C1019.63 172.381 1017.18 175.324 1016.2 178.86L1022.14 178.41C1023.09 176.122 1024.82 174.249 1027.03 173.13C1035.05 169.039 1044.54 169.039 1052.56 173.13C1059.63 177.21 1059.66 183.84 1052.65 187.98C1049.22 189.826 1045.41 190.853 1041.51 190.98L1041.36 194.29C1046.73 194.216 1051.99 192.843 1056.71 190.29C1065.92 184.91 1065.87 176.18 1056.56 170.78Z" fill="#4C68EF"/>
<path d="M1025.92 188.82C1034.63 193.279 1044.95 193.279 1053.65 188.82C1056.37 187.491 1058.38 185.063 1059.19 182.15L1054.32 182.52C1053.55 184.405 1052.13 185.953 1050.32 186.89C1043.72 190.226 1035.92 190.226 1029.32 186.89C1023.48 183.51 1023.45 178.05 1029.24 174.69C1032.07 173.158 1035.21 172.303 1038.42 172.19L1038.54 169.45C1034.12 169.518 1029.79 170.65 1025.9 172.75C1018.21 177.19 1018.3 184.38 1025.92 188.82Z" fill="url(#paint62_linear)"/>
<path d="M1053.38 172.8C1044.68 168.34 1034.36 168.34 1025.65 172.8C1022.93 174.119 1020.9 176.539 1020.08 179.45L1024.96 179.1C1025.72 177.208 1027.15 175.656 1028.96 174.73C1035.58 171.36 1043.41 171.36 1050.02 174.73C1055.85 178.1 1055.86 183.55 1050.02 186.92C1047.2 188.455 1044.06 189.314 1040.85 189.43L1040.73 192.16C1045.15 192.096 1049.49 190.964 1053.38 188.86C1061.13 184.42 1061.1 177.22 1053.38 172.8Z" fill="url(#paint63_linear)"/>
<path d="M1103.88 142.02C1093.32 136.639 1080.82 136.639 1070.25 142.02C1066.95 143.623 1064.5 146.565 1063.52 150.1L1069.46 149.67C1070.41 147.374 1072.14 145.491 1074.35 144.36C1082.37 140.281 1091.86 140.281 1099.88 144.36C1106.95 148.45 1107 155.07 1099.97 159.22C1096.55 161.066 1092.74 162.093 1088.85 162.22L1088.7 165.56C1094.01 165.439 1099.21 164.068 1103.88 161.56C1113.18 156.11 1113.13 147.38 1103.88 142.02Z" fill="url(#paint64_linear)"/>
<path d="M1073.19 160.04C1081.9 164.49 1092.21 164.49 1100.92 160.04C1103.65 158.731 1105.67 156.3 1106.46 153.38L1101.61 153.74C1100.84 155.62 1099.42 157.165 1097.61 158.1C1091 161.479 1083.17 161.479 1076.55 158.1C1070.73 154.75 1070.71 149.28 1076.55 145.91C1079.36 144.413 1082.48 143.588 1085.66 143.5L1085.79 140.75C1081.37 140.824 1077.03 141.955 1073.14 144.05C1065.47 148.41 1065.51 155.61 1073.19 160.04Z" fill="#00FFFF"/>
<path d="M1100.69 144.01C1091.98 139.56 1081.66 139.56 1072.95 144.01C1070.23 145.338 1068.21 147.771 1067.41 150.69L1072.27 150.31C1073.06 148.434 1074.47 146.892 1076.27 145.95C1082.89 142.59 1090.72 142.59 1097.34 145.95C1103.16 149.32 1103.18 154.85 1097.41 158.14C1094.59 159.671 1091.44 160.53 1088.23 160.65L1088.1 163.38C1092.52 163.316 1096.86 162.184 1100.75 160.08C1108.41 155.64 1108.3 148.45 1100.69 144.01Z" fill="url(#paint65_linear)"/>
<path d="M999.122 235.24L1002.12 236.99L1022.72 225.11L1019.72 223.34L999.122 235.24Z" fill="white"/>
<path d="M1004.91 238.62L1007.91 240.37L1028.51 228.47L1025.51 226.72L1004.91 238.62Z" fill="white"/>
<path d="M1011.72 242.53L1014.72 244.28L1025.72 237.95L1022.72 236.14L1011.72 242.53Z" fill="white"/>
<path d="M1052.7 201.41L1055.7 203.18L1076.3 191.29L1073.3 189.53L1052.7 201.41Z" fill="white"/>
<path d="M1058.49 204.79L1061.49 206.56L1082.09 194.66L1079.09 192.89L1058.49 204.79Z" fill="white"/>
<path d="M1065.3 208.71L1068.3 210.48L1079.3 204.13L1076.3 202.34L1065.3 208.71Z" fill="white"/>
<path d="M1101.01 170.91L1104.01 172.67L1124.61 160.77L1121.61 159.02L1101.01 170.91Z" fill="white"/>
<path d="M1106.8 174.25L1109.8 176.02L1130.4 164.12L1127.4 162.37L1106.8 174.25Z" fill="white"/>
<path d="M1113.59 178.17L1116.59 179.94L1127.59 173.61L1124.59 171.8L1113.59 178.17Z" fill="white"/>
<path d="M844.122 148.42L847.122 150.17L858.122 143.85L855.122 142.05L844.122 148.42Z" fill="white"/>
<path d="M849.922 152.49L852.922 154.24L863.922 147.92L860.922 146.1L849.922 152.49Z" fill="white"/>
<path d="M890.612 119.82L893.612 121.58L904.612 115.24L901.612 113.45L890.612 119.82Z" fill="white"/>
<path d="M943.692 90.1198L946.692 91.8898L957.692 85.5498L954.692 83.7498L943.692 90.1198Z" fill="white"/>
<path d="M812.692 148.42L815.692 150.17L826.692 143.85L823.752 142.05L812.692 148.42Z" fill="white"/>
<path d="M817.782 152.16L820.782 153.93L831.782 147.6L828.842 145.79L817.782 152.16Z" fill="white"/>
<path d="M809.792 155.02C812.322 156.5 812.332 158.83 809.792 160.28C806.943 161.73 803.572 161.73 800.722 160.28C798.212 158.79 798.192 156.47 800.722 155.02C803.569 153.56 806.945 153.56 809.792 155.02Z" fill="white"/>
<path d="M1199.3 256.04C1212.13 248.62 1222.56 254.56 1222.6 269.34C1222.64 284.12 1212.21 302.01 1199.45 309.44L1059.3 390.34C1046.47 397.77 1036.02 391.83 1035.98 377.07C1035.94 362.31 1046.37 344.39 1059.15 336.97L1199.3 256.04Z" fill="url(#paint66_linear)"/>
<path d="M1207.64 253.04C1204.69 253.49 1201.86 254.509 1199.3 256.04L1059.16 337.04C1046.33 344.47 1035.96 362.41 1035.99 377.14C1035.72 381.8 1037.23 386.391 1040.21 389.98C1043.16 389.522 1045.99 388.503 1048.55 386.98L1188.69 306.04C1201.52 298.62 1211.89 280.69 1211.85 265.94C1212.14 261.261 1210.63 256.65 1207.64 253.04Z" fill="url(#paint67_linear)"/>
<path d="M1072.76 347.82C1069.6 349.877 1067.61 353.322 1067.41 357.09C1067.41 360.5 1069.83 361.88 1072.79 360.16C1075.95 358.099 1077.94 354.657 1078.15 350.89C1078.14 347.48 1075.73 346.11 1072.76 347.82Z" fill="url(#paint68_linear)"/>
<path d="M879.762 582.02C876.592 584.068 874.604 587.52 874.422 591.29C874.422 594.7 876.842 596.08 879.792 594.36C882.952 592.299 884.943 588.857 885.152 585.09C885.142 581.66 882.732 580.31 879.762 582.02Z" fill="url(#paint69_linear)"/>
<path d="M575.672 756.58C572.513 758.64 570.525 762.084 570.322 765.85C570.322 769.27 572.732 770.65 575.702 768.94C578.865 766.88 580.85 763.43 581.042 759.66C581.062 756.25 578.642 754.91 575.672 756.58Z" fill="url(#paint70_linear)"/>
<path d="M1104.95 327.19C1101.78 329.24 1099.79 332.689 1099.6 336.46C1099.6 339.87 1102.01 341.26 1104.98 339.53C1108.14 337.477 1110.13 334.034 1110.32 330.27C1110.3 326.85 1107.92 325.48 1104.95 327.19Z" fill="url(#paint71_linear)"/>
<path d="M1137.11 306.56C1133.96 308.629 1131.98 312.067 1131.76 315.83C1131.76 319.23 1134.18 320.62 1137.16 318.9C1140.32 316.843 1142.31 313.397 1142.51 309.63C1142.5 306.22 1140.09 304.85 1137.11 306.56Z" fill="url(#paint72_linear)"/>
<path d="M1169.3 285.91C1166.13 287.96 1164.14 291.409 1163.95 295.18C1163.95 298.58 1166.37 299.96 1169.33 298.25C1172.49 296.182 1174.48 292.733 1174.69 288.96C1174.68 285.59 1172.3 284.21 1169.3 285.91Z" fill="url(#paint73_linear)"/>
<path d="M1119.96 618.98V657.5C1119.96 672.83 1099.29 685.25 1073.77 685.25C1048.25 685.25 1027.58 672.83 1027.58 657.5V618.98H1119.96Z" fill="url(#paint74_linear)"/>
<path d="M1073.77 646.72C1099.28 646.72 1119.96 634.3 1119.96 618.98C1119.96 603.659 1099.28 591.24 1073.77 591.24C1048.26 591.24 1027.58 603.659 1027.58 618.98C1027.58 634.3 1048.26 646.72 1073.77 646.72Z" fill="url(#paint75_linear)"/>
<path d="M1214.49 579.28V617.8C1214.49 633.13 1193.81 645.55 1168.3 645.55C1142.79 645.55 1122.1 633.13 1122.1 617.8V579.28H1214.49Z" fill="url(#paint76_linear)"/>
<path d="M1168.3 607.02C1193.81 607.02 1214.49 594.6 1214.49 579.28C1214.49 563.959 1193.81 551.54 1168.3 551.54C1142.79 551.54 1122.11 563.959 1122.11 579.28C1122.11 594.6 1142.79 607.02 1168.3 607.02Z" fill="#4C68EF"/>
<path d="M1306.38 528.2V566.72C1306.38 582.05 1285.71 594.47 1260.19 594.47C1234.67 594.47 1214 582.05 1214 566.72V528.2H1306.38Z" fill="url(#paint77_linear)"/>
<path d="M1260.19 555.94C1285.7 555.94 1306.38 543.52 1306.38 528.2C1306.38 512.879 1285.7 500.46 1260.19 500.46C1234.68 500.46 1214 512.879 1214 528.2C1214 543.52 1234.68 555.94 1260.19 555.94Z" fill="#FFCB33"/>
<path d="M574.704 948.965L574.124 936.445L549.574 928.665L304.134 786.965C294.594 781.425 279.004 781.425 269.524 786.965L17.9738 933.175L0.193848 936.465L0.783848 949.075C0.783848 952.765 3.21385 956.325 7.96385 959.075L271.344 1111.14C280.894 1116.68 296.484 1116.68 305.964 1111.14L567.634 959.075C572.464 956.315 574.754 952.635 574.704 948.965Z" fill="url(#paint78_linear)"/>
<path d="M566.924 926.867L303.544 774.807C294.004 769.267 278.434 769.267 268.944 774.807L7.284 926.887C-2.196 932.427 -2.156 941.417 7.394 946.887L270.774 1098.95C280.314 1104.49 295.904 1104.49 305.374 1098.95L567.054 946.887C576.534 941.397 576.474 932.397 566.924 926.867ZM513.754 945.017L301.904 1068.13C293.099 1072.57 282.709 1072.57 273.904 1068.13L60.694 945.017C52.954 940.547 52.914 933.257 60.604 928.787L272.424 805.647C281.226 801.191 291.622 801.191 300.424 805.647L513.664 928.747C521.374 933.237 521.414 940.547 513.754 945.017Z" fill="url(#paint79_linear)"/>
<path d="M513.664 928.787C521.374 933.237 521.414 940.547 513.664 945.017L301.904 1068.12C293.102 1072.57 282.706 1072.57 273.904 1068.12L60.694 945.017C52.964 940.547 52.924 933.257 60.604 928.787L272.434 805.647C281.236 801.192 291.632 801.192 300.434 805.647L513.664 928.787Z" fill="#AEBDE6"/>
<path d="M301.904 1068.13L511.364 946.397L299.724 824.107C290.919 819.666 280.529 819.666 271.724 824.107L62.2539 945.977L273.904 1068.13C282.709 1072.57 293.099 1072.57 301.904 1068.13Z" fill="url(#paint80_linear)"/>
<path d="M988.449 706.55L924.349 669.3V286.09C964.001 309.187 988.407 351.601 988.449 397.49V706.55Z" fill="url(#paint81_linear)"/>
<path d="M501.976 922.357L301.506 806.617C292.705 802.161 282.308 802.161 273.506 806.617L74.3465 922.357H55.8765V938.587C56.5021 941.803 58.6175 944.53 61.5765 945.937L274.816 1069.04C283.618 1073.49 294.015 1073.49 302.816 1069.04L514.667 945.937C517.64 944.53 519.757 941.781 520.357 938.547V922.357H501.976Z" fill="url(#paint82_linear)"/>
<path d="M514.717 919.367C522.457 923.817 522.497 931.127 514.717 935.597L302.897 1058.68C294.098 1063.15 283.695 1063.15 274.897 1058.68L61.6566 935.597C53.9366 931.127 53.8966 923.817 61.6566 919.367L273.497 796.267C282.295 791.797 292.698 791.797 301.497 796.267L514.717 919.367Z" fill="url(#paint83_linear)"/>
<path d="M514.717 914.857C522.457 919.307 522.497 926.627 514.717 931.087L302.897 1054.2C294.091 1058.64 283.702 1058.64 274.897 1054.2L61.6566 931.087C53.9366 926.627 53.8966 919.327 61.6566 914.857L273.497 791.757C282.298 787.301 292.695 787.301 301.497 791.757L514.717 914.857Z" fill="url(#paint84_linear)"/>
<path d="M288.857 1036.02C284.551 1036.09 280.299 1035.06 276.507 1033.02L99.5766 930.937C96.408 929.481 94.2843 926.415 94.0366 922.937C94.2135 919.434 96.3601 916.334 99.5766 914.937L275.377 812.767C283.14 808.816 292.324 808.816 300.087 812.767L476.947 914.867C480.115 916.322 482.239 919.389 482.487 922.867C482.287 926.349 480.145 929.423 476.947 930.817L301.217 1033.05C297.42 1035.08 293.163 1036.1 288.857 1036.02ZM287.577 812.687C283.794 812.597 280.052 813.478 276.707 815.247L100.907 917.417C98.6694 918.404 97.1398 920.523 96.9066 922.957C97.1871 925.403 98.7495 927.514 101.007 928.497L278.007 1030.68C284.871 1034.1 292.942 1034.1 299.807 1030.68L475.577 928.497C477.785 927.522 479.309 925.446 479.577 923.047C479.277 920.609 477.721 918.506 475.477 917.507L298.577 815.337C295.197 813.525 291.41 812.609 287.577 812.677V812.687Z" fill="url(#paint85_linear)"/>
<path d="M412.186 918.557C416.416 920.987 416.426 924.997 412.186 927.437L296.266 994.797C291.446 997.231 285.756 997.231 280.936 994.797L164.296 927.347C160.066 924.907 160.056 920.897 164.296 918.467L280.226 851.097C285.046 848.647 290.746 848.647 295.566 851.097L412.186 918.557Z" fill="url(#paint86_linear)"/>
<path d="M412.187 924.717L295.507 857.367C290.689 854.907 284.984 854.907 280.167 857.367L164.297 924.727C163.696 925.082 163.144 925.516 162.657 926.017C163.157 926.536 163.73 926.98 164.357 927.337L281.027 994.697C285.847 997.131 291.537 997.131 296.357 994.697L412.277 927.337C412.889 926.988 413.448 926.553 413.937 926.047C413.414 925.529 412.826 925.082 412.187 924.717Z" fill="url(#paint87_linear)"/>
<path d="M324.577 901.937C326.156 902.832 327.673 903.835 329.117 904.937C329.427 905.177 329.357 905.527 328.927 905.717C328.529 905.897 328.074 905.897 327.677 905.717C326.254 904.647 324.768 903.666 323.227 902.777C320.768 901.345 318.2 900.111 315.547 899.087C303.64 894.746 290.873 893.296 278.297 894.857C265.557 896.347 254.577 900.587 247.297 906.767L246.907 907.117C243.385 909.789 239.066 911.198 234.647 911.117C234.402 911.134 234.159 911.078 233.947 910.957C233.799 910.885 233.695 910.748 233.667 910.587C233.667 910.297 234.057 910.037 234.577 910.017C238.322 910.065 241.987 908.927 245.047 906.767L245.307 906.527C252.877 899.897 264.466 895.447 277.936 893.807C291.025 892.154 304.319 893.659 316.707 898.197C319.423 899.237 322.054 900.487 324.577 901.937Z" fill="white"/>
<path d="M329.707 898.937C335.391 901.994 340.208 906.442 343.707 911.867C343.877 912.157 343.617 912.467 343.117 912.567C342.778 912.638 342.426 912.592 342.117 912.437C342.029 912.38 341.951 912.309 341.887 912.227C338.524 906.955 333.866 902.634 328.357 899.677C325.519 898.048 322.556 896.647 319.497 895.487C306.654 890.799 292.923 889.056 279.317 890.387C279.03 890.415 278.742 890.359 278.487 890.227C278.358 890.166 278.258 890.059 278.207 889.927C278.207 889.617 278.487 889.337 278.997 889.297C293.074 887.902 307.285 889.693 320.577 894.537C323.739 895.753 326.802 897.214 329.737 898.907L329.707 898.937Z" fill="white"/>
<path d="M256.966 905.467C257.356 905.707 257.376 906.047 256.966 906.267C255.674 907.066 254.44 907.959 253.276 908.937L252.886 909.307C248.346 913.307 240.406 915.507 232.166 915.117C231.954 915.11 231.745 915.055 231.556 914.957C231.386 914.876 231.277 914.705 231.276 914.517C231.276 914.217 231.776 913.977 232.276 914.017C239.666 914.367 246.706 912.447 250.906 909.017L251.226 908.717C252.588 907.537 254.039 906.463 255.566 905.507C255.994 905.293 256.498 905.293 256.926 905.507L256.966 905.467Z" fill="white"/>
<path d="M292.576 901.717C292.748 901.794 292.855 901.969 292.846 902.157C292.846 902.467 292.316 902.687 291.796 902.657C279.056 901.877 266.796 905.147 259.466 911.167L258.946 911.647C252.776 917.057 242.016 919.977 230.846 919.277C230.645 919.266 230.45 919.208 230.276 919.107C230.099 919.035 229.986 918.858 229.996 918.667C229.996 918.357 230.526 918.127 230.996 918.167C241.116 918.817 250.906 916.327 256.756 911.507L257.276 911.027C264.876 904.357 278.176 900.717 291.936 901.547C292.142 901.556 292.344 901.611 292.526 901.707L292.576 901.717Z" fill="white"/>
<path d="M314.376 907.737C320.376 911.207 324.196 915.787 325.086 920.787C325.086 921.087 324.776 921.367 324.236 921.397C323.967 921.415 323.697 921.359 323.456 921.237C323.325 921.163 323.228 921.041 323.186 920.897C322.356 916.157 318.736 911.817 313.026 908.527C311.254 907.516 309.401 906.653 307.486 905.947C305.134 905.045 302.713 904.336 300.246 903.827C300.123 903.799 300.005 903.752 299.896 903.687C299.784 903.643 299.696 903.554 299.653 903.441C299.611 903.328 299.62 903.203 299.676 903.097C299.995 902.776 300.46 902.65 300.896 902.767C303.5 903.32 306.058 904.072 308.546 905.017C310.555 905.776 312.504 906.685 314.376 907.737Z" fill="white"/>
<path d="M249.376 920.827C249.462 920.856 249.535 920.912 249.586 920.987C249.786 921.267 249.586 921.597 249.106 921.717C243 923.235 236.698 923.818 230.416 923.447C230.211 923.435 230.01 923.38 229.826 923.287C229.655 923.202 229.546 923.028 229.546 922.837C229.546 922.547 230.066 922.327 230.606 922.347C236.561 922.696 242.535 922.147 248.326 920.717C248.677 920.607 249.057 920.647 249.376 920.827Z" fill="white"/>
<path d="M304.206 913.637C304.626 913.877 305.016 914.117 305.406 914.377C305.796 914.637 305.696 914.967 305.296 915.147C304.888 915.357 304.404 915.357 303.996 915.147C303.596 914.877 303.246 914.657 302.856 914.427C301.825 913.845 300.752 913.34 299.646 912.917C290.416 909.347 277.926 910.677 271.466 915.827L270.966 916.277C262.196 923.977 246.856 928.277 230.966 927.687C230.753 927.675 230.545 927.617 230.356 927.517C230.156 927.407 230.046 927.257 230.066 927.097C230.282 926.756 230.664 926.557 231.066 926.577C245.986 927.187 260.386 923.197 268.866 916.107L269.346 915.667C276.216 909.667 290.286 908.007 300.736 911.977C301.935 912.438 303.095 912.993 304.206 913.637Z" fill="white"/>
<path d="M274.966 919.437C275.296 919.637 275.336 919.937 274.966 920.177C264.966 927.837 248.966 932.177 232.296 931.907C232.071 931.892 231.85 931.834 231.646 931.737C231.494 931.651 231.391 931.5 231.366 931.327C231.366 931.017 231.836 930.777 232.366 930.797C248.416 931.107 263.756 926.887 273.436 919.497C273.846 919.254 274.347 919.22 274.786 919.407L274.966 919.437Z" fill="white"/>
<path d="M299.087 916.597C300.989 917.556 302.483 919.167 303.297 921.137C304.085 923.617 303.185 926.323 301.067 927.837L300.627 928.227C297.659 930.747 294.47 932.993 291.097 934.937C290.671 935.146 290.172 935.146 289.747 934.937C289.582 934.872 289.474 934.713 289.474 934.537C289.474 934.36 289.582 934.201 289.747 934.137C293.196 932.145 296.448 929.828 299.457 927.217L299.827 926.887C301.452 925.547 302.09 923.349 301.437 921.347C300.72 919.615 299.407 918.196 297.737 917.347C297.067 916.953 296.364 916.619 295.637 916.347C290.822 914.627 285.561 914.627 280.747 916.347C280.368 916.517 279.935 916.517 279.557 916.347H279.437C279.147 916.087 279.257 915.757 279.697 915.597C285.189 913.611 291.204 913.611 296.697 915.597C297.517 915.87 298.316 916.204 299.087 916.597Z" fill="white"/>
<path d="M258.096 932.307C258.177 932.354 258.245 932.419 258.296 932.497C258.516 932.777 258.296 933.087 257.816 933.217C250.294 935.102 242.571 936.069 234.816 936.097C234.576 936.095 234.34 936.037 234.126 935.927C233.973 935.86 233.869 935.714 233.856 935.547C233.856 935.247 234.256 934.987 234.796 934.987C242.265 934.955 249.703 934.019 256.946 932.197C257.312 932.107 257.697 932.145 258.036 932.307H258.096Z" fill="white"/>
<path d="M319.397 904.777C333.877 913.127 336.867 926.457 325.547 936.727L325.147 937.087C324.087 938.017 322.987 938.937 321.857 939.807C321.462 940.057 320.972 940.106 320.537 939.937C320.097 939.677 320.057 939.377 320.337 939.157C321.337 938.367 322.337 937.567 323.227 936.757L323.567 936.477C334.826 926.587 332.077 913.637 318.027 905.557C315.93 904.358 313.743 903.325 311.487 902.467C303.698 899.587 295.438 898.197 287.137 898.367C279.101 898.393 271.14 899.908 263.656 902.837C263.266 902.997 262.827 902.997 262.436 902.837C262.006 902.497 262.127 902.147 262.547 901.987C270.367 898.923 278.688 897.34 287.087 897.317C295.777 897.13 304.424 898.582 312.577 901.597C314.929 902.477 317.21 903.54 319.397 904.777Z" fill="white"/>
<path d="M288.916 922.507C289.226 922.687 289.296 922.987 289.036 923.207C282.49 928.693 274.906 932.804 266.736 935.297C257.564 938.225 248.03 939.87 238.406 940.187C238.153 940.204 237.9 940.149 237.676 940.027C237.528 939.968 237.421 939.835 237.396 939.677C237.396 939.367 237.766 939.097 238.276 939.087C247.622 938.787 256.881 937.188 265.786 934.337C273.72 931.915 281.086 927.922 287.446 922.597C287.832 922.335 288.322 922.279 288.756 922.447L288.916 922.507Z" fill="white"/>
<path d="M345.736 916.707C345.862 916.767 345.959 916.875 346.006 917.007C348.656 925.567 345.566 934.287 337.346 941.557C337.399 941.462 337.41 941.349 337.378 941.245C337.346 941.142 337.273 941.056 337.176 941.007H337.126H336.976C336.537 940.844 336.047 940.899 335.656 941.157L335.526 941.287C335.516 941.244 335.516 941.199 335.526 941.157C343.576 934.097 346.606 925.627 344.036 917.277C343.946 916.987 344.296 916.687 344.816 916.657C345.119 916.563 345.445 916.581 345.736 916.707Z" fill="white"/>
<path d="M294.026 919.527C296.746 921.097 297.276 923.617 295.086 925.527L294.616 925.927C282.786 936.007 264.056 942.637 243.106 944.137C242.829 944.151 242.553 944.093 242.306 943.967C242.175 943.897 242.078 943.778 242.036 943.637C242.036 943.337 242.346 943.067 242.866 943.027C263.576 941.557 282.006 934.937 293.476 924.937L293.766 924.677C295.116 923.257 294.636 921.477 292.676 920.357C292.355 920.178 292.021 920.024 291.676 919.897C288.97 918.879 285.952 919.113 283.436 920.537L282.996 920.927C277.981 925.157 272.246 928.453 266.066 930.657C265.691 930.826 265.261 930.826 264.886 930.657C264.836 930.639 264.791 930.608 264.756 930.567C264.456 930.307 264.586 929.977 265.026 929.807C270.791 927.734 276.158 924.69 280.896 920.807L281.356 920.347C284.696 918.057 288.95 917.564 292.726 919.027C293.17 919.165 293.604 919.332 294.026 919.527Z" fill="white"/>
<path d="M309.276 910.687C319.136 916.367 321.096 925.457 313.136 932.457L312.806 932.767C305.848 938.606 298.007 943.304 289.576 946.687C289.186 946.867 288.737 946.867 288.346 946.687C287.936 946.377 288.026 946.027 288.456 945.857C296.865 942.497 304.673 937.796 311.576 931.937L311.876 931.697C318.986 925.197 317.086 916.817 307.976 911.557C306.59 910.78 305.145 910.112 303.656 909.557C291.066 904.727 274.116 906.557 265.516 913.627L264.996 914.087C262.716 916.049 260.167 917.675 257.426 918.917C257.027 919.117 256.556 919.117 256.156 918.917C255.989 918.847 255.88 918.683 255.88 918.502C255.88 918.32 255.989 918.157 256.156 918.087C258.535 916.999 260.766 915.615 262.796 913.967L263.296 913.487C272.366 905.557 290.906 903.387 304.646 908.667C306.242 909.214 307.79 909.889 309.276 910.687Z" fill="white"/>
<path d="M284.316 937.697C284.646 937.947 284.576 938.297 284.166 938.497C273.003 943.429 261.123 946.545 248.976 947.727C248.682 947.766 248.383 947.706 248.126 947.557C248.007 947.505 247.914 947.408 247.866 947.287C247.756 946.967 248.106 946.697 248.626 946.637C260.487 945.46 272.083 942.394 282.976 937.557C283.419 937.38 283.92 937.433 284.316 937.697Z" fill="white"/>
<path d="M309.737 919.067C309.833 919.128 309.915 919.21 309.977 919.307C311.827 923.007 310.777 926.957 307.117 930.147L306.686 930.537C294.796 940.727 276.957 948.057 256.377 951.167C256.065 951.223 255.743 951.17 255.467 951.017C255.358 950.965 255.267 950.881 255.207 950.777C255.077 950.477 255.377 950.167 255.897 950.087C276.207 947.007 293.897 939.717 305.507 929.537L305.887 929.207C308.797 926.932 309.736 922.941 308.147 919.607C307.997 919.307 308.277 919.017 308.787 918.917C309.108 918.865 309.437 918.918 309.727 919.067H309.737Z" fill="white"/>
<path d="M281.956 948.747L282.096 948.857C282.356 949.137 282.216 949.467 281.746 949.617C276.346 951.411 270.839 952.864 265.256 953.967C264.918 954.047 264.562 954.001 264.256 953.837C264.169 953.786 264.094 953.718 264.036 953.637C263.866 953.337 264.036 953.027 264.626 952.937C270.094 951.848 275.489 950.415 280.776 948.647C281.168 948.531 281.589 948.567 281.956 948.747Z" fill="white"/>
<path d="M333.746 909.097L333.916 909.227C342.366 918.707 341.496 930.057 331.636 938.997L331.196 939.397C323.574 945.919 315.032 951.283 305.846 955.317C305.446 955.496 304.987 955.496 304.586 955.317C304.186 955.027 304.256 954.677 304.586 954.487C313.471 950.591 321.744 945.427 329.146 939.157L329.536 938.827C339.416 930.167 340.416 919.037 332.136 909.827C331.896 909.547 332.136 909.217 332.546 909.067C332.94 908.929 333.372 908.954 333.746 909.137V909.097Z" fill="white"/>
<path d="M324.576 925.757C324.764 925.838 324.878 926.033 324.856 926.237C323.883 929.513 321.954 932.424 319.316 934.597L319.136 934.787C308.476 944.017 293.536 951.407 275.976 956.017C275.618 956.105 275.239 956.066 274.906 955.907L274.706 955.747C274.486 955.467 274.706 955.137 275.186 955.007C292.356 950.557 306.936 943.417 317.396 934.307L317.546 934.157C320.115 932.067 321.994 929.251 322.936 926.077C322.936 925.777 323.506 925.577 324.026 925.617C324.217 925.623 324.405 925.671 324.576 925.757Z" fill="white"/>
<path d="M316.046 943.187C316.426 943.407 316.466 943.737 316.046 943.957C307.642 949.413 298.566 953.759 289.046 956.887C288.681 957.037 288.271 957.037 287.906 956.887C287.848 956.855 287.796 956.81 287.756 956.757C287.476 956.497 287.646 956.167 288.086 955.997C297.422 952.95 306.326 948.712 314.576 943.387C314.991 943.051 315.557 942.974 316.046 943.187Z" fill="white"/>
<defs>
<linearGradient id="paint0_linear" x1="678.962" y1="86.0838" x2="1020.65" y2="86.0838" gradientUnits="userSpaceOnUse">
<stop stop-color="#F4F9FF"/>
<stop offset="0.02" stop-color="#EFF5FE"/>
<stop offset="0.13" stop-color="#DEE8F9"/>
<stop offset="0.27" stop-color="#D3DFF5"/>
<stop offset="0.46" stop-color="#CCD9F4"/>
<stop offset="1" stop-color="#CAD8F3"/>
</linearGradient>
<linearGradient id="paint1_linear" x1="399.798" y1="624.151" x2="399.798" y2="791.062" gradientUnits="userSpaceOnUse">
<stop stop-color="#F4F9FF"/>
<stop offset="0.02" stop-color="#EFF5FE"/>
<stop offset="0.13" stop-color="#DEE8F9"/>
<stop offset="0.27" stop-color="#D3DFF5"/>
<stop offset="0.46" stop-color="#CCD9F4"/>
<stop offset="1" stop-color="#CAD8F3"/>
</linearGradient>
<linearGradient id="paint2_linear" x1="406.528" y1="626.376" x2="406.528" y2="790.479" gradientUnits="userSpaceOnUse">
<stop stop-color="#F4F9FF"/>
<stop offset="1" stop-color="#CAD8F3"/>
</linearGradient>
<linearGradient id="paint3_linear" x1="990.314" y1="734.097" x2="760.214" y2="-156.372" gradientUnits="userSpaceOnUse">
<stop stop-color="#4C68EF"/>
<stop offset="1" stop-color="#4C68EF" stop-opacity="0"/>
</linearGradient>
<linearGradient id="paint4_linear" x1="713.674" y1="598.319" x2="921.396" y2="598.319" gradientUnits="userSpaceOnUse">
<stop stop-color="#F4F9FF"/>
<stop offset="1" stop-color="#CAD8F3"/>
</linearGradient>
<linearGradient id="paint5_linear" x1="954.237" y1="740.632" x2="724.684" y2="-150.566" gradientUnits="userSpaceOnUse">
<stop stop-color="#4C68EF"/>
<stop offset="0.17" stop-color="#4C68EF" stop-opacity="0.76"/>
<stop offset="0.4" stop-color="#4C68EF" stop-opacity="0.5"/>
<stop offset="0.6" stop-color="#4C68EF" stop-opacity="0.28"/>
<stop offset="0.77" stop-color="#4C68EF" stop-opacity="0.13"/>
<stop offset="0.91" stop-color="#4C68EF" stop-opacity="0.03"/>
<stop offset="1" stop-color="#4C68EF" stop-opacity="0"/>
</linearGradient>
<linearGradient id="paint6_linear" x1="677.935" y1="159.243" x2="677.935" y2="547.443" gradientUnits="userSpaceOnUse">
<stop stop-color="#F4F9FF"/>
<stop offset="1" stop-color="#CAD8F3"/>
</linearGradient>
<linearGradient id="paint7_linear" x1="425.635" y1="715.404" x2="1026.38" y2="375.808" gradientUnits="userSpaceOnUse">
<stop stop-color="#00366A"/>
<stop offset="0.33" stop-color="#003368"/>
<stop offset="0.57" stop-color="#012A62"/>
<stop offset="0.78" stop-color="#031A57"/>
<stop offset="0.97" stop-color="#050448"/>
<stop offset="1" stop-color="#050046"/>
</linearGradient>
<linearGradient id="paint8_linear" x1="557.575" y1="552.285" x2="1271.14" y2="552.285" gradientUnits="userSpaceOnUse">
<stop stop-color="#00366A"/>
<stop offset="0.33" stop-color="#003368"/>
<stop offset="0.57" stop-color="#012A62"/>
<stop offset="0.78" stop-color="#031A57"/>
<stop offset="0.97" stop-color="#050448"/>
<stop offset="1" stop-color="#050046"/>
</linearGradient>
<linearGradient id="paint9_linear" x1="897.676" y1="394.483" x2="1028" y2="394.483" gradientUnits="userSpaceOnUse">
<stop stop-color="#FFF52A"/>
<stop offset="0.51" stop-color="#FFF32A"/>
<stop offset="0.71" stop-color="#FFEC2C"/>
<stop offset="0.86" stop-color="#FFE02F"/>
<stop offset="0.98" stop-color="#FFCF32"/>
<stop offset="1" stop-color="#FFCB33"/>
</linearGradient>
<linearGradient id="paint10_linear" x1="1255.13" y1="372.36" x2="1255.19" y2="372.36" gradientUnits="userSpaceOnUse">
<stop stop-color="#FFF52A"/>
<stop offset="0.51" stop-color="#FFF32A"/>
<stop offset="0.71" stop-color="#FFEC2C"/>
<stop offset="0.86" stop-color="#FFE02F"/>
<stop offset="0.98" stop-color="#FFCF32"/>
<stop offset="1" stop-color="#FFCB33"/>
</linearGradient>
<linearGradient id="paint11_linear" x1="4133.44" y1="-4964.44" x2="4444.19" y2="-5492.09" gradientUnits="userSpaceOnUse">
<stop stop-color="#F4F9FF"/>
<stop offset="0.3" stop-color="#F0F5FE"/>
<stop offset="0.63" stop-color="#E2EBFA"/>
<stop offset="0.97" stop-color="#CCDAF4"/>
<stop offset="1" stop-color="#CAD8F3"/>
</linearGradient>
<linearGradient id="paint12_linear" x1="817.1" y1="165.282" x2="817.1" y2="340.922" gradientUnits="userSpaceOnUse">
<stop stop-color="#F4F9FF"/>
<stop offset="0.54" stop-color="#F2F8FE"/>
<stop offset="0.73" stop-color="#EBF2FD"/>
<stop offset="0.87" stop-color="#E0E9F9"/>
<stop offset="0.98" stop-color="#CFDCF4"/>
<stop offset="1" stop-color="#CAD8F3"/>
</linearGradient>
<linearGradient id="paint13_linear" x1="575.61" y1="738.599" x2="575.61" y2="906.111" gradientUnits="userSpaceOnUse">
<stop stop-color="#F4F9FF"/>
<stop offset="0.02" stop-color="#EFF5FE"/>
<stop offset="0.13" stop-color="#DEE8F9"/>
<stop offset="0.27" stop-color="#D3DFF5"/>
<stop offset="0.46" stop-color="#CCD9F4"/>
<stop offset="1" stop-color="#CAD8F3"/>
</linearGradient>
<linearGradient id="paint14_linear" x1="580.394" y1="741.47" x2="580.394" y2="905.601" gradientUnits="userSpaceOnUse">
<stop stop-color="#F4F9FF"/>
<stop offset="1" stop-color="#CAD8F3"/>
</linearGradient>
<linearGradient id="paint15_linear" x1="866.69" y1="559.023" x2="866.69" y2="725.935" gradientUnits="userSpaceOnUse">
<stop stop-color="#F4F9FF"/>
<stop offset="0.02" stop-color="#EFF5FE"/>
<stop offset="0.13" stop-color="#DEE8F9"/>
<stop offset="0.27" stop-color="#D3DFF5"/>
<stop offset="0.46" stop-color="#CCD9F4"/>
<stop offset="1" stop-color="#CAD8F3"/>
</linearGradient>
<linearGradient id="paint16_linear" x1="878.35" y1="560.855" x2="878.35" y2="724.958" gradientUnits="userSpaceOnUse">
<stop stop-color="#F4F9FF"/>
<stop offset="1" stop-color="#CAD8F3"/>
</linearGradient>
<linearGradient id="paint17_linear" x1="693.991" y1="287.426" x2="693.991" y2="387.895" gradientUnits="userSpaceOnUse">
<stop stop-color="#F4F9FF"/>
<stop offset="1" stop-color="#CAD8F3"/>
</linearGradient>
<linearGradient id="paint18_linear" x1="692.346" y1="288.361" x2="692.346" y2="311.963" gradientUnits="userSpaceOnUse">
<stop stop-color="#CEDDFE"/>
<stop offset="0.44" stop-color="#CBDAFC"/>
<stop offset="0.71" stop-color="#C3D2F6"/>
<stop offset="0.93" stop-color="#B5C4EB"/>
<stop offset="1" stop-color="#AEBDE6"/>
</linearGradient>
<linearGradient id="paint19_linear" x1="705.931" y1="306.411" x2="705.931" y2="389.894" gradientUnits="userSpaceOnUse">
<stop stop-color="#CEDDFE"/>
<stop offset="0.44" stop-color="#CBDAFC"/>
<stop offset="0.71" stop-color="#C3D2F6"/>
<stop offset="0.93" stop-color="#B5C4EB"/>
<stop offset="1" stop-color="#AEBDE6"/>
</linearGradient>
<linearGradient id="paint20_linear" x1="741.913" y1="256.135" x2="880.496" y2="256.135" gradientUnits="userSpaceOnUse">
<stop stop-color="#CEDDFE"/>
<stop offset="0.44" stop-color="#CBDAFC"/>
<stop offset="0.71" stop-color="#C3D2F6"/>
<stop offset="0.93" stop-color="#B5C4EB"/>
<stop offset="1" stop-color="#AEBDE6"/>
</linearGradient>
<linearGradient id="paint21_linear" x1="884.892" y1="295.536" x2="888.896" y2="295.536" gradientUnits="userSpaceOnUse">
<stop stop-color="#CEDDFE"/>
<stop offset="0.44" stop-color="#CBDAFC"/>
<stop offset="0.71" stop-color="#C3D2F6"/>
<stop offset="0.93" stop-color="#B5C4EB"/>
<stop offset="1" stop-color="#AEBDE6"/>
</linearGradient>
<linearGradient id="paint22_linear" x1="757.13" y1="240.086" x2="899.661" y2="240.086" gradientUnits="userSpaceOnUse">
<stop stop-color="#CEDDFE"/>
<stop offset="0.44" stop-color="#CBDAFC"/>
<stop offset="0.71" stop-color="#C3D2F6"/>
<stop offset="0.93" stop-color="#B5C4EB"/>
<stop offset="1" stop-color="#AEBDE6"/>
</linearGradient>
<linearGradient id="paint23_linear" x1="751.011" y1="255.678" x2="877.418" y2="255.678" gradientUnits="userSpaceOnUse">
<stop stop-color="#F4F9FF"/>
<stop offset="0.54" stop-color="#F2F8FE"/>
<stop offset="0.73" stop-color="#EBF2FD"/>
<stop offset="0.87" stop-color="#E0E9F9"/>
<stop offset="0.98" stop-color="#CFDCF4"/>
<stop offset="1" stop-color="#CAD8F3"/>
</linearGradient>
<linearGradient id="paint24_linear" x1="1001.93" y1="655.055" x2="1023.53" y2="655.055" gradientUnits="userSpaceOnUse">
<stop stop-color="#00366A"/>
<stop offset="0.33" stop-color="#003368"/>
<stop offset="0.57" stop-color="#012A62"/>
<stop offset="0.78" stop-color="#031A57"/>
<stop offset="0.97" stop-color="#050448"/>
<stop offset="1" stop-color="#050046"/>
</linearGradient>
<linearGradient id="paint25_linear" x1="1022.66" y1="595.625" x2="1115.01" y2="595.625" gradientUnits="userSpaceOnUse">
<stop stop-color="#00366A"/>
<stop offset="0.33" stop-color="#003368"/>
<stop offset="0.57" stop-color="#012A62"/>
<stop offset="0.78" stop-color="#031A57"/>
<stop offset="0.97" stop-color="#050448"/>
<stop offset="1" stop-color="#050046"/>
</linearGradient>
<linearGradient id="paint26_linear" x1="1022.66" y1="718.003" x2="1115.01" y2="718.003" gradientUnits="userSpaceOnUse">
<stop stop-color="#CEDDFE"/>
<stop offset="0.44" stop-color="#CBDAFC"/>
<stop offset="0.71" stop-color="#C3D2F6"/>
<stop offset="0.93" stop-color="#B5C4EB"/>
<stop offset="1" stop-color="#AEBDE6"/>
</linearGradient>
<linearGradient id="paint27_linear" x1="1022.66" y1="692.252" x2="1115.01" y2="692.252" gradientUnits="userSpaceOnUse">
<stop stop-color="#F4F9FF"/>
<stop offset="1" stop-color="#CAD8F3"/>
</linearGradient>
<linearGradient id="paint28_linear" x1="1065.57" y1="714.771" x2="1091.47" y2="669.831" gradientUnits="userSpaceOnUse">
<stop stop-color="#F4F9FF"/>
<stop offset="1" stop-color="#CAD8F3"/>
</linearGradient>
<linearGradient id="paint29_linear" x1="1022.66" y1="682.012" x2="1115.01" y2="682.012" gradientUnits="userSpaceOnUse">
<stop stop-color="#CEDDFE"/>
<stop offset="0.44" stop-color="#CBDAFC"/>
<stop offset="0.71" stop-color="#C3D2F6"/>
<stop offset="0.93" stop-color="#B5C4EB"/>
<stop offset="1" stop-color="#AEBDE6"/>
</linearGradient>
<linearGradient id="paint30_linear" x1="1024.23" y1="559.319" x2="1123.64" y2="559.319" gradientUnits="userSpaceOnUse">
<stop stop-color="#CEDDFE"/>
<stop offset="0.44" stop-color="#CBDAFC"/>
<stop offset="0.71" stop-color="#C3D2F6"/>
<stop offset="0.93" stop-color="#B5C4EB"/>
<stop offset="1" stop-color="#AEBDE6"/>
</linearGradient>
<linearGradient id="paint31_linear" x1="1024.13" y1="536.23" x2="1123.54" y2="536.23" gradientUnits="userSpaceOnUse">
<stop stop-color="#F4F9FF"/>
<stop offset="1" stop-color="#CAD8F3"/>
</linearGradient>
<linearGradient id="paint32_linear" x1="1057.87" y1="531.904" x2="1098.96" y2="531.904" gradientUnits="userSpaceOnUse">
<stop stop-color="#CEDDFE"/>
<stop offset="0.44" stop-color="#CBDAFC"/>
<stop offset="0.71" stop-color="#C3D2F6"/>
<stop offset="0.93" stop-color="#B5C4EB"/>
<stop offset="1" stop-color="#AEBDE6"/>
</linearGradient>
<linearGradient id="paint33_linear" x1="1057.87" y1="524.98" x2="1098.96" y2="524.98" gradientUnits="userSpaceOnUse">
<stop stop-color="#F4F9FF"/>
<stop offset="1" stop-color="#CAD8F3"/>
</linearGradient>
<linearGradient id="paint34_linear" x1="1150.33" y1="411.281" x2="1009.51" y2="506.5" gradientUnits="userSpaceOnUse">
<stop stop-color="#00366A"/>
<stop offset="0.33" stop-color="#003368"/>
<stop offset="0.57" stop-color="#012A62"/>
<stop offset="0.78" stop-color="#031A57"/>
<stop offset="0.97" stop-color="#050448"/>
<stop offset="1" stop-color="#050046"/>
</linearGradient>
<linearGradient id="paint35_linear" x1="1117.02" y1="555.823" x2="1209.37" y2="555.823" gradientUnits="userSpaceOnUse">
<stop stop-color="#00366A"/>
<stop offset="0.33" stop-color="#003368"/>
<stop offset="0.57" stop-color="#012A62"/>
<stop offset="0.78" stop-color="#031A57"/>
<stop offset="0.97" stop-color="#050448"/>
<stop offset="1" stop-color="#050046"/>
</linearGradient>
<linearGradient id="paint36_linear" x1="1117.12" y1="678.478" x2="1209.47" y2="678.478" gradientUnits="userSpaceOnUse">
<stop stop-color="#CEDDFE"/>
<stop offset="0.44" stop-color="#CBDAFC"/>
<stop offset="0.71" stop-color="#C3D2F6"/>
<stop offset="0.93" stop-color="#B5C4EB"/>
<stop offset="1" stop-color="#AEBDE6"/>
</linearGradient>
<linearGradient id="paint37_linear" x1="1117.02" y1="652.696" x2="1209.37" y2="652.696" gradientUnits="userSpaceOnUse">
<stop stop-color="#F4F9FF"/>
<stop offset="1" stop-color="#CAD8F3"/>
</linearGradient>
<linearGradient id="paint38_linear" x1="1160.18" y1="675.214" x2="1186.08" y2="630.275" gradientUnits="userSpaceOnUse">
<stop stop-color="#F4F9FF"/>
<stop offset="1" stop-color="#CAD8F3"/>
</linearGradient>
<linearGradient id="paint39_linear" x1="1117.12" y1="640.442" x2="1209.47" y2="640.442" gradientUnits="userSpaceOnUse">
<stop stop-color="#CEDDFE"/>
<stop offset="0.44" stop-color="#CBDAFC"/>
<stop offset="0.71" stop-color="#C3D2F6"/>
<stop offset="0.93" stop-color="#B5C4EB"/>
<stop offset="1" stop-color="#AEBDE6"/>
</linearGradient>
<linearGradient id="paint40_linear" x1="1106.35" y1="519.813" x2="1205.79" y2="519.813" gradientUnits="userSpaceOnUse">
<stop stop-color="#CEDDFE"/>
<stop offset="0.44" stop-color="#CBDAFC"/>
<stop offset="0.71" stop-color="#C3D2F6"/>
<stop offset="0.93" stop-color="#B5C4EB"/>
<stop offset="1" stop-color="#AEBDE6"/>
</linearGradient>
<linearGradient id="paint41_linear" x1="1118.56" y1="496.674" x2="1217.98" y2="496.674" gradientUnits="userSpaceOnUse">
<stop stop-color="#F4F9FF"/>
<stop offset="1" stop-color="#CAD8F3"/>
</linearGradient>
<linearGradient id="paint42_linear" x1="1152.47" y1="492.368" x2="1193.55" y2="492.368" gradientUnits="userSpaceOnUse">
<stop stop-color="#CEDDFE"/>
<stop offset="0.44" stop-color="#CBDAFC"/>
<stop offset="0.71" stop-color="#C3D2F6"/>
<stop offset="0.93" stop-color="#B5C4EB"/>
<stop offset="1" stop-color="#AEBDE6"/>
</linearGradient>
<linearGradient id="paint43_linear" x1="1152.47" y1="485.462" x2="1193.55" y2="485.462" gradientUnits="userSpaceOnUse">
<stop stop-color="#F4F9FF"/>
<stop offset="1" stop-color="#CAD8F3"/>
</linearGradient>
<linearGradient id="paint44_linear" x1="1230.03" y1="371.487" x2="1089.11" y2="466.706" gradientUnits="userSpaceOnUse">
<stop stop-color="#00366A"/>
<stop offset="0.33" stop-color="#003368"/>
<stop offset="0.57" stop-color="#012A62"/>
<stop offset="0.78" stop-color="#031A57"/>
<stop offset="0.97" stop-color="#050448"/>
<stop offset="1" stop-color="#050046"/>
</linearGradient>
<linearGradient id="paint45_linear" x1="1208.92" y1="506.164" x2="1301.6" y2="506.164" gradientUnits="userSpaceOnUse">
<stop stop-color="#00366A"/>
<stop offset="0.33" stop-color="#003368"/>
<stop offset="0.57" stop-color="#012A62"/>
<stop offset="0.78" stop-color="#031A57"/>
<stop offset="0.97" stop-color="#050448"/>
<stop offset="1" stop-color="#050046"/>
</linearGradient>
<linearGradient id="paint46_linear" x1="1208.92" y1="627.91" x2="1301.6" y2="627.91" gradientUnits="userSpaceOnUse">
<stop stop-color="#CEDDFE"/>
<stop offset="0.44" stop-color="#CBDAFC"/>
<stop offset="0.71" stop-color="#C3D2F6"/>
<stop offset="0.93" stop-color="#B5C4EB"/>
<stop offset="1" stop-color="#AEBDE6"/>
</linearGradient>
<linearGradient id="paint47_linear" x1="1208.92" y1="602.786" x2="1301.6" y2="602.786" gradientUnits="userSpaceOnUse">
<stop stop-color="#F4F9FF"/>
<stop offset="1" stop-color="#CAD8F3"/>
</linearGradient>
<linearGradient id="paint48_linear" x1="1252.07" y1="625.181" x2="1277.97" y2="580.242" gradientUnits="userSpaceOnUse">
<stop stop-color="#F4F9FF"/>
<stop offset="1" stop-color="#CAD8F3"/>
</linearGradient>
<linearGradient id="paint49_linear" x1="1208.92" y1="590.454" x2="1301.6" y2="590.454" gradientUnits="userSpaceOnUse">
<stop stop-color="#CEDDFE"/>
<stop offset="0.44" stop-color="#CBDAFC"/>
<stop offset="0.71" stop-color="#C3D2F6"/>
<stop offset="0.93" stop-color="#B5C4EB"/>
<stop offset="1" stop-color="#AEBDE6"/>
</linearGradient>
<linearGradient id="paint50_linear" x1="1210.67" y1="468.741" x2="1310.08" y2="468.741" gradientUnits="userSpaceOnUse">
<stop stop-color="#CEDDFE"/>
<stop offset="0.44" stop-color="#CBDAFC"/>
<stop offset="0.71" stop-color="#C3D2F6"/>
<stop offset="0.93" stop-color="#B5C4EB"/>
<stop offset="1" stop-color="#AEBDE6"/>
</linearGradient>
<linearGradient id="paint51_linear" x1="1210.67" y1="446.669" x2="1310.08" y2="446.669" gradientUnits="userSpaceOnUse">
<stop stop-color="#F4F9FF"/>
<stop offset="1" stop-color="#CAD8F3"/>
</linearGradient>
<linearGradient id="paint52_linear" x1="1244.29" y1="442.314" x2="1285.38" y2="442.314" gradientUnits="userSpaceOnUse">
<stop stop-color="#CEDDFE"/>
<stop offset="0.44" stop-color="#CBDAFC"/>
<stop offset="0.71" stop-color="#C3D2F6"/>
<stop offset="0.93" stop-color="#B5C4EB"/>
<stop offset="1" stop-color="#AEBDE6"/>
</linearGradient>
<linearGradient id="paint53_linear" x1="1244.39" y1="435.316" x2="1285.48" y2="435.316" gradientUnits="userSpaceOnUse">
<stop stop-color="#F4F9FF"/>
<stop offset="1" stop-color="#CAD8F3"/>
</linearGradient>
<linearGradient id="paint54_linear" x1="1336.12" y1="321.654" x2="1195.58" y2="417.243" gradientUnits="userSpaceOnUse">
<stop stop-color="#00366A"/>
<stop offset="0.33" stop-color="#003368"/>
<stop offset="0.57" stop-color="#012A62"/>
<stop offset="0.78" stop-color="#031A57"/>
<stop offset="0.97" stop-color="#050448"/>
<stop offset="1" stop-color="#050046"/>
</linearGradient>
<linearGradient id="paint55_linear" x1="776.482" y1="152.709" x2="1196.9" y2="152.709" gradientUnits="userSpaceOnUse">
<stop stop-color="#00366A"/>
<stop offset="0.33" stop-color="#003368"/>
<stop offset="0.57" stop-color="#012A62"/>
<stop offset="0.78" stop-color="#031A57"/>
<stop offset="0.97" stop-color="#050448"/>
<stop offset="1" stop-color="#050046"/>
</linearGradient>
<linearGradient id="paint56_linear" x1="993.219" y1="46.5654" x2="993.219" y2="274.859" gradientUnits="userSpaceOnUse">
<stop stop-color="#00366A"/>
<stop offset="0.33" stop-color="#003368"/>
<stop offset="0.57" stop-color="#012A62"/>
<stop offset="0.78" stop-color="#031A57"/>
<stop offset="0.97" stop-color="#050448"/>
<stop offset="1" stop-color="#050046"/>
</linearGradient>
<linearGradient id="paint57_linear" x1="979.436" y1="160.681" x2="954.884" y2="117.671" gradientUnits="userSpaceOnUse">
<stop stop-color="#BAF281" stop-opacity="0"/>
<stop offset="0.38" stop-color="#B9F281" stop-opacity="0.01"/>
<stop offset="0.52" stop-color="#B5F081" stop-opacity="0.04"/>
<stop offset="0.62" stop-color="#AEEE82" stop-opacity="0.1"/>
<stop offset="0.7" stop-color="#A5EB82" stop-opacity="0.18"/>
<stop offset="0.76" stop-color="#98E782" stop-opacity="0.29"/>
<stop offset="0.82" stop-color="#88E283" stop-opacity="0.42"/>
<stop offset="0.88" stop-color="#76DC84" stop-opacity="0.58"/>
<stop offset="0.93" stop-color="#60D585" stop-opacity="0.77"/>
<stop offset="0.97" stop-color="#49CD86" stop-opacity="0.97"/>
<stop offset="0.98" stop-color="#45CC86"/>
</linearGradient>
<linearGradient id="paint58_linear" x1="868.258" y1="128.531" x2="1021.07" y2="128.531" gradientUnits="userSpaceOnUse">
<stop stop-color="#BAF281"/>
<stop offset="0.39" stop-color="#B8F181"/>
<stop offset="0.55" stop-color="#B1EF81"/>
<stop offset="0.67" stop-color="#A5EB82"/>
<stop offset="0.76" stop-color="#93E583"/>
<stop offset="0.85" stop-color="#7CDE84"/>
<stop offset="0.92" stop-color="#61D585"/>
<stop offset="0.98" stop-color="#45CC86"/>
</linearGradient>
<linearGradient id="paint59_linear" x1="949.662" y1="115.264" x2="992.243" y2="158.138" gradientUnits="userSpaceOnUse">
<stop stop-color="#4C68EF" stop-opacity="0.99"/>
<stop offset="0.08" stop-color="#4C68EF" stop-opacity="0.79"/>
<stop offset="0.15" stop-color="#4C68EF" stop-opacity="0.6"/>
<stop offset="0.24" stop-color="#4C68EF" stop-opacity="0.44"/>
<stop offset="0.32" stop-color="#4C68EF" stop-opacity="0.3"/>
<stop offset="0.42" stop-color="#4C68EF" stop-opacity="0.19"/>
<stop offset="0.52" stop-color="#4C68EF" stop-opacity="0.11"/>
<stop offset="0.64" stop-color="#4C68EF" stop-opacity="0.05"/>
<stop offset="0.77" stop-color="#4C68EF" stop-opacity="0.01"/>
<stop offset="1" stop-color="#4C68EF" stop-opacity="0"/>
</linearGradient>
<linearGradient id="paint60_linear" x1="1010.29" y1="223.632" x2="982.7" y2="196.039" gradientUnits="userSpaceOnUse">
<stop stop-color="#BAF281"/>
<stop offset="0.39" stop-color="#B8F181"/>
<stop offset="0.55" stop-color="#B1EF81"/>
<stop offset="0.67" stop-color="#A5EB82"/>
<stop offset="0.76" stop-color="#93E583"/>
<stop offset="0.85" stop-color="#7CDE84"/>
<stop offset="0.92" stop-color="#61D585"/>
<stop offset="0.98" stop-color="#45CC86"/>
</linearGradient>
<linearGradient id="paint61_linear" x1="976.488" y1="212.8" x2="1015.52" y2="212.8" gradientUnits="userSpaceOnUse">
<stop stop-color="#FFF52A"/>
<stop offset="0.03" stop-color="#FFF02B"/>
<stop offset="0.14" stop-color="#FFDF2F"/>
<stop offset="0.27" stop-color="#FFD431"/>
<stop offset="0.47" stop-color="#FFCD33"/>
<stop offset="1" stop-color="#FFCB33"/>
</linearGradient>
<linearGradient id="paint62_linear" x1="1022.36" y1="183.311" x2="1061.39" y2="183.311" gradientUnits="userSpaceOnUse">
<stop stop-color="#BAF281"/>
<stop offset="0.39" stop-color="#B8F181"/>
<stop offset="0.55" stop-color="#B1EF81"/>
<stop offset="0.67" stop-color="#A5EB82"/>
<stop offset="0.76" stop-color="#93E583"/>
<stop offset="0.85" stop-color="#7CDE84"/>
<stop offset="0.92" stop-color="#61D585"/>
<stop offset="0.98" stop-color="#45CC86"/>
</linearGradient>
<linearGradient id="paint63_linear" x1="1017.47" y1="178.121" x2="1056.56" y2="178.121" gradientUnits="userSpaceOnUse">
<stop stop-color="#FFF52A"/>
<stop offset="0.03" stop-color="#FFF02B"/>
<stop offset="0.14" stop-color="#FFDF2F"/>
<stop offset="0.27" stop-color="#FFD431"/>
<stop offset="0.47" stop-color="#FFCD33"/>
<stop offset="1" stop-color="#FFCB33"/>
</linearGradient>
<linearGradient id="paint64_linear" x1="1105.17" y1="163.006" x2="1077.78" y2="135.484" gradientUnits="userSpaceOnUse">
<stop stop-color="#BAF281"/>
<stop offset="0.39" stop-color="#B8F181"/>
<stop offset="0.55" stop-color="#B1EF81"/>
<stop offset="0.67" stop-color="#A5EB82"/>
<stop offset="0.76" stop-color="#93E583"/>
<stop offset="0.85" stop-color="#7CDE84"/>
<stop offset="0.92" stop-color="#61D585"/>
<stop offset="0.98" stop-color="#45CC86"/>
</linearGradient>
<linearGradient id="paint65_linear" x1="1066.67" y1="154.497" x2="1105.7" y2="154.497" gradientUnits="userSpaceOnUse">
<stop stop-color="#FFF52A"/>
<stop offset="0.03" stop-color="#FFF02B"/>
<stop offset="0.14" stop-color="#FFDF2F"/>
<stop offset="0.27" stop-color="#FFD431"/>
<stop offset="0.47" stop-color="#FFCD33"/>
<stop offset="1" stop-color="#FFCB33"/>
</linearGradient>
<linearGradient id="paint66_linear" x1="1033.48" y1="323.341" x2="1220.02" y2="323.341" gradientUnits="userSpaceOnUse">
<stop stop-color="#F4F9FF"/>
<stop offset="0.3" stop-color="#F0F5FE"/>
<stop offset="0.63" stop-color="#E2EBFA"/>
<stop offset="0.97" stop-color="#CCDAF4"/>
<stop offset="1" stop-color="#CAD8F3"/>
</linearGradient>
<linearGradient id="paint67_linear" x1="1046.37" y1="322.784" x2="1222.21" y2="322.784" gradientUnits="userSpaceOnUse">
<stop stop-color="#00366A"/>
<stop offset="0.33" stop-color="#003368"/>
<stop offset="0.57" stop-color="#012A62"/>
<stop offset="0.78" stop-color="#031A57"/>
<stop offset="0.97" stop-color="#050448"/>
<stop offset="1" stop-color="#050046"/>
</linearGradient>
<linearGradient id="paint68_linear" x1="1069.16" y1="355.132" x2="1079.89" y2="355.132" gradientUnits="userSpaceOnUse">
<stop stop-color="#BAF281"/>
<stop offset="0.39" stop-color="#B8F181"/>
<stop offset="0.55" stop-color="#B1EF81"/>
<stop offset="0.67" stop-color="#A5EB82"/>
<stop offset="0.76" stop-color="#93E583"/>
<stop offset="0.85" stop-color="#7CDE84"/>
<stop offset="0.92" stop-color="#61D585"/>
<stop offset="0.98" stop-color="#45CC86"/>
</linearGradient>
<linearGradient id="paint69_linear" x1="876.169" y1="588.479" x2="886.9" y2="588.479" gradientUnits="userSpaceOnUse">
<stop stop-color="#00366A"/>
<stop offset="0.33" stop-color="#003368"/>
<stop offset="0.57" stop-color="#012A62"/>
<stop offset="0.78" stop-color="#031A57"/>
<stop offset="0.97" stop-color="#050448"/>
<stop offset="1" stop-color="#050046"/>
</linearGradient>
<linearGradient id="paint70_linear" x1="563.275" y1="761.728" x2="574.006" y2="761.728" gradientUnits="userSpaceOnUse">
<stop stop-color="#00366A"/>
<stop offset="0.33" stop-color="#003368"/>
<stop offset="0.57" stop-color="#012A62"/>
<stop offset="0.78" stop-color="#031A57"/>
<stop offset="0.97" stop-color="#050448"/>
<stop offset="1" stop-color="#050046"/>
</linearGradient>
<linearGradient id="paint71_linear" x1="1092.92" y1="333.804" x2="1103.65" y2="333.804" gradientUnits="userSpaceOnUse">
<stop stop-color="#BAF281"/>
<stop offset="0.39" stop-color="#B8F181"/>
<stop offset="0.55" stop-color="#B1EF81"/>
<stop offset="0.67" stop-color="#A5EB82"/>
<stop offset="0.76" stop-color="#93E583"/>
<stop offset="0.85" stop-color="#7CDE84"/>
<stop offset="0.92" stop-color="#61D585"/>
<stop offset="0.98" stop-color="#45CC86"/>
</linearGradient>
<linearGradient id="paint72_linear" x1="1135.14" y1="314.48" x2="1145.87" y2="314.48" gradientUnits="userSpaceOnUse">
<stop stop-color="#BAF281"/>
<stop offset="0.39" stop-color="#B8F181"/>
<stop offset="0.55" stop-color="#B1EF81"/>
<stop offset="0.67" stop-color="#A5EB82"/>
<stop offset="0.76" stop-color="#93E583"/>
<stop offset="0.85" stop-color="#7CDE84"/>
<stop offset="0.92" stop-color="#61D585"/>
<stop offset="0.98" stop-color="#45CC86"/>
</linearGradient>
<linearGradient id="paint73_linear" x1="1165.55" y1="293.73" x2="1176.32" y2="293.73" gradientUnits="userSpaceOnUse">
<stop stop-color="#BAF281"/>
<stop offset="0.39" stop-color="#B8F181"/>
<stop offset="0.55" stop-color="#B1EF81"/>
<stop offset="0.67" stop-color="#A5EB82"/>
<stop offset="0.76" stop-color="#93E583"/>
<stop offset="0.85" stop-color="#7CDE84"/>
<stop offset="0.92" stop-color="#61D585"/>
<stop offset="0.98" stop-color="#45CC86"/>
</linearGradient>
<linearGradient id="paint74_linear" x1="1022.66" y1="652.495" x2="1115.01" y2="652.495" gradientUnits="userSpaceOnUse">
<stop stop-color="#00AEE9"/>
<stop offset="1" stop-color="#93E0FF"/>
</linearGradient>
<linearGradient id="paint75_linear" x1="1036" y1="604" x2="1120" y2="619" gradientUnits="userSpaceOnUse">
<stop stop-color="#00AEE9"/>
<stop offset="0.628125" stop-color="#73DCFF"/>
</linearGradient>
<linearGradient id="paint76_linear" x1="1117.34" y1="612.937" x2="1209.69" y2="612.937" gradientUnits="userSpaceOnUse">
<stop stop-color="#4C68EF"/>
<stop offset="1" stop-color="#0097D5"/>
</linearGradient>
<linearGradient id="paint77_linear" x1="1209.02" y1="561.702" x2="1301.38" y2="561.702" gradientUnits="userSpaceOnUse">
<stop stop-color="#FFCB33"/>
<stop offset="1" stop-color="#FFF865"/>
</linearGradient>
<linearGradient id="paint78_linear" x1="274.892" y1="1115.56" x2="274.892" y2="782.289" gradientUnits="userSpaceOnUse">
<stop stop-color="#CEDDFE"/>
<stop offset="0.44" stop-color="#CBDAFC"/>
<stop offset="0.71" stop-color="#C3D2F6"/>
<stop offset="0.93" stop-color="#B5C4EB"/>
<stop offset="1" stop-color="#AEBDE6"/>
</linearGradient>
<linearGradient id="paint79_linear" x1="288.838" y1="1101.71" x2="288.838" y2="769.969" gradientUnits="userSpaceOnUse">
<stop offset="0.02" stop-color="white"/>
<stop offset="0.21" stop-color="#F4F9FF"/>
<stop offset="1" stop-color="#CAD8F3"/>
</linearGradient>
<linearGradient id="paint80_linear" x1="61.554" y1="947.424" x2="511.709" y2="947.424" gradientUnits="userSpaceOnUse">
<stop stop-color="#00366A"/>
<stop offset="1" stop-color="#050046"/>
</linearGradient>
<linearGradient id="paint81_linear" x1="956.289" y1="285.385" x2="956.289" y2="707.177" gradientUnits="userSpaceOnUse">
<stop stop-color="#F4F9FF"/>
<stop offset="1" stop-color="#CAD8F3"/>
</linearGradient>
<linearGradient id="paint82_linear" x1="61.0375" y1="936.223" x2="524.49" y2="936.223" gradientUnits="userSpaceOnUse">
<stop stop-color="#CEDDFE"/>
<stop offset="0.44" stop-color="#CBDAFC"/>
<stop offset="0.71" stop-color="#C3D2F6"/>
<stop offset="0.93" stop-color="#B5C4EB"/>
<stop offset="1" stop-color="#AEBDE6"/>
</linearGradient>
<linearGradient id="paint83_linear" x1="46.015" y1="929.771" x2="511.795" y2="929.771" gradientUnits="userSpaceOnUse">
<stop offset="0.23" stop-color="white" stop-opacity="0.94"/>
<stop offset="0.55" stop-color="white" stop-opacity="0"/>
<stop offset="0.56" stop-color="white" stop-opacity="0.02"/>
<stop offset="0.58" stop-color="white" stop-opacity="0.2"/>
<stop offset="0.6" stop-color="white" stop-opacity="0.37"/>
<stop offset="0.62" stop-color="white" stop-opacity="0.52"/>
<stop offset="0.65" stop-color="white" stop-opacity="0.65"/>
<stop offset="0.68" stop-color="white" stop-opacity="0.76"/>
<stop offset="0.71" stop-color="white" stop-opacity="0.85"/>
<stop offset="0.74" stop-color="white" stop-opacity="0.92"/>
<stop offset="0.79" stop-color="white" stop-opacity="0.96"/>
<stop offset="0.85" stop-color="white" stop-opacity="0.99"/>
<stop offset="1" stop-color="white"/>
</linearGradient>
<linearGradient id="paint84_linear" x1="46.015" y1="924.43" x2="511.795" y2="924.43" gradientUnits="userSpaceOnUse">
<stop stop-color="#F4F9FF"/>
<stop offset="0.54" stop-color="#F2F8FE"/>
<stop offset="0.73" stop-color="#EBF2FD"/>
<stop offset="0.87" stop-color="#E0E9F9"/>
<stop offset="0.98" stop-color="#CFDCF4"/>
<stop offset="1" stop-color="#CAD8F3"/>
</linearGradient>
<linearGradient id="paint85_linear" x1="100.699" y1="921.439" x2="490.079" y2="921.439" gradientUnits="userSpaceOnUse">
<stop stop-color="#CEDDFE"/>
<stop offset="0.44" stop-color="#CBDAFC"/>
<stop offset="0.71" stop-color="#C3D2F6"/>
<stop offset="0.93" stop-color="#B5C4EB"/>
<stop offset="1" stop-color="#AEBDE6"/>
</linearGradient>
<linearGradient id="paint86_linear" x1="160.96" y1="924.917" x2="414.642" y2="924.917" gradientUnits="userSpaceOnUse">
<stop stop-color="#CEDDFE"/>
<stop offset="0.44" stop-color="#CBDAFC"/>
<stop offset="0.71" stop-color="#C3D2F6"/>
<stop offset="0.93" stop-color="#B5C4EB"/>
<stop offset="1" stop-color="#AEBDE6"/>
</linearGradient>
<linearGradient id="paint87_linear" x1="165.782" y1="924.621" x2="416.516" y2="924.621" gradientUnits="userSpaceOnUse">
<stop stop-color="#00366A"/>
<stop offset="1" stop-color="#004A75"/>
<stop offset="1" stop-color="#00AEE9"/>
</linearGradient>
</defs>
</svg>
