<svg width="1539" height="923" viewBox="0 0 1539 923" fill="none" xmlns="http://www.w3.org/2000/svg">
<path d="M1015.29 144.644L977.196 147.65L1216.92 8.30325C1235.96 -2.76775 1259.48 -2.76775 1278.53 8.30325L1030.15 153.282L1015.29 144.644Z" fill="url(#paint0_linear)"/>
<path d="M717.526 576.417V694.378L721.793 696.829V691.893L746.475 677.489V559.281C746.486 557.38 745.927 555.519 744.87 553.939L746.034 553.445L741.838 551.048L741.344 550.766C738.37 549.17 734.772 549.274 731.895 551.039C723 556.396 717.563 566.024 717.57 576.408L717.526 576.417Z" fill="url(#paint1_linear)"/>
<path d="M750.706 561.677V679.947L721.828 696.828V578.866C721.83 568.48 727.267 558.853 736.161 553.488C739.124 551.696 742.823 551.638 745.842 553.335C748.86 555.032 750.732 558.223 750.741 561.686L750.706 561.677Z" fill="url(#paint2_linear)"/>
<path d="M1198.48 569.214L1311.47 503.102L1171.31 420.427L1130.66 532.191L1198.48 569.214Z" fill="url(#paint3_linear)"/>
<path d="M1198.48 589.11L1015.29 482.45V465.278L1198.48 569.215V589.11Z" fill="url(#paint4_linear)"/>
<path d="M1015.29 385.934L1234.26 256.672V46.154L1015.29 174.27" fill="url(#paint5_linear)"/>
<path d="M964.899 173.653V453.086L1015.29 482.439V144.669C1004.93 138.611 992.106 138.567 981.696 144.554C971.286 150.542 964.877 161.644 964.899 173.653Z" fill="url(#paint6_linear)"/>
<path d="M705 571.208C704.975 573.943 706.175 576.546 708.271 578.304C708.685 578.63 709.152 578.973 709.655 579.3L875.419 676.537L871.012 668.93L1496.87 295.177L1336.92 200.857C1330.52 197.112 1322.59 197.112 1316.18 200.857L717.509 549.47C709.773 553.978 705.011 562.254 705 571.208Z" fill="url(#paint7_linear)"/>
<path opacity="0.2" d="M730.51 541.897L723.996 545.696L903.635 649.421L910.079 645.578L730.51 541.897Z" fill="white"/>
<path opacity="0.2" d="M786.106 509.503L779.583 513.302L958.526 616.613L964.952 612.778L786.106 509.503Z" fill="white"/>
<path opacity="0.2" d="M841.71 477.142L835.205 480.941L1013.44 583.846L1019.88 580.012L841.71 477.142Z" fill="white"/>
<path opacity="0.2" d="M897.306 444.748L890.783 448.548L1068.34 551.065L1074.79 547.231L897.306 444.748Z" fill="white"/>
<path opacity="0.2" d="M952.893 412.37L946.37 416.17L1123.24 518.317L1129.69 514.482L952.893 412.37Z" fill="white"/>
<path opacity="0.2" d="M1170.31 480.978C1170.8 481.266 1171.37 481.415 1171.93 481.41C1173.47 481.477 1174.84 480.469 1175.24 478.986C1175.63 477.504 1174.95 475.946 1173.58 475.239L1008.48 379.923L1001.94 383.723L1170.31 480.978Z" fill="white"/>
<path opacity="0.2" d="M1213.86 441.627C1214.36 441.902 1214.92 442.05 1215.5 442.059C1216.97 442.047 1218.26 441.051 1218.64 439.625C1219.02 438.2 1218.4 436.696 1217.13 435.95L1064.08 347.616L1057.54 351.415L1213.86 441.627Z" fill="white"/>
<path opacity="0.2" d="M1257.41 402.313C1257.91 402.595 1258.48 402.744 1259.05 402.745C1260.53 402.746 1261.82 401.758 1262.21 400.333C1262.6 398.909 1261.98 397.401 1260.71 396.654L1119.67 315.23L1113.12 319.03L1257.41 402.313Z" fill="white"/>
<path d="M1500.04 302.175C1500.04 311.364 1495.16 319.862 1487.22 324.494L884.446 676.43C881.628 678.024 878.179 678.014 875.371 676.403C872.563 674.793 870.812 671.821 870.765 668.585C870.767 659.4 875.643 650.907 883.573 646.274L1486.34 294.32C1489.16 292.718 1492.61 292.723 1495.43 294.334C1498.24 295.946 1499.99 298.924 1500.04 302.166V302.175Z" fill="url(#paint8_linear)"/>
<path d="M1321.16 321.719L1321.35 336.123C1321.14 342.814 1318.16 349.118 1313.12 353.524C1296.79 369.39 1261.56 374.75 1234.4 365.503C1230.74 364.289 1227.2 362.743 1223.82 360.884C1212.73 354.714 1206.68 346.198 1206.58 337.463L1206.4 323.059C1206.52 331.795 1212.57 340.292 1223.65 346.48C1227.03 348.341 1230.57 349.887 1234.23 351.099C1261.37 360.346 1296.62 355.022 1312.96 339.12C1318.02 334.733 1321 328.416 1321.16 321.719Z" fill="url(#paint9_linear)"/>
<path d="M1321.16 321.718L1321.35 336.122V336.624L1321.18 322.23V321.718" fill="url(#paint10_linear)"/>
<path d="M1320.84 325.483C1320.63 326.575 1320.34 327.648 1319.96 328.692C1319.55 329.818 1319.06 330.911 1318.48 331.962C1317.82 333.169 1317.07 334.327 1316.24 335.426C1315.22 336.732 1314.12 337.963 1312.93 339.111L1312.67 339.358C1310.45 341.451 1308.02 343.309 1305.42 344.902C1301.3 347.408 1296.9 349.44 1292.32 350.958C1288.76 352.164 1285.12 353.127 1281.43 353.841C1279.02 354.317 1276.56 354.722 1274.07 354.978C1271.98 355.224 1269.86 355.401 1267.74 355.507C1265.61 355.612 1263.81 355.639 1261.9 355.612C1259.99 355.586 1258.15 355.533 1256.29 355.401C1254.43 355.269 1252.59 355.101 1250.76 354.863C1248.92 354.625 1246.96 354.325 1245.09 353.982C1243.22 353.638 1241.02 353.1 1239.04 352.598C1237.4 352.148 1235.76 351.663 1234.16 351.126C1233.42 350.879 1232.71 350.614 1232 350.35C1229.11 349.275 1226.31 347.988 1223.62 346.498C1212.51 340.327 1206.48 331.812 1206.38 323.076L1206.54 337.48C1206.65 346.216 1212.71 354.713 1223.78 360.901C1226.48 362.391 1229.28 363.679 1232.17 364.753C1232.87 365.018 1233.59 365.282 1234.33 365.529C1235.93 366.076 1237.55 366.56 1239.21 367.001C1241.2 367.53 1243.21 367.991 1245.26 368.385C1247.29 368.773 1249.02 369.055 1250.93 369.267C1252.83 369.478 1254.62 369.672 1256.46 369.804C1258.3 369.937 1260.19 369.998 1262.07 370.016C1263.95 370.034 1265.99 370.016 1267.9 369.91C1269.82 369.804 1272.16 369.619 1274.26 369.381C1276.74 369.099 1279.2 368.72 1281.61 368.244C1285.3 367.534 1288.94 366.574 1292.5 365.37C1297.08 363.852 1301.47 361.821 1305.6 359.315C1308.19 357.713 1310.62 355.856 1312.85 353.77L1313.1 353.532C1314.28 352.377 1315.38 351.143 1316.39 349.839C1317.22 348.741 1317.97 347.586 1318.64 346.383C1319.22 345.333 1319.71 344.24 1320.11 343.113C1320.5 342.071 1320.8 340.997 1321 339.904C1321.19 338.83 1321.3 337.742 1321.32 336.651L1321.14 322.248C1321.13 323.333 1321.03 324.416 1320.84 325.483Z" fill="#4C68EF"/>
<path d="M1239.12 354.572C1241.1 355.11 1243.13 355.568 1245.17 355.956C1247.21 356.344 1248.94 356.626 1250.84 356.838C1252.73 357.049 1254.52 357.243 1256.38 357.367C1258.24 357.49 1260.11 357.569 1261.98 357.578C1263.85 357.587 1265.9 357.578 1267.82 357.472C1269.75 357.367 1272.06 357.19 1274.16 356.952C1276.65 356.661 1279.11 356.282 1281.51 355.806C1285.21 355.092 1288.85 354.132 1292.41 352.933C1296.99 351.408 1301.38 349.373 1305.5 346.868C1308.11 345.276 1310.54 343.415 1312.75 341.315L1313.02 341.068C1314.21 339.916 1315.31 338.679 1316.31 337.366C1317.15 336.282 1317.91 335.136 1318.57 333.937C1319.14 332.882 1319.64 331.786 1320.04 330.657C1320.42 329.616 1320.72 328.546 1320.93 327.458C1321.13 326.382 1321.24 325.291 1321.25 324.196V322.31C1321.21 324.484 1320.81 326.637 1320.07 328.683C1319.67 329.809 1319.18 330.903 1318.61 331.953C1317.94 333.159 1317.19 334.314 1316.35 335.409C1315.34 336.719 1314.24 337.954 1313.05 339.102L1312.79 339.349C1310.57 341.439 1308.14 343.295 1305.53 344.885C1301.41 347.397 1297.02 349.432 1292.44 350.949C1288.88 352.156 1285.24 353.119 1281.55 353.832C1279.13 354.299 1276.67 354.713 1274.19 354.969C1272.1 355.216 1269.97 355.392 1267.86 355.498C1265.74 355.604 1263.94 355.621 1262.01 355.604C1260.09 355.586 1258.27 355.507 1256.41 355.392C1254.55 355.277 1252.71 355.092 1250.87 354.854C1249.04 354.616 1247.07 354.317 1245.2 353.973C1243.34 353.629 1241.13 353.091 1239.16 352.58C1237.51 352.139 1235.87 351.655 1234.27 351.108C1233.53 350.87 1232.82 350.606 1232.11 350.341C1229.23 349.265 1226.43 347.978 1223.73 346.489C1212.63 340.319 1206.6 331.803 1206.49 323.068V325.192C1206.66 333.866 1212.66 342.311 1223.73 348.481C1226.43 349.972 1229.23 351.257 1232.11 352.324C1232.82 352.589 1233.53 352.853 1234.27 353.1C1235.86 353.674 1237.48 354.165 1239.12 354.572Z" fill="white"/>
<path d="M1303.92 298.086C1322.51 308.453 1326.93 325.316 1312.96 338.891C1296.61 354.758 1261.37 360.117 1234.23 350.87C1230.57 349.658 1227.03 348.111 1223.65 346.251C1205.04 335.885 1200.64 319.004 1214.62 305.429C1230.94 289.562 1266.19 284.203 1293.32 293.45C1296.99 294.674 1300.53 296.226 1303.92 298.086Z" fill="#4C68EF"/>
<path d="M1295.9 302.564C1310.78 310.859 1314.31 324.363 1303.12 335.232C1290.03 347.917 1261.83 352.254 1240.09 344.814C1237.17 343.834 1234.35 342.595 1231.65 341.112C1216.77 332.808 1213.24 319.312 1224.42 308.444C1237.52 295.75 1265.72 291.422 1287.45 298.853C1290.37 299.831 1293.2 301.073 1295.9 302.564Z" fill="#4C68EF"/>
<path d="M1297.73 301.436C1294.88 299.867 1291.89 298.554 1288.8 297.513C1265.82 289.668 1236.01 294.225 1222.18 307.65C1210.4 319.11 1214.1 333.39 1229.82 342.17C1232.67 343.747 1235.66 345.06 1238.74 346.092C1261.71 353.937 1291.54 349.38 1305.37 335.973C1317.2 324.478 1313.48 310.207 1297.73 301.436ZM1303.12 335.197C1290.03 347.89 1261.83 352.219 1240.09 344.779C1237.17 343.806 1234.34 342.567 1231.65 341.076C1216.77 332.782 1213.24 319.277 1224.42 308.408C1237.52 295.724 1265.72 291.387 1287.45 298.827C1290.37 299.805 1293.2 301.044 1295.9 302.529C1310.78 310.832 1314.31 324.337 1303.12 335.206V335.197Z" fill="white"/>
<path d="M1246.95 314.905C1251.92 312.874 1257.37 312.263 1262.67 313.142C1263.84 313.337 1264.99 313.599 1266.13 313.926C1267.37 314.313 1268.7 314.244 1269.89 313.732L1278.45 309.325L1286.3 314.561L1277.72 318.968C1276.74 319.462 1276.41 320.282 1276.84 321.022C1279.39 325.174 1277.44 329.67 1271.68 332.596C1263.06 336.475 1253.08 335.916 1244.94 331.098C1237.83 326.338 1238.25 319.312 1245.92 315.381C1246.22 315.231 1246.58 315.081 1246.95 314.905Z" fill="white"/>
<path d="M1278.16 309.66L1285.67 314.658C1285.76 314.705 1285.8 314.819 1285.75 314.914C1285.74 314.953 1285.71 314.985 1285.67 315.002C1285.49 315.09 1285.27 315.09 1285.09 315.002L1277.57 310.004C1277.48 309.953 1277.45 309.843 1277.49 309.748C1277.51 309.711 1277.54 309.68 1277.57 309.66C1277.76 309.571 1277.97 309.571 1278.16 309.66ZM1279.75 308.849C1278.64 308.18 1277.28 308.101 1276.1 308.637C1275.5 308.82 1275.16 309.453 1275.33 310.057C1275.43 310.378 1275.66 310.64 1275.97 310.771L1283.47 315.777C1284.58 316.445 1285.95 316.521 1287.12 315.98C1287.58 315.845 1287.9 315.437 1287.93 314.96C1287.96 314.483 1287.69 314.038 1287.25 313.847L1279.75 308.849Z" fill="white"/>
<path d="M1248.05 317.92C1242.27 320.864 1241.98 326.18 1247.4 329.794C1250.45 331.68 1253.94 332.732 1257.53 332.844C1260.61 333.071 1263.7 332.626 1266.6 331.539C1265.91 329.819 1264.67 328.377 1263.07 327.44C1260.05 325.457 1254.71 324.937 1250.95 321.675C1249.72 320.649 1248.73 319.368 1248.05 317.92Z" fill="#4C68EF"/>
<path d="M1494.02 305.665C1494.03 311.131 1491.12 316.19 1486.4 318.94L884.905 670.814C883.229 671.794 881.158 671.802 879.475 670.835C877.792 669.868 876.756 668.074 876.76 666.134C876.755 660.68 879.635 655.63 884.332 652.858L1485.81 300.984C1487.04 300.248 1488.51 300.032 1489.9 300.382C1491.29 300.733 1492.49 301.621 1493.22 302.853C1493.75 303.697 1494.02 304.672 1494.02 305.665Z" fill="#4C68EF"/>
<path d="M1012.14 144.643L1192.12 249.382C1229.09 270.907 1251.83 310.46 1251.83 353.24V622.007L1500.5 477.23V208.507C1500.5 165.73 1477.76 126.176 1440.8 104.641L1275.3 8.32048L1249.12 6.01097L1012.14 144.643Z" fill="url(#paint11_linear)"/>
<path d="M1005.54 138.783V191.981L1207.46 309.552V256.344L1005.54 138.783Z" fill="url(#paint12_linear)"/>
<path d="M872.686 675.46V793.421L876.952 795.854V790.936L901.634 776.532V658.315C901.646 656.413 901.084 654.551 900.021 652.973L901.202 652.489L896.997 650.091L896.513 649.8C893.534 648.211 889.939 648.312 887.054 650.064C878.165 655.436 872.732 665.065 872.73 675.451L872.686 675.46Z" fill="url(#paint13_linear)"/>
<path d="M905.865 660.759V779.02L876.97 795.856V677.868C876.972 667.48 882.409 657.85 891.303 652.481C894.276 650.691 897.982 650.64 901.002 652.349C904.022 654.058 905.888 657.262 905.883 660.732L905.865 660.759Z" fill="url(#paint14_linear)"/>
<path d="M1139.51 519.04V637.01L1143.78 639.461V634.533L1168.46 620.13V501.904C1168.47 500.001 1167.91 498.14 1166.85 496.562L1168.01 496.068L1163.8 493.635L1163.31 493.353C1161.92 492.622 1160.38 492.235 1158.81 492.225C1157.06 492.224 1155.35 492.709 1153.86 493.627C1144.96 498.989 1139.52 508.618 1139.52 519.005L1139.51 519.04Z" fill="url(#paint15_linear)"/>
<path d="M1172.7 504.346V622.615L1143.78 639.452V521.491C1143.78 511.105 1149.22 501.477 1158.11 496.113C1161.08 494.316 1164.79 494.262 1167.81 495.97C1170.84 497.678 1172.7 500.883 1172.69 504.354L1172.7 504.346Z" fill="url(#paint16_linear)"/>
<path d="M1000.86 272.152L970.109 254.258V324.971L1000.86 342.9L1000.86 272.152Z" fill="url(#paint17_linear)"/>
<path d="M1005.99 269.243L975.23 251.349L970.109 254.258L1000.86 272.152L1005.99 269.243Z" fill="url(#paint18_linear)"/>
<path d="M1005.99 269.242V339.955L1000.86 342.864V272.151L1005.99 269.242Z" fill="url(#paint19_linear)"/>
<path d="M996.519 274.583L974.482 261.74V283.619L996.519 296.462V274.583Z" fill="#4C68EF"/>
<path d="M996.519 302.351L991.045 299.16V304.581L996.519 307.772V302.351Z" fill="white"/>
<path d="M988.215 297.539L982.75 294.348V299.787L988.206 302.969L988.215 297.539Z" fill="white"/>
<path d="M979.929 292.601L974.455 289.41V294.831L979.929 298.022V292.601Z" fill="white"/>
<path d="M996.519 311.457L991.045 308.266V313.687L996.519 316.878V311.457Z" fill="white"/>
<path d="M988.215 306.681L982.75 303.499V308.929L988.206 312.111L988.215 306.681Z" fill="white"/>
<path d="M979.929 301.751L974.455 298.569V303.999L979.929 307.181V301.751Z" fill="white"/>
<path d="M996.519 320.608L991.045 317.426V322.847L996.519 326.029V320.608Z" fill="white"/>
<path d="M988.215 315.838L982.75 312.656V318.086L988.206 321.277L988.215 315.838Z" fill="white"/>
<path d="M979.929 310.919L974.455 307.728V313.158L979.929 316.349V310.919Z" fill="white"/>
<path d="M996.519 329.757L991.045 326.575V331.996L996.519 335.178V329.757Z" fill="#ED1B1C"/>
<path d="M988.215 324.989L982.75 321.807V327.237L988.206 330.428L988.215 324.989Z" fill="#D7E4F9"/>
<path d="M979.929 320.071L974.455 316.88V322.318L979.929 325.501V320.071Z" fill="#7CED14"/>
<path d="M1164.94 247.523V271.967L1042.73 200.742V176.299L1164.94 247.523Z" fill="url(#paint20_linear)"/>
<path d="M1168.44 245.496V269.922L1164.91 271.967V247.523L1168.44 245.496Z" fill="url(#paint21_linear)"/>
<path d="M1168.44 245.495L1046.22 174.271L1042.69 176.316L1164.94 247.523L1168.44 245.495Z" fill="url(#paint22_linear)"/>
<path d="M1159.47 261.152V263.47L1047.98 198.09V184.868L1049.83 185.952V196.865L1159.47 261.152Z" fill="url(#paint23_linear)"/>
<path d="M1159.47 250.255V261.151L1049.85 196.872V185.995L1159.47 250.255Z" fill="#4C68EF"/>
<path d="M1267.2 561.589V602.79L1286.25 591.719V550.5L1267.2 561.589Z" fill="url(#paint24_linear)"/>
<path opacity="0.28" d="M1371.19 469.933H1289.76V577.722H1371.19V469.933Z" fill="url(#paint25_linear)"/>
<path d="M1371.19 610.345V627.534C1371.19 641.048 1352.97 651.996 1330.47 651.996C1307.98 651.996 1289.76 641.048 1289.76 627.534V610.345H1371.19Z" fill="url(#paint26_linear)"/>
<path d="M1330.47 634.797C1352.96 634.797 1371.19 623.849 1371.19 610.344C1371.19 596.839 1352.96 585.892 1330.47 585.892C1307.99 585.892 1289.76 596.839 1289.76 610.344C1289.76 623.849 1307.99 634.797 1330.47 634.797Z" fill="url(#paint27_linear)"/>
<path d="M1330.47 629.411C1348.01 629.411 1362.22 620.875 1362.22 610.345C1362.22 599.814 1348.01 591.278 1330.47 591.278C1312.94 591.278 1298.72 599.814 1298.72 610.345C1298.72 620.875 1312.94 629.411 1330.47 629.411Z" fill="url(#paint28_linear)"/>
<path d="M1298.58 532.685L1296.13 534.307C1296.54 533.972 1297.01 533.646 1297.43 533.346V533.24L1298.58 532.685Z" fill="#F39600"/>
<path d="M1330.47 624.045C1343.06 624.045 1353.27 617.912 1353.27 610.346C1353.27 602.781 1343.06 596.648 1330.47 596.648C1317.88 596.648 1307.68 602.781 1307.68 610.346C1307.68 617.912 1317.88 624.045 1330.47 624.045Z" fill="#475254"/>
<path d="M1371.19 577.738V595.007C1371.19 608.511 1352.97 619.468 1330.47 619.468C1307.98 619.468 1289.76 608.511 1289.76 595.007V577.738H1371.19Z" fill="url(#paint29_linear)"/>
<path d="M1330.47 602.191C1352.96 602.191 1371.19 591.243 1371.19 577.738C1371.19 564.234 1352.96 553.286 1330.47 553.286C1307.99 553.286 1289.76 564.234 1289.76 577.738C1289.76 591.243 1307.99 602.191 1330.47 602.191Z" fill="#FEED00"/>
<path d="M1374.31 471.916V484.345C1374.31 498.89 1354.67 510.675 1330.47 510.675C1306.27 510.675 1286.64 498.89 1286.64 484.345V471.916H1374.31Z" fill="url(#paint30_linear)"/>
<path d="M1330.47 498.245C1354.68 498.245 1374.31 486.456 1374.31 471.915C1374.31 457.373 1354.68 445.585 1330.47 445.585C1306.26 445.585 1286.64 457.373 1286.64 471.915C1286.64 486.456 1306.26 498.245 1330.47 498.245Z" fill="url(#paint31_linear)"/>
<path d="M1348.57 459.874V467.535C1348.57 473.546 1340.47 478.412 1330.45 478.412C1320.42 478.412 1312.33 473.546 1312.33 467.535V459.874H1348.57Z" fill="url(#paint32_linear)"/>
<path d="M1330.47 470.751C1340.48 470.751 1348.6 465.881 1348.6 459.873C1348.6 453.866 1340.48 448.996 1330.47 448.996C1320.46 448.996 1312.35 453.866 1312.35 459.873C1312.35 465.881 1320.46 470.751 1330.47 470.751Z" fill="url(#paint33_linear)"/>
<path d="M1330.47 465.357C1335.51 465.357 1339.6 462.902 1339.6 459.874C1339.6 456.846 1335.51 454.391 1330.47 454.391C1325.43 454.391 1321.35 456.846 1321.35 459.874C1321.35 462.902 1325.43 465.357 1330.47 465.357Z" fill="#F39600"/>
<path d="M1340.23 459.873V428.721C1340.79 415.405 1333.92 402.875 1322.4 396.177L1287.55 375.946C1284.31 374.078 1280.32 374.078 1277.08 375.946C1274.87 377.23 1273.27 379.338 1272.61 381.807C1271.96 384.275 1272.32 386.902 1273.61 389.107C1274.41 390.499 1275.56 391.664 1276.94 392.492L1311.45 413.419C1317.15 416.893 1320.63 423.092 1320.62 429.77V459.882C1320.62 459.882 1321.92 465.339 1330.88 465.339C1339.83 465.339 1340.23 459.873 1340.23 459.873Z" fill="url(#paint34_linear)"/>
<path opacity="0.28" d="M1454.51 435.086H1373.07V542.875H1454.51V435.086Z" fill="url(#paint35_linear)"/>
<path d="M1454.52 575.499V592.689C1454.52 606.193 1436.28 617.141 1413.8 617.141C1391.32 617.141 1373.07 606.193 1373.07 592.689V575.499H1454.52Z" fill="url(#paint36_linear)"/>
<path d="M1413.8 599.952C1436.29 599.952 1454.52 589.004 1454.52 575.5C1454.52 561.995 1436.29 551.047 1413.8 551.047C1391.31 551.047 1373.08 561.995 1373.08 575.5C1373.08 589.004 1391.31 599.952 1413.8 599.952Z" fill="url(#paint37_linear)"/>
<path d="M1413.8 594.566C1431.33 594.566 1445.55 586.03 1445.55 575.5C1445.55 564.969 1431.33 556.433 1413.8 556.433C1396.26 556.433 1382.05 564.969 1382.05 575.5C1382.05 586.03 1396.26 594.566 1413.8 594.566Z" fill="url(#paint38_linear)"/>
<path d="M1381.89 497.84L1379.42 499.453L1380.74 498.501V498.395L1381.89 497.84Z" fill="#F39600"/>
<path d="M1413.8 589.189C1426.39 589.189 1436.6 583.056 1436.6 575.49C1436.6 567.925 1426.39 561.792 1413.8 561.792C1401.21 561.792 1391 567.925 1391 575.49C1391 583.056 1401.21 589.189 1413.8 589.189Z" fill="#475254"/>
<path d="M1454.52 542.885V560.153C1454.52 573.657 1436.28 584.606 1413.8 584.606C1391.32 584.606 1373.07 573.657 1373.07 560.153V542.885H1454.52Z" fill="url(#paint39_linear)"/>
<path d="M1413.8 567.335C1436.29 567.335 1454.52 556.388 1454.52 542.883C1454.52 529.378 1436.29 518.43 1413.8 518.43C1391.31 518.43 1373.08 529.378 1373.08 542.883C1373.08 556.388 1391.31 567.335 1413.8 567.335Z" fill="#FEED00"/>
<path d="M1457.64 437.078V449.49C1457.64 464.034 1438 475.838 1413.8 475.838C1389.6 475.838 1369.95 464.052 1369.95 449.49V437.078H1457.64Z" fill="url(#paint40_linear)"/>
<path d="M1413.8 463.409C1438.01 463.409 1457.64 451.621 1457.64 437.079C1457.64 422.538 1438.01 410.749 1413.8 410.749C1389.59 410.749 1369.96 422.538 1369.96 437.079C1369.96 451.621 1389.59 463.409 1413.8 463.409Z" fill="url(#paint41_linear)"/>
<path d="M1431.91 425.029V432.68C1431.91 438.7 1423.8 443.575 1413.8 443.575C1403.79 443.575 1395.68 438.7 1395.68 432.68V425.029H1431.91Z" fill="url(#paint42_linear)"/>
<path d="M1413.8 435.907C1423.81 435.907 1431.92 431.037 1431.92 425.029C1431.92 419.022 1423.81 414.152 1413.8 414.152C1403.79 414.152 1395.68 419.022 1395.68 425.029C1395.68 431.037 1403.79 435.907 1413.8 435.907Z" fill="url(#paint43_linear)"/>
<path d="M1413.8 430.521C1418.84 430.521 1422.92 428.066 1422.92 425.038C1422.92 422.01 1418.84 419.555 1413.8 419.555C1408.76 419.555 1404.68 422.01 1404.68 425.038C1404.68 428.066 1408.76 430.521 1413.8 430.521Z" fill="#F39600"/>
<path d="M1423.55 425.029V393.877C1424.08 380.579 1417.21 368.079 1405.69 361.411L1370.84 341.137C1367.6 339.268 1363.61 339.268 1360.37 341.137C1357.44 342.847 1355.62 345.978 1355.59 349.376C1355.56 352.774 1357.32 355.937 1360.22 357.7L1394.72 378.653C1400.42 382.131 1403.89 388.329 1403.88 395.005V425.117C1403.88 425.117 1405.2 430.564 1414.15 430.564C1423.11 430.564 1423.55 425.029 1423.55 425.029Z" fill="url(#paint44_linear)"/>
<path opacity="0.28" d="M1535.52 390.967H1454.08V498.756H1535.52V390.967Z" fill="url(#paint45_linear)"/>
<path d="M1535.52 531.371V548.587C1535.52 562.091 1517.3 573.048 1494.8 573.048C1472.3 573.048 1454.08 562.091 1454.08 548.587V531.371H1535.52Z" fill="url(#paint46_linear)"/>
<path d="M1494.8 555.824C1517.29 555.824 1535.52 544.877 1535.52 531.372C1535.52 517.867 1517.29 506.919 1494.8 506.919C1472.31 506.919 1454.08 517.867 1454.08 531.372C1454.08 544.877 1472.31 555.824 1494.8 555.824Z" fill="url(#paint47_linear)"/>
<path d="M1494.8 550.439C1512.34 550.439 1526.55 541.903 1526.55 531.373C1526.55 520.843 1512.34 512.306 1494.8 512.306C1477.26 512.306 1463.05 520.843 1463.05 531.373C1463.05 541.903 1477.26 550.439 1494.8 550.439Z" fill="url(#paint48_linear)"/>
<path d="M1462.9 453.721L1460.45 455.343C1460.87 455.017 1461.33 454.691 1461.75 454.382V454.321L1462.9 453.721Z" fill="#F39600"/>
<path d="M1494.8 545.07C1507.39 545.07 1517.6 538.937 1517.6 531.372C1517.6 523.807 1507.39 517.674 1494.8 517.674C1482.21 517.674 1472 523.807 1472 531.372C1472 538.937 1482.21 545.07 1494.8 545.07Z" fill="#475254"/>
<path d="M1535.52 498.757V516.025C1535.52 529.538 1517.3 540.487 1494.8 540.487C1472.3 540.487 1454.08 529.538 1454.08 516.025V498.757H1535.52Z" fill="url(#paint49_linear)"/>
<path d="M1494.8 523.209C1517.29 523.209 1535.52 512.262 1535.52 498.757C1535.52 485.252 1517.29 474.304 1494.8 474.304C1472.31 474.304 1454.08 485.252 1454.08 498.757C1454.08 512.262 1472.31 523.209 1494.8 523.209Z" fill="#FEED00"/>
<path d="M1538.64 392.96V405.389C1538.64 419.933 1519 431.719 1494.8 431.719C1470.6 431.719 1450.96 419.933 1450.96 405.389V392.96H1538.64Z" fill="url(#paint50_linear)"/>
<path d="M1494.8 419.29C1519.01 419.29 1538.64 407.502 1538.64 392.96C1538.64 378.418 1519.01 366.63 1494.8 366.63C1470.59 366.63 1450.96 378.418 1450.96 392.96C1450.96 407.502 1470.59 419.29 1494.8 419.29Z" fill="url(#paint51_linear)"/>
<path d="M1512.92 380.91V388.57C1512.92 394.582 1504.81 399.448 1494.8 399.448C1484.8 399.448 1476.69 394.582 1476.69 388.57V380.91H1512.92Z" fill="url(#paint52_linear)"/>
<path d="M1494.8 391.786C1504.81 391.786 1512.92 386.916 1512.92 380.909C1512.92 374.901 1504.81 370.031 1494.8 370.031C1484.79 370.031 1476.68 374.901 1476.68 380.909C1476.68 386.916 1484.79 391.786 1494.8 391.786Z" fill="url(#paint53_linear)"/>
<path d="M1494.8 386.392C1499.84 386.392 1503.92 383.937 1503.92 380.909C1503.92 377.881 1499.84 375.426 1494.8 375.426C1489.76 375.426 1485.68 377.881 1485.68 380.909C1485.68 383.937 1489.76 386.392 1494.8 386.392Z" fill="#F39600"/>
<path d="M1504.59 380.911V349.768C1505.15 336.448 1498.29 323.914 1486.76 317.214L1451.92 296.94C1448.68 295.071 1444.69 295.071 1441.45 296.94C1438.51 298.643 1436.69 301.774 1436.66 305.173C1436.63 308.571 1438.4 311.732 1441.31 313.486L1475.82 334.439C1481.52 337.933 1484.98 344.151 1484.94 350.835V380.946C1484.94 380.946 1486.25 386.403 1495.21 386.403C1504.16 386.403 1504.59 380.911 1504.59 380.911Z" fill="url(#paint54_linear)"/>
<path d="M1431.73 126.52C1438.19 130.249 1438.22 136.287 1431.73 140.016L1263.45 237.862C1256.13 241.59 1247.47 241.59 1240.14 237.862L1070.69 140.016C1064.23 136.287 1064.21 130.249 1070.62 126.52L1238.99 28.6747C1246.31 24.9459 1254.98 24.9459 1262.3 28.6747L1431.73 126.52Z" fill="url(#paint55_linear)"/>
<path d="M1238.07 42.1173L1070.17 139.69L1070.69 140.025L1240.15 237.835C1247.46 241.572 1256.13 241.572 1263.45 237.835L1431.34 140.263L1430.83 139.936L1261.42 42.0908C1254.08 38.3882 1245.41 38.398 1238.07 42.1173Z" fill="url(#paint56_linear)"/>
<path d="M1251.15 158.245C1250.94 158.254 1250.73 158.199 1250.56 158.086L1166.22 109.401C1165.65 109.071 1165.45 108.339 1165.77 107.762C1166.1 107.192 1166.83 106.995 1167.4 107.321L1251.75 156.024C1252.02 156.179 1252.22 156.438 1252.3 156.743C1252.39 157.047 1252.34 157.372 1252.19 157.646C1251.98 158.023 1251.58 158.253 1251.15 158.245H1251.15Z" fill="white"/>
<path d="M1297.88 131.289C1297.68 131.287 1297.47 131.226 1297.3 131.112L1213 82.4892C1212.72 82.3372 1212.52 82.0821 1212.44 81.7808C1212.35 81.4795 1212.39 81.1569 1212.55 80.8849C1212.89 80.321 1213.61 80.1296 1214.19 80.4529L1298.47 129.085C1298.95 129.355 1299.18 129.91 1299.04 130.435C1298.9 130.961 1298.42 131.325 1297.87 131.324L1297.88 131.289Z" fill="white"/>
<path d="M1157.34 151.37L1192.11 171.644L1315.73 91.8341L1290.39 75.8086L1286.15 82.5343L1279.37 91.9222L1268.2 101.196L1261.82 106.388L1251.24 111.483L1237.47 115.969L1213.31 121.858L1189.87 125.243L1172.27 132.709L1160.7 144.107L1157.34 151.37Z" fill="url(#paint57_linear)"/>
<path d="M1157.34 151.368C1157.18 151.366 1157.03 151.336 1156.89 151.28C1156.28 151.039 1155.98 150.349 1156.22 149.738C1156.57 148.856 1165.24 128.106 1194.3 123.293C1197.74 122.72 1201.35 122.226 1205.11 121.689C1232.43 117.766 1266.52 112.962 1288.7 76.2388C1289.1 75.7682 1289.78 75.6644 1290.3 75.9958C1290.82 76.3271 1291.02 76.9918 1290.76 77.5522C1267.96 115.183 1233.29 120.102 1205.44 124.06C1201.67 124.597 1198.11 125.091 1194.7 125.664C1183.9 127.227 1173.88 132.196 1166.1 139.847C1162.94 142.953 1160.35 146.598 1158.47 150.61C1158.28 151.066 1157.83 151.364 1157.34 151.368Z" fill="url(#paint58_linear)"/>
<path d="M1177.56 163.261L1181.86 153.978L1186.76 148.742L1190.59 146.098L1206.27 137.512L1212.33 135.423L1219.93 133.025L1226.62 127.789L1230.15 123.047L1232.79 117.476L1237.09 101.098C1237.09 101.098 1240 86.9321 1241.84 84.5344C1243.67 82.1368 1249.55 74.1504 1249.55 74.1504L1253.54 72.0525L1257.19 68.9496L1263.43 67.5745L1268.11 65.6176L1270.8 65.0887L1311.35 87.9194L1195.43 173.424L1177.56 163.261Z" fill="url(#paint59_linear)"/>
<path d="M1177.34 164.556H1177.2C1176.55 164.478 1176.08 163.893 1176.15 163.243C1176.25 162.458 1178.79 143.85 1213.84 133.951C1229.05 129.684 1232.18 116.62 1235.46 102.781C1239.55 85.6801 1243.78 67.9974 1270.3 64.5155C1270.62 64.4835 1270.93 64.578 1271.17 64.7781C1271.42 64.9782 1271.57 65.2675 1271.61 65.5821C1271.67 66.2104 1271.23 66.779 1270.61 66.8867C1245.73 70.157 1241.69 87.0288 1237.79 103.345C1234.46 117.238 1231.03 131.615 1214.5 136.26C1196.95 141.179 1188.14 148.354 1183.79 153.502C1181.18 156.311 1179.37 159.769 1178.56 163.516C1178.47 164.126 1177.94 164.575 1177.33 164.556H1177.34Z" fill="#4C68EF"/>
<path d="M1208.95 182.539C1208.74 182.539 1208.53 182.487 1208.35 182.39L1123.96 133.696C1123.44 133.346 1123.27 132.644 1123.59 132.095C1123.91 131.546 1124.6 131.34 1125.16 131.624L1209.5 180.318C1210.07 180.648 1210.27 181.37 1209.95 181.94C1209.73 182.318 1209.33 182.549 1208.9 182.539H1208.95Z" fill="white"/>
<path d="M1341.3 106.369C1341.1 106.372 1340.89 106.314 1340.71 106.202L1256.31 57.5081C1255.91 57.3116 1255.64 56.9041 1255.64 56.4533C1255.63 56.0025 1255.87 55.5847 1256.27 55.372C1256.67 55.1593 1257.15 55.1876 1257.52 55.4454L1341.85 104.13C1342.43 104.461 1342.63 105.192 1342.3 105.77C1342.09 106.124 1341.72 106.35 1341.3 106.369Z" fill="white"/>
<path d="M1271 178.22C1261.68 173.487 1250.67 173.487 1241.35 178.22C1238.45 179.633 1236.29 182.227 1235.43 185.342L1240.67 184.963C1241.5 182.942 1243.02 181.285 1244.97 180.291C1252.04 176.685 1260.4 176.685 1267.47 180.291C1273.7 183.888 1273.73 189.732 1267.54 193.381C1264.52 195.015 1261.16 195.921 1257.73 196.026L1257.61 198.952C1262.33 198.875 1266.97 197.665 1271.13 195.426C1279.28 190.658 1279.23 182.962 1271 178.22Z" fill="url(#paint60_linear)"/>
<path d="M1244.04 194.113C1251.72 198.044 1260.81 198.044 1268.49 194.113C1270.88 192.955 1272.66 190.818 1273.37 188.251L1269.08 188.568C1268.4 190.232 1267.15 191.597 1265.55 192.411C1259.74 195.39 1252.86 195.41 1247.04 192.464C1241.89 189.494 1241.87 184.689 1246.98 181.71C1249.46 180.361 1252.23 179.612 1255.06 179.524L1255.17 177.109C1251.27 177.172 1247.45 178.166 1244.02 180.009C1237.23 183.87 1237.26 190.216 1244.04 194.113Z" fill="url(#paint61_linear)"/>
<path d="M1268.27 179.992C1260.59 176.07 1251.5 176.07 1243.82 179.992C1241.42 181.162 1239.63 183.306 1238.92 185.881L1243.21 185.546C1243.9 183.888 1245.15 182.527 1246.74 181.702C1252.57 178.741 1259.47 178.741 1265.3 181.702C1270.43 184.673 1270.45 189.495 1265.3 192.448C1262.81 193.801 1260.04 194.559 1257.21 194.66L1257.1 197.067C1261 197.007 1264.83 196.009 1268.26 194.158C1275.06 190.235 1275.03 183.906 1268.27 179.992Z" fill="#4C68EF"/>
<path d="M1315.3 149.738C1305.99 144.995 1294.97 144.995 1285.66 149.738C1282.75 151.15 1280.59 153.744 1279.72 156.861L1284.96 156.464C1285.8 154.448 1287.32 152.796 1289.27 151.81C1296.34 148.204 1304.71 148.204 1311.78 151.81C1318.01 155.406 1318.03 161.251 1311.85 164.9C1308.83 166.528 1305.47 167.433 1302.04 167.545L1301.9 170.462C1306.63 170.397 1311.27 169.187 1315.43 166.936C1323.55 162.194 1323.51 154.499 1315.3 149.738Z" fill="#4C68EF"/>
<path d="M1288.29 165.64C1295.97 169.571 1305.06 169.571 1312.74 165.64C1315.13 164.469 1316.91 162.328 1317.62 159.76L1313.33 160.086C1312.65 161.748 1311.4 163.113 1309.8 163.939C1303.98 166.88 1297.11 166.88 1291.29 163.939C1286.14 160.959 1286.12 156.146 1291.22 153.184C1293.71 151.834 1296.48 151.08 1299.31 150.981L1299.42 148.565C1295.52 148.625 1291.7 149.623 1288.27 151.474C1281.5 155.388 1281.58 161.726 1288.29 165.64Z" fill="url(#paint62_linear)"/>
<path d="M1312.5 151.52C1304.82 147.589 1295.73 147.589 1288.05 151.52C1285.66 152.683 1283.87 154.816 1283.14 157.382L1287.45 157.073C1288.12 155.406 1289.37 154.037 1290.97 153.221C1296.8 150.251 1303.7 150.251 1309.54 153.221C1314.68 156.192 1314.68 160.996 1309.54 163.966C1307.05 165.32 1304.28 166.077 1301.45 166.179L1301.35 168.585C1305.24 168.529 1309.07 167.531 1312.5 165.676C1319.33 161.763 1319.3 155.416 1312.5 151.52Z" fill="url(#paint63_linear)"/>
<path d="M1357.01 124.388C1347.7 119.645 1336.68 119.645 1327.37 124.388C1324.46 125.8 1322.3 128.395 1321.44 131.51L1326.67 131.131C1327.51 129.107 1329.04 127.447 1330.98 126.45C1338.05 122.854 1346.42 122.854 1353.49 126.45C1359.72 130.056 1359.76 135.891 1353.57 139.549C1350.55 141.176 1347.19 142.082 1343.77 142.194L1343.63 145.138C1348.31 145.031 1352.89 143.823 1357.01 141.612C1365.21 136.808 1365.17 129.112 1357.01 124.388Z" fill="url(#paint64_linear)"/>
<path d="M1329.96 140.271C1337.64 144.193 1346.73 144.193 1354.4 140.271C1356.81 139.118 1358.59 136.974 1359.29 134.4L1355.01 134.718C1354.33 136.375 1353.08 137.737 1351.49 138.561C1345.66 141.54 1338.75 141.54 1332.92 138.561C1327.79 135.608 1327.77 130.786 1332.92 127.816C1335.4 126.496 1338.15 125.769 1340.95 125.691L1341.07 123.267C1337.17 123.332 1333.35 124.33 1329.92 126.176C1323.16 130.019 1323.19 136.366 1329.96 140.271Z" fill="#00FFFF"/>
<path d="M1354.2 126.142C1346.52 122.219 1337.43 122.219 1329.75 126.142C1327.35 127.312 1325.57 129.457 1324.87 132.03L1329.15 131.695C1329.84 130.042 1331.09 128.682 1332.68 127.852C1338.51 124.89 1345.41 124.89 1351.25 127.852C1356.38 130.822 1356.4 135.697 1351.31 138.597C1348.82 139.947 1346.05 140.704 1343.22 140.81L1343.1 143.216C1347 143.16 1350.83 142.162 1354.26 140.307C1361.01 136.393 1360.91 130.056 1354.2 126.142Z" fill="url(#paint65_linear)"/>
<path d="M1264.67 206.56L1267.31 208.103L1285.47 197.631L1282.83 196.071L1264.67 206.56Z" fill="white"/>
<path d="M1269.77 209.54L1272.42 211.083L1290.57 200.593L1287.93 199.05L1269.77 209.54Z" fill="white"/>
<path d="M1275.77 212.987L1278.42 214.529L1288.12 208.95L1285.47 207.354L1275.77 212.987Z" fill="white"/>
<path d="M1311.9 176.74L1314.54 178.3L1332.7 167.819L1330.06 166.267L1311.9 176.74Z" fill="white"/>
<path d="M1317 179.719L1319.65 181.279L1337.81 170.789L1335.16 169.229L1317 179.719Z" fill="white"/>
<path d="M1323.01 183.173L1325.65 184.734L1335.35 179.136L1332.7 177.558L1323.01 183.173Z" fill="white"/>
<path d="M1354.48 149.853L1357.13 151.405L1375.29 140.915L1372.64 139.372L1354.48 149.853Z" fill="white"/>
<path d="M1359.59 152.797L1362.23 154.357L1380.39 143.867L1377.75 142.325L1359.59 152.797Z" fill="white"/>
<path d="M1365.57 156.253L1368.22 157.813L1377.91 152.233L1375.27 150.637L1365.57 156.253Z" fill="white"/>
<path d="M1128.04 130.029L1130.68 131.572L1140.38 126.001L1137.73 124.414L1128.04 130.029Z" fill="white"/>
<path d="M1133.15 133.617L1135.79 135.159L1145.49 129.588L1142.85 127.984L1133.15 133.617Z" fill="white"/>
<path d="M1169.02 104.818L1171.66 106.369L1181.36 100.78L1178.71 99.2025L1169.02 104.818Z" fill="white"/>
<path d="M1215.81 78.6366L1218.45 80.1969L1228.15 74.6082L1225.5 73.0215L1215.81 78.6366Z" fill="white"/>
<path d="M1100.33 130.029L1102.98 131.572L1112.67 126.001L1110.08 124.414L1100.33 130.029Z" fill="white"/>
<path d="M1104.82 133.324L1107.46 134.884L1117.16 129.304L1114.57 127.709L1104.82 133.324Z" fill="white"/>
<path d="M1097.78 135.846C1100.01 137.15 1100.01 139.204 1097.78 140.482C1095.26 141.761 1092.29 141.761 1089.78 140.482C1087.57 139.169 1087.55 137.124 1089.78 135.846C1092.29 134.559 1095.27 134.559 1097.78 135.846Z" fill="white"/>
<path d="M1441.13 224.895C1452.44 218.355 1461.63 223.591 1461.66 236.619C1461.7 249.648 1452.51 265.417 1441.26 271.967L1317.72 343.28C1306.41 349.829 1297.2 344.593 1297.16 331.582C1297.13 318.571 1306.32 302.775 1317.58 296.234L1441.13 224.895Z" fill="url(#paint66_linear)"/>
<path d="M1448.48 222.25C1445.88 222.646 1443.38 223.544 1441.13 224.894L1317.59 296.295C1306.28 302.844 1297.14 318.658 1297.17 331.643C1296.93 335.751 1298.26 339.797 1300.89 342.961C1303.49 342.557 1305.98 341.66 1308.24 340.317L1431.77 268.969C1443.08 262.428 1452.22 246.623 1452.19 233.621C1452.44 229.497 1451.11 225.432 1448.48 222.25Z" fill="url(#paint67_linear)"/>
<path d="M1329.58 305.798C1326.79 307.612 1325.04 310.649 1324.87 313.97C1324.87 316.976 1327 318.192 1329.61 316.676C1332.39 314.86 1334.15 311.825 1334.33 308.505C1334.32 305.499 1332.2 304.291 1329.58 305.798Z" fill="url(#paint68_linear)"/>
<path d="M1159.45 512.243C1156.66 514.049 1154.91 517.091 1154.75 520.415C1154.75 523.42 1156.88 524.637 1159.48 523.121C1162.27 521.304 1164.02 518.27 1164.2 514.949C1164.2 511.926 1162.07 510.736 1159.45 512.243Z" fill="url(#paint69_linear)"/>
<path d="M891.4 666.117C888.615 667.934 886.864 670.969 886.684 674.289C886.684 677.304 888.808 678.52 891.427 677.013C894.215 675.197 895.965 672.155 896.134 668.832C896.151 665.827 894.018 664.645 891.4 666.117Z" fill="url(#paint70_linear)"/>
<path d="M1357.96 287.612C1355.16 289.42 1353.41 292.46 1353.24 295.784C1353.24 298.79 1355.37 300.015 1357.98 298.49C1360.77 296.681 1362.52 293.645 1362.69 290.327C1362.67 287.313 1360.57 286.105 1357.96 287.612Z" fill="url(#paint71_linear)"/>
<path d="M1386.31 269.427C1383.53 271.251 1381.78 274.282 1381.59 277.598C1381.59 280.595 1383.72 281.821 1386.35 280.305C1389.14 278.491 1390.89 275.454 1391.07 272.133C1391.06 269.127 1388.93 267.92 1386.31 269.427Z" fill="url(#paint72_linear)"/>
<path d="M1414.68 251.225C1411.89 253.032 1410.13 256.073 1409.97 259.396C1409.97 262.394 1412.1 263.61 1414.71 262.103C1417.5 260.28 1419.25 257.239 1419.43 253.914C1419.42 250.943 1417.33 249.726 1414.68 251.225Z" fill="url(#paint73_linear)"/>
<path d="M1371.19 544.823V578.779C1371.19 592.292 1352.97 603.24 1330.47 603.24C1307.98 603.24 1289.76 592.292 1289.76 578.779V544.823H1371.19Z" fill="url(#paint74_linear)"/>
<path d="M1330.47 569.276C1352.96 569.276 1371.19 558.328 1371.19 544.823C1371.19 531.318 1352.96 520.37 1330.47 520.37C1307.99 520.37 1289.76 531.318 1289.76 544.823C1289.76 558.328 1307.99 569.276 1330.47 569.276Z" fill="url(#paint75_linear)"/>
<path d="M1454.52 509.829V543.784C1454.52 557.297 1436.29 568.245 1413.8 568.245C1391.31 568.245 1373.07 557.297 1373.07 543.784V509.829H1454.52Z" fill="url(#paint76_linear)"/>
<path d="M1413.8 534.282C1436.29 534.282 1454.52 523.334 1454.52 509.829C1454.52 496.325 1436.29 485.377 1413.8 485.377C1391.31 485.377 1373.08 496.325 1373.08 509.829C1373.08 523.334 1391.31 534.282 1413.8 534.282Z" fill="#4C68EF"/>
<path d="M1535.52 464.802V498.757C1535.52 512.27 1517.3 523.219 1494.8 523.219C1472.3 523.219 1454.08 512.27 1454.08 498.757V464.802H1535.52Z" fill="url(#paint77_linear)"/>
<path d="M1494.8 489.254C1517.29 489.254 1535.52 478.306 1535.52 464.801C1535.52 451.296 1517.29 440.348 1494.8 440.348C1472.31 440.348 1454.08 451.296 1454.08 464.801C1454.08 478.306 1472.31 489.254 1494.8 489.254Z" fill="#FFCB33"/>
<path d="M1255.26 622.017L1198.76 589.181V251.384C1233.71 271.744 1255.22 309.132 1255.26 349.583V622.017Z" fill="url(#paint78_linear)"/>
<rect width="552" height="136" transform="matrix(1 0 0 -1 43 445)" fill="url(#paint79_linear)"/>
<g filter="url(#filter0_f)">
<path d="M112.1 344.63L110.57 355.16H88.61V370.1H107.78V380.45H88.61V396.38H112.1V407H73.85V344.63H112.1ZM157.966 393.14C157.966 394.94 158.206 396.26 158.686 397.1C159.226 397.94 160.066 398.57 161.206 398.99L158.236 408.26C155.296 408.02 152.896 407.39 151.036 406.37C149.176 405.29 147.736 403.61 146.716 401.33C143.596 406.13 138.796 408.53 132.316 408.53C127.576 408.53 123.796 407.15 120.976 404.39C118.156 401.63 116.746 398.03 116.746 393.59C116.746 388.37 118.666 384.38 122.506 381.62C126.346 378.86 131.896 377.48 139.156 377.48H144.016V375.41C144.016 372.59 143.416 370.67 142.216 369.65C141.016 368.57 138.916 368.03 135.916 368.03C134.356 368.03 132.466 368.27 130.246 368.75C128.026 369.17 125.746 369.77 123.406 370.55L120.166 361.19C123.166 360.05 126.226 359.18 129.346 358.58C132.526 357.98 135.466 357.68 138.166 357.68C145.006 357.68 150.016 359.09 153.196 361.91C156.376 364.73 157.966 368.96 157.966 374.6V393.14ZM136.456 398.36C139.696 398.36 142.216 396.83 144.016 393.77V385.31H140.506C137.266 385.31 134.836 385.88 133.216 387.02C131.656 388.16 130.876 389.93 130.876 392.33C130.876 394.25 131.356 395.75 132.316 396.83C133.336 397.85 134.716 398.36 136.456 398.36ZM195.213 357.86C196.953 357.86 198.543 358.07 199.983 358.49L197.733 372.26C195.933 371.84 194.493 371.63 193.413 371.63C190.593 371.63 188.433 372.62 186.933 374.6C185.493 376.52 184.353 379.43 183.513 383.33V407H169.293V359.21H181.713L182.883 368.48C183.963 365.18 185.583 362.6 187.743 360.74C189.963 358.82 192.453 357.86 195.213 357.86ZM233.406 357.68C237.546 357.68 240.786 358.94 243.126 361.46C245.466 363.98 246.636 367.52 246.636 372.08V407H232.416V374.51C232.416 372.11 232.026 370.46 231.246 369.56C230.526 368.6 229.416 368.12 227.916 368.12C225.036 368.12 222.276 370.19 219.636 374.33V407H205.416V359.21H217.836L218.826 364.88C220.866 362.48 223.056 360.68 225.396 359.48C227.796 358.28 230.466 357.68 233.406 357.68ZM304.727 381.44L320.117 407H304.007L295.727 389.09L287.627 407H272.147L287.537 381.89L273.677 359.21H289.607L296.267 374.51L302.657 359.21H317.777L304.727 381.44ZM367.701 344.63L366.261 355.97H350.871V407H336.111V355.97H320.001V344.63H367.701ZM389.153 357.68C396.473 357.68 402.203 359.93 406.343 364.43C410.483 368.87 412.553 375.11 412.553 383.15C412.553 388.25 411.593 392.72 409.673 396.56C407.813 400.34 405.113 403.28 401.573 405.38C398.093 407.48 393.953 408.53 389.153 408.53C381.893 408.53 376.163 406.31 371.963 401.87C367.823 397.37 365.753 391.1 365.753 383.06C365.753 377.96 366.683 373.52 368.543 369.74C370.463 365.9 373.163 362.93 376.643 360.83C380.183 358.73 384.353 357.68 389.153 357.68ZM389.153 368.12C386.273 368.12 384.113 369.35 382.673 371.81C381.233 374.21 380.513 377.96 380.513 383.06C380.513 388.28 381.203 392.09 382.583 394.49C384.023 396.89 386.213 398.09 389.153 398.09C392.033 398.09 394.193 396.89 395.633 394.49C397.073 392.03 397.793 388.25 397.793 383.15C397.793 377.93 397.073 374.12 395.633 371.72C394.253 369.32 392.093 368.12 389.153 368.12ZM435.232 338.69V407H421.012V340.22L435.232 338.69ZM464.752 359.21L450.262 380.18L465.922 407H449.902L435.682 380.9L450.262 359.21H464.752ZM511.197 382.16C511.197 384.14 511.107 385.85 510.927 387.29H481.317C481.797 391.31 482.937 394.13 484.737 395.75C486.537 397.37 489.027 398.18 492.207 398.18C494.127 398.18 495.987 397.85 497.787 397.19C499.587 396.47 501.537 395.39 503.637 393.95L509.487 401.87C503.907 406.31 497.697 408.53 490.857 408.53C483.117 408.53 477.177 406.25 473.037 401.69C468.897 397.13 466.827 391.01 466.827 383.33C466.827 378.47 467.697 374.12 469.437 370.28C471.177 366.38 473.727 363.32 477.087 361.1C480.447 358.82 484.467 357.68 489.147 357.68C496.047 357.68 501.447 359.84 505.347 364.16C509.247 368.48 511.197 374.48 511.197 382.16ZM497.247 378.11C497.127 370.79 494.547 367.13 489.507 367.13C487.047 367.13 485.127 368.03 483.747 369.83C482.427 371.63 481.617 374.6 481.317 378.74H497.247V378.11ZM547.175 357.68C551.315 357.68 554.555 358.94 556.895 361.46C559.235 363.98 560.405 367.52 560.405 372.08V407H546.185V374.51C546.185 372.11 545.795 370.46 545.015 369.56C544.295 368.6 543.185 368.12 541.685 368.12C538.805 368.12 536.045 370.19 533.405 374.33V407H519.185V359.21H531.605L532.595 364.88C534.635 362.48 536.825 360.68 539.165 359.48C541.565 358.28 544.235 357.68 547.175 357.68Z" fill="white"/>
</g>
<path d="M93.92 223.1C98.6 223.1 102.65 223.76 106.07 225.08C109.55 226.4 112.7 228.41 115.52 231.11L108.68 239.12C104.42 235.64 99.86 233.9 95 233.9C92.42 233.9 90.38 234.44 88.88 235.52C87.38 236.54 86.63 238.04 86.63 240.02C86.63 241.4 86.96 242.54 87.62 243.44C88.28 244.28 89.45 245.09 91.13 245.87C92.81 246.65 95.33 247.58 98.69 248.66C105.05 250.7 109.73 253.22 112.73 256.22C115.73 259.16 117.23 263.36 117.23 268.82C117.23 272.72 116.24 276.17 114.26 279.17C112.28 282.11 109.43 284.42 105.71 286.1C101.99 287.72 97.58 288.53 92.48 288.53C87.38 288.53 82.85 287.72 78.89 286.1C74.99 284.48 71.63 282.32 68.81 279.62L76.28 271.43C78.68 273.47 81.14 275 83.66 276.02C86.24 277.04 89.03 277.55 92.03 277.55C95.09 277.55 97.49 276.89 99.23 275.57C101.03 274.19 101.93 272.3 101.93 269.9C101.93 268.34 101.6 267.05 100.94 266.03C100.28 264.95 99.14 263.99 97.52 263.15C95.9 262.31 93.56 261.41 90.5 260.45C83.6 258.35 78.68 255.77 75.74 252.71C72.86 249.65 71.42 245.78 71.42 241.1C71.42 237.5 72.38 234.35 74.3 231.65C76.22 228.89 78.89 226.79 82.31 225.35C85.73 223.85 89.6 223.1 93.92 223.1ZM155.054 284.75C153.314 285.95 151.274 286.88 148.934 287.54C146.654 288.2 144.374 288.53 142.094 288.53C131.654 288.47 126.434 282.71 126.434 271.25V249.11H119.684V239.21H126.434V228.86L140.654 227.24V239.21H151.634L150.104 249.11H140.654V271.07C140.654 273.29 141.014 274.88 141.734 275.84C142.454 276.8 143.594 277.28 145.154 277.28C146.774 277.28 148.484 276.77 150.284 275.75L155.054 284.75ZM196.726 273.14C196.726 274.94 196.966 276.26 197.446 277.1C197.986 277.94 198.826 278.57 199.966 278.99L196.996 288.26C194.056 288.02 191.656 287.39 189.796 286.37C187.936 285.29 186.496 283.61 185.476 281.33C182.356 286.13 177.556 288.53 171.076 288.53C166.336 288.53 162.556 287.15 159.736 284.39C156.916 281.63 155.506 278.03 155.506 273.59C155.506 268.37 157.426 264.38 161.266 261.62C165.106 258.86 170.656 257.48 177.916 257.48H182.776V255.41C182.776 252.59 182.176 250.67 180.976 249.65C179.776 248.57 177.676 248.03 174.676 248.03C173.116 248.03 171.226 248.27 169.006 248.75C166.786 249.17 164.506 249.77 162.166 250.55L158.926 241.19C161.926 240.05 164.986 239.18 168.106 238.58C171.286 237.98 174.226 237.68 176.926 237.68C183.766 237.68 188.776 239.09 191.956 241.91C195.136 244.73 196.726 248.96 196.726 254.6V273.14ZM175.216 278.36C178.456 278.36 180.976 276.83 182.776 273.77V265.31H179.266C176.026 265.31 173.596 265.88 171.976 267.02C170.416 268.16 169.636 269.93 169.636 272.33C169.636 274.25 170.116 275.75 171.076 276.83C172.096 277.85 173.476 278.36 175.216 278.36ZM222.273 218.69V287H208.053V220.22L222.273 218.69ZM251.793 239.21L237.303 260.18L252.963 287H236.943L222.723 260.9L237.303 239.21H251.793ZM298.238 262.16C298.238 264.14 298.148 265.85 297.968 267.29H268.358C268.838 271.31 269.978 274.13 271.778 275.75C273.578 277.37 276.068 278.18 279.248 278.18C281.168 278.18 283.028 277.85 284.828 277.19C286.628 276.47 288.578 275.39 290.678 273.95L296.528 281.87C290.948 286.31 284.738 288.53 277.898 288.53C270.158 288.53 264.218 286.25 260.078 281.69C255.938 277.13 253.868 271.01 253.868 263.33C253.868 258.47 254.738 254.12 256.478 250.28C258.218 246.38 260.768 243.32 264.128 241.1C267.488 238.82 271.508 237.68 276.188 237.68C283.088 237.68 288.488 239.84 292.388 244.16C296.288 248.48 298.238 254.48 298.238 262.16ZM284.288 258.11C284.168 250.79 281.588 247.13 276.548 247.13C274.088 247.13 272.168 248.03 270.788 249.83C269.468 251.63 268.658 254.6 268.358 258.74H284.288V258.11ZM389.774 287H375.284L374.204 262.61C373.904 256.79 373.754 251.6 373.754 247.04C373.754 243.56 373.844 240.26 374.024 237.14L364.394 280.43H350.444L340.184 237.14C340.544 242.36 340.724 247.28 340.724 251.9C340.724 255.38 340.634 259.01 340.454 262.79L339.374 287H324.974L329.654 224.63H348.284L357.644 266.93L366.374 224.63H385.094L389.774 287ZM413.366 224.63V287H398.606V224.63H413.366ZM445.043 223.1C449.723 223.1 453.773 223.76 457.193 225.08C460.673 226.4 463.823 228.41 466.643 231.11L459.803 239.12C455.543 235.64 450.983 233.9 446.123 233.9C443.543 233.9 441.503 234.44 440.003 235.52C438.503 236.54 437.753 238.04 437.753 240.02C437.753 241.4 438.083 242.54 438.743 243.44C439.403 244.28 440.573 245.09 442.253 245.87C443.933 246.65 446.453 247.58 449.813 248.66C456.173 250.7 460.853 253.22 463.853 256.22C466.853 259.16 468.353 263.36 468.353 268.82C468.353 272.72 467.363 276.17 465.383 279.17C463.403 282.11 460.553 284.42 456.833 286.1C453.113 287.72 448.703 288.53 443.603 288.53C438.503 288.53 433.973 287.72 430.013 286.1C426.113 284.48 422.753 282.32 419.933 279.62L427.403 271.43C429.803 273.47 432.263 275 434.783 276.02C437.363 277.04 440.153 277.55 443.153 277.55C446.213 277.55 448.613 276.89 450.353 275.57C452.153 274.19 453.053 272.3 453.053 269.9C453.053 268.34 452.723 267.05 452.063 266.03C451.403 264.95 450.263 263.99 448.643 263.15C447.023 262.31 444.683 261.41 441.623 260.45C434.723 258.35 429.803 255.77 426.863 252.71C423.983 249.65 422.543 245.78 422.543 241.1C422.543 237.5 423.503 234.35 425.423 231.65C427.343 228.89 430.013 226.79 433.433 225.35C436.853 223.85 440.723 223.1 445.043 223.1ZM474.587 264.32V253.34H503.297V264.32H474.587ZM535.703 261.44L551.093 287H534.983L526.703 269.09L518.603 287H503.123L518.513 261.89L504.653 239.21H520.583L527.243 254.51L533.633 239.21H548.753L535.703 261.44ZM598.678 224.63L597.238 235.97H581.848V287H567.088V235.97H550.978V224.63H598.678ZM620.13 237.68C627.45 237.68 633.18 239.93 637.32 244.43C641.46 248.87 643.53 255.11 643.53 263.15C643.53 268.25 642.57 272.72 640.65 276.56C638.79 280.34 636.09 283.28 632.55 285.38C629.07 287.48 624.93 288.53 620.13 288.53C612.87 288.53 607.14 286.31 602.94 281.87C598.8 277.37 596.73 271.1 596.73 263.06C596.73 257.96 597.66 253.52 599.52 249.74C601.44 245.9 604.14 242.93 607.62 240.83C611.16 238.73 615.33 237.68 620.13 237.68ZM620.13 248.12C617.25 248.12 615.09 249.35 613.65 251.81C612.21 254.21 611.49 257.96 611.49 263.06C611.49 268.28 612.18 272.09 613.56 274.49C615 276.89 617.19 278.09 620.13 278.09C623.01 278.09 625.17 276.89 626.61 274.49C628.05 272.03 628.77 268.25 628.77 263.15C628.77 257.93 628.05 254.12 626.61 251.72C625.23 249.32 623.07 248.12 620.13 248.12ZM666.208 218.69V287H651.988V220.22L666.208 218.69ZM695.728 239.21L681.238 260.18L696.898 287H680.878L666.658 260.9L681.238 239.21H695.728ZM742.174 262.16C742.174 264.14 742.084 265.85 741.904 267.29H712.294C712.774 271.31 713.914 274.13 715.714 275.75C717.514 277.37 720.004 278.18 723.184 278.18C725.104 278.18 726.964 277.85 728.764 277.19C730.564 276.47 732.514 275.39 734.614 273.95L740.464 281.87C734.884 286.31 728.674 288.53 721.834 288.53C714.094 288.53 708.154 286.25 704.014 281.69C699.874 277.13 697.804 271.01 697.804 263.33C697.804 258.47 698.674 254.12 700.414 250.28C702.154 246.38 704.704 243.32 708.064 241.1C711.424 238.82 715.444 237.68 720.124 237.68C727.024 237.68 732.424 239.84 736.324 244.16C740.224 248.48 742.174 254.48 742.174 262.16ZM728.224 258.11C728.104 250.79 725.524 247.13 720.484 247.13C718.024 247.13 716.104 248.03 714.724 249.83C713.404 251.63 712.594 254.6 712.294 258.74H728.224V258.11ZM778.152 237.68C782.292 237.68 785.532 238.94 787.872 241.46C790.212 243.98 791.382 247.52 791.382 252.08V287H777.162V254.51C777.162 252.11 776.772 250.46 775.992 249.56C775.272 248.6 774.162 248.12 772.662 248.12C769.782 248.12 767.022 250.19 764.382 254.33V287H750.162V239.21H762.582L763.572 244.88C765.612 242.48 767.802 240.68 770.142 239.48C772.542 238.28 775.212 237.68 778.152 237.68Z" fill="#262626"/>
<path d="M112.1 344.63L110.57 355.16H88.61V370.1H107.78V380.45H88.61V396.38H112.1V407H73.85V344.63H112.1ZM157.966 393.14C157.966 394.94 158.206 396.26 158.686 397.1C159.226 397.94 160.066 398.57 161.206 398.99L158.236 408.26C155.296 408.02 152.896 407.39 151.036 406.37C149.176 405.29 147.736 403.61 146.716 401.33C143.596 406.13 138.796 408.53 132.316 408.53C127.576 408.53 123.796 407.15 120.976 404.39C118.156 401.63 116.746 398.03 116.746 393.59C116.746 388.37 118.666 384.38 122.506 381.62C126.346 378.86 131.896 377.48 139.156 377.48H144.016V375.41C144.016 372.59 143.416 370.67 142.216 369.65C141.016 368.57 138.916 368.03 135.916 368.03C134.356 368.03 132.466 368.27 130.246 368.75C128.026 369.17 125.746 369.77 123.406 370.55L120.166 361.19C123.166 360.05 126.226 359.18 129.346 358.58C132.526 357.98 135.466 357.68 138.166 357.68C145.006 357.68 150.016 359.09 153.196 361.91C156.376 364.73 157.966 368.96 157.966 374.6V393.14ZM136.456 398.36C139.696 398.36 142.216 396.83 144.016 393.77V385.31H140.506C137.266 385.31 134.836 385.88 133.216 387.02C131.656 388.16 130.876 389.93 130.876 392.33C130.876 394.25 131.356 395.75 132.316 396.83C133.336 397.85 134.716 398.36 136.456 398.36ZM195.213 357.86C196.953 357.86 198.543 358.07 199.983 358.49L197.733 372.26C195.933 371.84 194.493 371.63 193.413 371.63C190.593 371.63 188.433 372.62 186.933 374.6C185.493 376.52 184.353 379.43 183.513 383.33V407H169.293V359.21H181.713L182.883 368.48C183.963 365.18 185.583 362.6 187.743 360.74C189.963 358.82 192.453 357.86 195.213 357.86ZM233.406 357.68C237.546 357.68 240.786 358.94 243.126 361.46C245.466 363.98 246.636 367.52 246.636 372.08V407H232.416V374.51C232.416 372.11 232.026 370.46 231.246 369.56C230.526 368.6 229.416 368.12 227.916 368.12C225.036 368.12 222.276 370.19 219.636 374.33V407H205.416V359.21H217.836L218.826 364.88C220.866 362.48 223.056 360.68 225.396 359.48C227.796 358.28 230.466 357.68 233.406 357.68ZM304.727 381.44L320.117 407H304.007L295.727 389.09L287.627 407H272.147L287.537 381.89L273.677 359.21H289.607L296.267 374.51L302.657 359.21H317.777L304.727 381.44ZM367.701 344.63L366.261 355.97H350.871V407H336.111V355.97H320.001V344.63H367.701ZM389.153 357.68C396.473 357.68 402.203 359.93 406.343 364.43C410.483 368.87 412.553 375.11 412.553 383.15C412.553 388.25 411.593 392.72 409.673 396.56C407.813 400.34 405.113 403.28 401.573 405.38C398.093 407.48 393.953 408.53 389.153 408.53C381.893 408.53 376.163 406.31 371.963 401.87C367.823 397.37 365.753 391.1 365.753 383.06C365.753 377.96 366.683 373.52 368.543 369.74C370.463 365.9 373.163 362.93 376.643 360.83C380.183 358.73 384.353 357.68 389.153 357.68ZM389.153 368.12C386.273 368.12 384.113 369.35 382.673 371.81C381.233 374.21 380.513 377.96 380.513 383.06C380.513 388.28 381.203 392.09 382.583 394.49C384.023 396.89 386.213 398.09 389.153 398.09C392.033 398.09 394.193 396.89 395.633 394.49C397.073 392.03 397.793 388.25 397.793 383.15C397.793 377.93 397.073 374.12 395.633 371.72C394.253 369.32 392.093 368.12 389.153 368.12ZM435.232 338.69V407H421.012V340.22L435.232 338.69ZM464.752 359.21L450.262 380.18L465.922 407H449.902L435.682 380.9L450.262 359.21H464.752ZM511.197 382.16C511.197 384.14 511.107 385.85 510.927 387.29H481.317C481.797 391.31 482.937 394.13 484.737 395.75C486.537 397.37 489.027 398.18 492.207 398.18C494.127 398.18 495.987 397.85 497.787 397.19C499.587 396.47 501.537 395.39 503.637 393.95L509.487 401.87C503.907 406.31 497.697 408.53 490.857 408.53C483.117 408.53 477.177 406.25 473.037 401.69C468.897 397.13 466.827 391.01 466.827 383.33C466.827 378.47 467.697 374.12 469.437 370.28C471.177 366.38 473.727 363.32 477.087 361.1C480.447 358.82 484.467 357.68 489.147 357.68C496.047 357.68 501.447 359.84 505.347 364.16C509.247 368.48 511.197 374.48 511.197 382.16ZM497.247 378.11C497.127 370.79 494.547 367.13 489.507 367.13C487.047 367.13 485.127 368.03 483.747 369.83C482.427 371.63 481.617 374.6 481.317 378.74H497.247V378.11ZM547.175 357.68C551.315 357.68 554.555 358.94 556.895 361.46C559.235 363.98 560.405 367.52 560.405 372.08V407H546.185V374.51C546.185 372.11 545.795 370.46 545.015 369.56C544.295 368.6 543.185 368.12 541.685 368.12C538.805 368.12 536.045 370.19 533.405 374.33V407H519.185V359.21H531.605L532.595 364.88C534.635 362.48 536.825 360.68 539.165 359.48C541.565 358.28 544.235 357.68 547.175 357.68Z" fill="white"/>
<defs>
<filter id="filter0_f" x="0.850098" y="265.69" width="632.555" height="215.84" filterUnits="userSpaceOnUse" color-interpolation-filters="sRGB">
<feFlood flood-opacity="0" result="BackgroundImageFix"/>
<feBlend mode="normal" in="SourceGraphic" in2="BackgroundImageFix" result="shape"/>
<feGaussianBlur stdDeviation="36.5" result="effect1_foregroundBlur"/>
</filter>
<linearGradient id="paint0_linear" x1="982.45" y1="75.0798" x2="1283.65" y2="75.0798" gradientUnits="userSpaceOnUse">
<stop stop-color="#F4F9FF"/>
<stop offset="0.02" stop-color="#EFF5FE"/>
<stop offset="0.13" stop-color="#DEE8F9"/>
<stop offset="0.27" stop-color="#D3DFF5"/>
<stop offset="0.46" stop-color="#CCD9F4"/>
<stop offset="1" stop-color="#CAD8F3"/>
</linearGradient>
<linearGradient id="paint1_linear" x1="736.369" y1="549.383" x2="736.369" y2="696.514" gradientUnits="userSpaceOnUse">
<stop stop-color="#F4F9FF"/>
<stop offset="0.02" stop-color="#EFF5FE"/>
<stop offset="0.13" stop-color="#DEE8F9"/>
<stop offset="0.27" stop-color="#D3DFF5"/>
<stop offset="0.46" stop-color="#CCD9F4"/>
<stop offset="1" stop-color="#CAD8F3"/>
</linearGradient>
<linearGradient id="paint2_linear" x1="742.301" y1="551.342" x2="742.301" y2="695.998" gradientUnits="userSpaceOnUse">
<stop stop-color="#F4F9FF"/>
<stop offset="1" stop-color="#CAD8F3"/>
</linearGradient>
<linearGradient id="paint3_linear" x1="1256.9" y1="646.298" x2="1054.07" y2="-138.644" gradientUnits="userSpaceOnUse">
<stop stop-color="#4C68EF"/>
<stop offset="1" stop-color="#4C68EF" stop-opacity="0"/>
</linearGradient>
<linearGradient id="paint4_linear" x1="1013.05" y1="526.612" x2="1196.15" y2="526.612" gradientUnits="userSpaceOnUse">
<stop stop-color="#F4F9FF"/>
<stop offset="1" stop-color="#CAD8F3"/>
</linearGradient>
<linearGradient id="paint5_linear" x1="1225.1" y1="652.058" x2="1022.75" y2="-133.526" gradientUnits="userSpaceOnUse">
<stop stop-color="#4C68EF"/>
<stop offset="0.17" stop-color="#4C68EF" stop-opacity="0.76"/>
<stop offset="0.4" stop-color="#4C68EF" stop-opacity="0.5"/>
<stop offset="0.6" stop-color="#4C68EF" stop-opacity="0.28"/>
<stop offset="0.77" stop-color="#4C68EF" stop-opacity="0.13"/>
<stop offset="0.91" stop-color="#4C68EF" stop-opacity="0.03"/>
<stop offset="1" stop-color="#4C68EF" stop-opacity="0"/>
</linearGradient>
<linearGradient id="paint6_linear" x1="981.545" y1="139.569" x2="981.545" y2="481.763" gradientUnits="userSpaceOnUse">
<stop stop-color="#F4F9FF"/>
<stop offset="1" stop-color="#CAD8F3"/>
</linearGradient>
<linearGradient id="paint7_linear" x1="759.145" y1="629.821" x2="1288.69" y2="330.47" gradientUnits="userSpaceOnUse">
<stop stop-color="#00366A"/>
<stop offset="0.33" stop-color="#003368"/>
<stop offset="0.57" stop-color="#012A62"/>
<stop offset="0.78" stop-color="#031A57"/>
<stop offset="0.97" stop-color="#050448"/>
<stop offset="1" stop-color="#050046"/>
</linearGradient>
<linearGradient id="paint8_linear" x1="875.448" y1="486.032" x2="1504.46" y2="486.032" gradientUnits="userSpaceOnUse">
<stop stop-color="#00366A"/>
<stop offset="0.33" stop-color="#003368"/>
<stop offset="0.57" stop-color="#012A62"/>
<stop offset="0.78" stop-color="#031A57"/>
<stop offset="0.97" stop-color="#050448"/>
<stop offset="1" stop-color="#050046"/>
</linearGradient>
<linearGradient id="paint9_linear" x1="1175.24" y1="346.932" x2="1290.13" y2="346.932" gradientUnits="userSpaceOnUse">
<stop stop-color="#FFF52A"/>
<stop offset="0.51" stop-color="#FFF32A"/>
<stop offset="0.71" stop-color="#FFEC2C"/>
<stop offset="0.86" stop-color="#FFE02F"/>
<stop offset="0.98" stop-color="#FFCF32"/>
<stop offset="1" stop-color="#FFCB33"/>
</linearGradient>
<linearGradient id="paint10_linear" x1="1490.33" y1="327.43" x2="1490.39" y2="327.43" gradientUnits="userSpaceOnUse">
<stop stop-color="#FFF52A"/>
<stop offset="0.51" stop-color="#FFF32A"/>
<stop offset="0.71" stop-color="#FFEC2C"/>
<stop offset="0.86" stop-color="#FFE02F"/>
<stop offset="0.98" stop-color="#FFCF32"/>
<stop offset="1" stop-color="#FFCB33"/>
</linearGradient>
<linearGradient id="paint11_linear" x1="4027.54" y1="-4376.92" x2="4301.47" y2="-4842.04" gradientUnits="userSpaceOnUse">
<stop stop-color="#F4F9FF"/>
<stop offset="0.3" stop-color="#F0F5FE"/>
<stop offset="0.63" stop-color="#E2EBFA"/>
<stop offset="0.97" stop-color="#CCDAF4"/>
<stop offset="1" stop-color="#CAD8F3"/>
</linearGradient>
<linearGradient id="paint12_linear" x1="1104.22" y1="144.892" x2="1104.22" y2="299.718" gradientUnits="userSpaceOnUse">
<stop stop-color="#F4F9FF"/>
<stop offset="0.54" stop-color="#F2F8FE"/>
<stop offset="0.73" stop-color="#EBF2FD"/>
<stop offset="0.87" stop-color="#E0E9F9"/>
<stop offset="0.98" stop-color="#CFDCF4"/>
<stop offset="1" stop-color="#CAD8F3"/>
</linearGradient>
<linearGradient id="paint13_linear" x1="891.346" y1="650.266" x2="891.346" y2="797.927" gradientUnits="userSpaceOnUse">
<stop stop-color="#F4F9FF"/>
<stop offset="0.02" stop-color="#EFF5FE"/>
<stop offset="0.13" stop-color="#DEE8F9"/>
<stop offset="0.27" stop-color="#D3DFF5"/>
<stop offset="0.46" stop-color="#CCD9F4"/>
<stop offset="1" stop-color="#CAD8F3"/>
</linearGradient>
<linearGradient id="paint14_linear" x1="895.562" y1="652.799" x2="895.562" y2="797.479" gradientUnits="userSpaceOnUse">
<stop stop-color="#F4F9FF"/>
<stop offset="1" stop-color="#CAD8F3"/>
</linearGradient>
<linearGradient id="paint15_linear" x1="1147.93" y1="491.973" x2="1147.93" y2="639.104" gradientUnits="userSpaceOnUse">
<stop stop-color="#F4F9FF"/>
<stop offset="0.02" stop-color="#EFF5FE"/>
<stop offset="0.13" stop-color="#DEE8F9"/>
<stop offset="0.27" stop-color="#D3DFF5"/>
<stop offset="0.46" stop-color="#CCD9F4"/>
<stop offset="1" stop-color="#CAD8F3"/>
</linearGradient>
<linearGradient id="paint16_linear" x1="1158.21" y1="493.587" x2="1158.21" y2="638.243" gradientUnits="userSpaceOnUse">
<stop stop-color="#F4F9FF"/>
<stop offset="1" stop-color="#CAD8F3"/>
</linearGradient>
<linearGradient id="paint17_linear" x1="995.697" y1="252.562" x2="995.697" y2="341.125" gradientUnits="userSpaceOnUse">
<stop stop-color="#F4F9FF"/>
<stop offset="1" stop-color="#CAD8F3"/>
</linearGradient>
<linearGradient id="paint18_linear" x1="994.248" y1="253.386" x2="994.248" y2="274.191" gradientUnits="userSpaceOnUse">
<stop stop-color="#CEDDFE"/>
<stop offset="0.44" stop-color="#CBDAFC"/>
<stop offset="0.71" stop-color="#C3D2F6"/>
<stop offset="0.93" stop-color="#B5C4EB"/>
<stop offset="1" stop-color="#AEBDE6"/>
</linearGradient>
<linearGradient id="paint19_linear" x1="1006.22" y1="269.296" x2="1006.22" y2="342.886" gradientUnits="userSpaceOnUse">
<stop stop-color="#CEDDFE"/>
<stop offset="0.44" stop-color="#CBDAFC"/>
<stop offset="0.71" stop-color="#C3D2F6"/>
<stop offset="0.93" stop-color="#B5C4EB"/>
<stop offset="1" stop-color="#AEBDE6"/>
</linearGradient>
<linearGradient id="paint20_linear" x1="1037.94" y1="224.98" x2="1160.1" y2="224.98" gradientUnits="userSpaceOnUse">
<stop stop-color="#CEDDFE"/>
<stop offset="0.44" stop-color="#CBDAFC"/>
<stop offset="0.71" stop-color="#C3D2F6"/>
<stop offset="0.93" stop-color="#B5C4EB"/>
<stop offset="1" stop-color="#AEBDE6"/>
</linearGradient>
<linearGradient id="paint21_linear" x1="1163.98" y1="259.711" x2="1167.5" y2="259.711" gradientUnits="userSpaceOnUse">
<stop stop-color="#CEDDFE"/>
<stop offset="0.44" stop-color="#CBDAFC"/>
<stop offset="0.71" stop-color="#C3D2F6"/>
<stop offset="0.93" stop-color="#B5C4EB"/>
<stop offset="1" stop-color="#AEBDE6"/>
</linearGradient>
<linearGradient id="paint22_linear" x1="1051.35" y1="210.832" x2="1176.99" y2="210.832" gradientUnits="userSpaceOnUse">
<stop stop-color="#CEDDFE"/>
<stop offset="0.44" stop-color="#CBDAFC"/>
<stop offset="0.71" stop-color="#C3D2F6"/>
<stop offset="0.93" stop-color="#B5C4EB"/>
<stop offset="1" stop-color="#AEBDE6"/>
</linearGradient>
<linearGradient id="paint23_linear" x1="1045.96" y1="224.578" x2="1157.39" y2="224.578" gradientUnits="userSpaceOnUse">
<stop stop-color="#F4F9FF"/>
<stop offset="0.54" stop-color="#F2F8FE"/>
<stop offset="0.73" stop-color="#EBF2FD"/>
<stop offset="0.87" stop-color="#E0E9F9"/>
<stop offset="0.98" stop-color="#CFDCF4"/>
<stop offset="1" stop-color="#CAD8F3"/>
</linearGradient>
<linearGradient id="paint24_linear" x1="1267.14" y1="576.624" x2="1286.18" y2="576.624" gradientUnits="userSpaceOnUse">
<stop stop-color="#00366A"/>
<stop offset="0.33" stop-color="#003368"/>
<stop offset="0.57" stop-color="#012A62"/>
<stop offset="0.78" stop-color="#031A57"/>
<stop offset="0.97" stop-color="#050448"/>
<stop offset="1" stop-color="#050046"/>
</linearGradient>
<linearGradient id="paint25_linear" x1="1285.42" y1="524.237" x2="1366.82" y2="524.237" gradientUnits="userSpaceOnUse">
<stop stop-color="#00366A"/>
<stop offset="0.33" stop-color="#003368"/>
<stop offset="0.57" stop-color="#012A62"/>
<stop offset="0.78" stop-color="#031A57"/>
<stop offset="0.97" stop-color="#050448"/>
<stop offset="1" stop-color="#050046"/>
</linearGradient>
<linearGradient id="paint26_linear" x1="1285.42" y1="632.112" x2="1366.82" y2="632.112" gradientUnits="userSpaceOnUse">
<stop stop-color="#CEDDFE"/>
<stop offset="0.44" stop-color="#CBDAFC"/>
<stop offset="0.71" stop-color="#C3D2F6"/>
<stop offset="0.93" stop-color="#B5C4EB"/>
<stop offset="1" stop-color="#AEBDE6"/>
</linearGradient>
<linearGradient id="paint27_linear" x1="1285.42" y1="609.412" x2="1366.82" y2="609.412" gradientUnits="userSpaceOnUse">
<stop stop-color="#F4F9FF"/>
<stop offset="1" stop-color="#CAD8F3"/>
</linearGradient>
<linearGradient id="paint28_linear" x1="1323.24" y1="629.262" x2="1346.07" y2="589.649" gradientUnits="userSpaceOnUse">
<stop stop-color="#F4F9FF"/>
<stop offset="1" stop-color="#CAD8F3"/>
</linearGradient>
<linearGradient id="paint29_linear" x1="1285.42" y1="600.386" x2="1366.82" y2="600.386" gradientUnits="userSpaceOnUse">
<stop stop-color="#CEDDFE"/>
<stop offset="0.44" stop-color="#CBDAFC"/>
<stop offset="0.71" stop-color="#C3D2F6"/>
<stop offset="0.93" stop-color="#B5C4EB"/>
<stop offset="1" stop-color="#AEBDE6"/>
</linearGradient>
<linearGradient id="paint30_linear" x1="1286.8" y1="492.234" x2="1374.43" y2="492.234" gradientUnits="userSpaceOnUse">
<stop stop-color="#CEDDFE"/>
<stop offset="0.44" stop-color="#CBDAFC"/>
<stop offset="0.71" stop-color="#C3D2F6"/>
<stop offset="0.93" stop-color="#B5C4EB"/>
<stop offset="1" stop-color="#AEBDE6"/>
</linearGradient>
<linearGradient id="paint31_linear" x1="1286.71" y1="471.88" x2="1374.34" y2="471.88" gradientUnits="userSpaceOnUse">
<stop stop-color="#F4F9FF"/>
<stop offset="1" stop-color="#CAD8F3"/>
</linearGradient>
<linearGradient id="paint32_linear" x1="1316.45" y1="468.067" x2="1352.67" y2="468.067" gradientUnits="userSpaceOnUse">
<stop stop-color="#CEDDFE"/>
<stop offset="0.44" stop-color="#CBDAFC"/>
<stop offset="0.71" stop-color="#C3D2F6"/>
<stop offset="0.93" stop-color="#B5C4EB"/>
<stop offset="1" stop-color="#AEBDE6"/>
</linearGradient>
<linearGradient id="paint33_linear" x1="1316.45" y1="461.963" x2="1352.67" y2="461.963" gradientUnits="userSpaceOnUse">
<stop stop-color="#F4F9FF"/>
<stop offset="1" stop-color="#CAD8F3"/>
</linearGradient>
<linearGradient id="paint34_linear" x1="1397.95" y1="361.738" x2="1273.82" y2="445.673" gradientUnits="userSpaceOnUse">
<stop stop-color="#00366A"/>
<stop offset="0.33" stop-color="#003368"/>
<stop offset="0.57" stop-color="#012A62"/>
<stop offset="0.78" stop-color="#031A57"/>
<stop offset="0.97" stop-color="#050448"/>
<stop offset="1" stop-color="#050046"/>
</linearGradient>
<linearGradient id="paint35_linear" x1="1368.59" y1="489.151" x2="1450" y2="489.151" gradientUnits="userSpaceOnUse">
<stop stop-color="#00366A"/>
<stop offset="0.33" stop-color="#003368"/>
<stop offset="0.57" stop-color="#012A62"/>
<stop offset="0.78" stop-color="#031A57"/>
<stop offset="0.97" stop-color="#050448"/>
<stop offset="1" stop-color="#050046"/>
</linearGradient>
<linearGradient id="paint36_linear" x1="1368.68" y1="597.271" x2="1450.09" y2="597.271" gradientUnits="userSpaceOnUse">
<stop stop-color="#CEDDFE"/>
<stop offset="0.44" stop-color="#CBDAFC"/>
<stop offset="0.71" stop-color="#C3D2F6"/>
<stop offset="0.93" stop-color="#B5C4EB"/>
<stop offset="1" stop-color="#AEBDE6"/>
</linearGradient>
<linearGradient id="paint37_linear" x1="1368.59" y1="574.544" x2="1450" y2="574.544" gradientUnits="userSpaceOnUse">
<stop stop-color="#F4F9FF"/>
<stop offset="1" stop-color="#CAD8F3"/>
</linearGradient>
<linearGradient id="paint38_linear" x1="1406.64" y1="594.394" x2="1429.47" y2="554.78" gradientUnits="userSpaceOnUse">
<stop stop-color="#F4F9FF"/>
<stop offset="1" stop-color="#CAD8F3"/>
</linearGradient>
<linearGradient id="paint39_linear" x1="1368.68" y1="563.742" x2="1450.09" y2="563.742" gradientUnits="userSpaceOnUse">
<stop stop-color="#CEDDFE"/>
<stop offset="0.44" stop-color="#CBDAFC"/>
<stop offset="0.71" stop-color="#C3D2F6"/>
<stop offset="0.93" stop-color="#B5C4EB"/>
<stop offset="1" stop-color="#AEBDE6"/>
</linearGradient>
<linearGradient id="paint40_linear" x1="1359.19" y1="457.409" x2="1446.85" y2="457.409" gradientUnits="userSpaceOnUse">
<stop stop-color="#CEDDFE"/>
<stop offset="0.44" stop-color="#CBDAFC"/>
<stop offset="0.71" stop-color="#C3D2F6"/>
<stop offset="0.93" stop-color="#B5C4EB"/>
<stop offset="1" stop-color="#AEBDE6"/>
</linearGradient>
<linearGradient id="paint41_linear" x1="1369.96" y1="437.012" x2="1457.59" y2="437.012" gradientUnits="userSpaceOnUse">
<stop stop-color="#F4F9FF"/>
<stop offset="1" stop-color="#CAD8F3"/>
</linearGradient>
<linearGradient id="paint42_linear" x1="1399.84" y1="433.216" x2="1436.06" y2="433.216" gradientUnits="userSpaceOnUse">
<stop stop-color="#CEDDFE"/>
<stop offset="0.44" stop-color="#CBDAFC"/>
<stop offset="0.71" stop-color="#C3D2F6"/>
<stop offset="0.93" stop-color="#B5C4EB"/>
<stop offset="1" stop-color="#AEBDE6"/>
</linearGradient>
<linearGradient id="paint43_linear" x1="1399.84" y1="427.129" x2="1436.06" y2="427.129" gradientUnits="userSpaceOnUse">
<stop stop-color="#F4F9FF"/>
<stop offset="1" stop-color="#CAD8F3"/>
</linearGradient>
<linearGradient id="paint44_linear" x1="1468.21" y1="326.661" x2="1343.99" y2="410.595" gradientUnits="userSpaceOnUse">
<stop stop-color="#00366A"/>
<stop offset="0.33" stop-color="#003368"/>
<stop offset="0.57" stop-color="#012A62"/>
<stop offset="0.78" stop-color="#031A57"/>
<stop offset="0.97" stop-color="#050448"/>
<stop offset="1" stop-color="#050046"/>
</linearGradient>
<linearGradient id="paint45_linear" x1="1449.6" y1="445.377" x2="1531.3" y2="445.377" gradientUnits="userSpaceOnUse">
<stop stop-color="#00366A"/>
<stop offset="0.33" stop-color="#003368"/>
<stop offset="0.57" stop-color="#012A62"/>
<stop offset="0.78" stop-color="#031A57"/>
<stop offset="0.97" stop-color="#050448"/>
<stop offset="1" stop-color="#050046"/>
</linearGradient>
<linearGradient id="paint46_linear" x1="1449.6" y1="552.695" x2="1531.3" y2="552.695" gradientUnits="userSpaceOnUse">
<stop stop-color="#CEDDFE"/>
<stop offset="0.44" stop-color="#CBDAFC"/>
<stop offset="0.71" stop-color="#C3D2F6"/>
<stop offset="0.93" stop-color="#B5C4EB"/>
<stop offset="1" stop-color="#AEBDE6"/>
</linearGradient>
<linearGradient id="paint47_linear" x1="1449.6" y1="530.548" x2="1531.3" y2="530.548" gradientUnits="userSpaceOnUse">
<stop stop-color="#F4F9FF"/>
<stop offset="1" stop-color="#CAD8F3"/>
</linearGradient>
<linearGradient id="paint48_linear" x1="1487.64" y1="550.291" x2="1510.47" y2="510.677" gradientUnits="userSpaceOnUse">
<stop stop-color="#F4F9FF"/>
<stop offset="1" stop-color="#CAD8F3"/>
</linearGradient>
<linearGradient id="paint49_linear" x1="1449.6" y1="519.678" x2="1531.3" y2="519.678" gradientUnits="userSpaceOnUse">
<stop stop-color="#CEDDFE"/>
<stop offset="0.44" stop-color="#CBDAFC"/>
<stop offset="0.71" stop-color="#C3D2F6"/>
<stop offset="0.93" stop-color="#B5C4EB"/>
<stop offset="1" stop-color="#AEBDE6"/>
</linearGradient>
<linearGradient id="paint50_linear" x1="1451.15" y1="412.389" x2="1538.78" y2="412.389" gradientUnits="userSpaceOnUse">
<stop stop-color="#CEDDFE"/>
<stop offset="0.44" stop-color="#CBDAFC"/>
<stop offset="0.71" stop-color="#C3D2F6"/>
<stop offset="0.93" stop-color="#B5C4EB"/>
<stop offset="1" stop-color="#AEBDE6"/>
</linearGradient>
<linearGradient id="paint51_linear" x1="1451.15" y1="392.932" x2="1538.78" y2="392.932" gradientUnits="userSpaceOnUse">
<stop stop-color="#F4F9FF"/>
<stop offset="1" stop-color="#CAD8F3"/>
</linearGradient>
<linearGradient id="paint52_linear" x1="1480.78" y1="389.094" x2="1517" y2="389.094" gradientUnits="userSpaceOnUse">
<stop stop-color="#CEDDFE"/>
<stop offset="0.44" stop-color="#CBDAFC"/>
<stop offset="0.71" stop-color="#C3D2F6"/>
<stop offset="0.93" stop-color="#B5C4EB"/>
<stop offset="1" stop-color="#AEBDE6"/>
</linearGradient>
<linearGradient id="paint53_linear" x1="1480.87" y1="382.924" x2="1517.09" y2="382.924" gradientUnits="userSpaceOnUse">
<stop stop-color="#F4F9FF"/>
<stop offset="1" stop-color="#CAD8F3"/>
</linearGradient>
<linearGradient id="paint54_linear" x1="1561.73" y1="282.734" x2="1437.85" y2="366.995" gradientUnits="userSpaceOnUse">
<stop stop-color="#00366A"/>
<stop offset="0.33" stop-color="#003368"/>
<stop offset="0.57" stop-color="#012A62"/>
<stop offset="0.78" stop-color="#031A57"/>
<stop offset="0.97" stop-color="#050448"/>
<stop offset="1" stop-color="#050046"/>
</linearGradient>
<linearGradient id="paint55_linear" x1="1068.41" y1="133.81" x2="1439.01" y2="133.81" gradientUnits="userSpaceOnUse">
<stop stop-color="#00366A"/>
<stop offset="0.33" stop-color="#003368"/>
<stop offset="0.57" stop-color="#012A62"/>
<stop offset="0.78" stop-color="#031A57"/>
<stop offset="0.97" stop-color="#050448"/>
<stop offset="1" stop-color="#050046"/>
</linearGradient>
<linearGradient id="paint56_linear" x1="1259.47" y1="40.2446" x2="1259.47" y2="241.484" gradientUnits="userSpaceOnUse">
<stop stop-color="#00366A"/>
<stop offset="0.33" stop-color="#003368"/>
<stop offset="0.57" stop-color="#012A62"/>
<stop offset="0.78" stop-color="#031A57"/>
<stop offset="0.97" stop-color="#050448"/>
<stop offset="1" stop-color="#050046"/>
</linearGradient>
<linearGradient id="paint57_linear" x1="1247.32" y1="140.837" x2="1225.67" y2="102.924" gradientUnits="userSpaceOnUse">
<stop stop-color="#BAF281" stop-opacity="0"/>
<stop offset="0.38" stop-color="#B9F281" stop-opacity="0.01"/>
<stop offset="0.52" stop-color="#B5F081" stop-opacity="0.04"/>
<stop offset="0.62" stop-color="#AEEE82" stop-opacity="0.1"/>
<stop offset="0.7" stop-color="#A5EB82" stop-opacity="0.18"/>
<stop offset="0.76" stop-color="#98E782" stop-opacity="0.29"/>
<stop offset="0.82" stop-color="#88E283" stop-opacity="0.42"/>
<stop offset="0.88" stop-color="#76DC84" stop-opacity="0.58"/>
<stop offset="0.93" stop-color="#60D585" stop-opacity="0.77"/>
<stop offset="0.97" stop-color="#49CD86" stop-opacity="0.97"/>
<stop offset="0.98" stop-color="#45CC86"/>
</linearGradient>
<linearGradient id="paint58_linear" x1="1149.31" y1="112.495" x2="1284.02" y2="112.495" gradientUnits="userSpaceOnUse">
<stop stop-color="#BAF281"/>
<stop offset="0.39" stop-color="#B8F181"/>
<stop offset="0.55" stop-color="#B1EF81"/>
<stop offset="0.67" stop-color="#A5EB82"/>
<stop offset="0.76" stop-color="#93E583"/>
<stop offset="0.85" stop-color="#7CDE84"/>
<stop offset="0.92" stop-color="#61D585"/>
<stop offset="0.98" stop-color="#45CC86"/>
</linearGradient>
<linearGradient id="paint59_linear" x1="1221.07" y1="100.801" x2="1258.6" y2="138.595" gradientUnits="userSpaceOnUse">
<stop stop-color="#4C68EF" stop-opacity="0.99"/>
<stop offset="0.08" stop-color="#4C68EF" stop-opacity="0.79"/>
<stop offset="0.15" stop-color="#4C68EF" stop-opacity="0.6"/>
<stop offset="0.24" stop-color="#4C68EF" stop-opacity="0.44"/>
<stop offset="0.32" stop-color="#4C68EF" stop-opacity="0.3"/>
<stop offset="0.42" stop-color="#4C68EF" stop-opacity="0.19"/>
<stop offset="0.52" stop-color="#4C68EF" stop-opacity="0.11"/>
<stop offset="0.64" stop-color="#4C68EF" stop-opacity="0.05"/>
<stop offset="0.77" stop-color="#4C68EF" stop-opacity="0.01"/>
<stop offset="1" stop-color="#4C68EF" stop-opacity="0"/>
</linearGradient>
<linearGradient id="paint60_linear" x1="1274.51" y1="196.328" x2="1250.19" y2="172.005" gradientUnits="userSpaceOnUse">
<stop stop-color="#BAF281"/>
<stop offset="0.39" stop-color="#B8F181"/>
<stop offset="0.55" stop-color="#B1EF81"/>
<stop offset="0.67" stop-color="#A5EB82"/>
<stop offset="0.76" stop-color="#93E583"/>
<stop offset="0.85" stop-color="#7CDE84"/>
<stop offset="0.92" stop-color="#61D585"/>
<stop offset="0.98" stop-color="#45CC86"/>
</linearGradient>
<linearGradient id="paint61_linear" x1="1244.72" y1="186.779" x2="1279.12" y2="186.779" gradientUnits="userSpaceOnUse">
<stop stop-color="#FFF52A"/>
<stop offset="0.03" stop-color="#FFF02B"/>
<stop offset="0.14" stop-color="#FFDF2F"/>
<stop offset="0.27" stop-color="#FFD431"/>
<stop offset="0.47" stop-color="#FFCD33"/>
<stop offset="1" stop-color="#FFCB33"/>
</linearGradient>
<linearGradient id="paint62_linear" x1="1285.15" y1="160.784" x2="1319.56" y2="160.784" gradientUnits="userSpaceOnUse">
<stop stop-color="#BAF281"/>
<stop offset="0.39" stop-color="#B8F181"/>
<stop offset="0.55" stop-color="#B1EF81"/>
<stop offset="0.67" stop-color="#A5EB82"/>
<stop offset="0.76" stop-color="#93E583"/>
<stop offset="0.85" stop-color="#7CDE84"/>
<stop offset="0.92" stop-color="#61D585"/>
<stop offset="0.98" stop-color="#45CC86"/>
</linearGradient>
<linearGradient id="paint63_linear" x1="1280.84" y1="156.21" x2="1315.3" y2="156.21" gradientUnits="userSpaceOnUse">
<stop stop-color="#FFF52A"/>
<stop offset="0.03" stop-color="#FFF02B"/>
<stop offset="0.14" stop-color="#FFDF2F"/>
<stop offset="0.27" stop-color="#FFD431"/>
<stop offset="0.47" stop-color="#FFCD33"/>
<stop offset="1" stop-color="#FFCB33"/>
</linearGradient>
<linearGradient id="paint64_linear" x1="1358.15" y1="142.887" x2="1334.01" y2="118.626" gradientUnits="userSpaceOnUse">
<stop stop-color="#BAF281"/>
<stop offset="0.39" stop-color="#B8F181"/>
<stop offset="0.55" stop-color="#B1EF81"/>
<stop offset="0.67" stop-color="#A5EB82"/>
<stop offset="0.76" stop-color="#93E583"/>
<stop offset="0.85" stop-color="#7CDE84"/>
<stop offset="0.92" stop-color="#61D585"/>
<stop offset="0.98" stop-color="#45CC86"/>
</linearGradient>
<linearGradient id="paint65_linear" x1="1324.21" y1="135.386" x2="1358.62" y2="135.386" gradientUnits="userSpaceOnUse">
<stop stop-color="#FFF52A"/>
<stop offset="0.03" stop-color="#FFF02B"/>
<stop offset="0.14" stop-color="#FFDF2F"/>
<stop offset="0.27" stop-color="#FFD431"/>
<stop offset="0.47" stop-color="#FFCD33"/>
<stop offset="1" stop-color="#FFCB33"/>
</linearGradient>
<linearGradient id="paint66_linear" x1="1294.95" y1="284.221" x2="1459.39" y2="284.221" gradientUnits="userSpaceOnUse">
<stop stop-color="#F4F9FF"/>
<stop offset="0.3" stop-color="#F0F5FE"/>
<stop offset="0.63" stop-color="#E2EBFA"/>
<stop offset="0.97" stop-color="#CCDAF4"/>
<stop offset="1" stop-color="#CAD8F3"/>
</linearGradient>
<linearGradient id="paint67_linear" x1="1306.32" y1="283.729" x2="1461.32" y2="283.729" gradientUnits="userSpaceOnUse">
<stop stop-color="#00366A"/>
<stop offset="0.33" stop-color="#003368"/>
<stop offset="0.57" stop-color="#012A62"/>
<stop offset="0.78" stop-color="#031A57"/>
<stop offset="0.97" stop-color="#050448"/>
<stop offset="1" stop-color="#050046"/>
</linearGradient>
<linearGradient id="paint68_linear" x1="1326.4" y1="312.244" x2="1335.86" y2="312.244" gradientUnits="userSpaceOnUse">
<stop stop-color="#BAF281"/>
<stop offset="0.39" stop-color="#B8F181"/>
<stop offset="0.55" stop-color="#B1EF81"/>
<stop offset="0.67" stop-color="#A5EB82"/>
<stop offset="0.76" stop-color="#93E583"/>
<stop offset="0.85" stop-color="#7CDE84"/>
<stop offset="0.92" stop-color="#61D585"/>
<stop offset="0.98" stop-color="#45CC86"/>
</linearGradient>
<linearGradient id="paint69_linear" x1="1156.29" y1="517.937" x2="1165.75" y2="517.937" gradientUnits="userSpaceOnUse">
<stop stop-color="#00366A"/>
<stop offset="0.33" stop-color="#003368"/>
<stop offset="0.57" stop-color="#012A62"/>
<stop offset="0.78" stop-color="#031A57"/>
<stop offset="0.97" stop-color="#050448"/>
<stop offset="1" stop-color="#050046"/>
</linearGradient>
<linearGradient id="paint70_linear" x1="880.472" y1="670.655" x2="889.931" y2="670.655" gradientUnits="userSpaceOnUse">
<stop stop-color="#00366A"/>
<stop offset="0.33" stop-color="#003368"/>
<stop offset="0.57" stop-color="#012A62"/>
<stop offset="0.78" stop-color="#031A57"/>
<stop offset="0.97" stop-color="#050448"/>
<stop offset="1" stop-color="#050046"/>
</linearGradient>
<linearGradient id="paint71_linear" x1="1347.35" y1="293.443" x2="1356.81" y2="293.443" gradientUnits="userSpaceOnUse">
<stop stop-color="#BAF281"/>
<stop offset="0.39" stop-color="#B8F181"/>
<stop offset="0.55" stop-color="#B1EF81"/>
<stop offset="0.67" stop-color="#A5EB82"/>
<stop offset="0.76" stop-color="#93E583"/>
<stop offset="0.85" stop-color="#7CDE84"/>
<stop offset="0.92" stop-color="#61D585"/>
<stop offset="0.98" stop-color="#45CC86"/>
</linearGradient>
<linearGradient id="paint72_linear" x1="1384.57" y1="276.409" x2="1394.03" y2="276.409" gradientUnits="userSpaceOnUse">
<stop stop-color="#BAF281"/>
<stop offset="0.39" stop-color="#B8F181"/>
<stop offset="0.55" stop-color="#B1EF81"/>
<stop offset="0.67" stop-color="#A5EB82"/>
<stop offset="0.76" stop-color="#93E583"/>
<stop offset="0.85" stop-color="#7CDE84"/>
<stop offset="0.92" stop-color="#61D585"/>
<stop offset="0.98" stop-color="#45CC86"/>
</linearGradient>
<linearGradient id="paint73_linear" x1="1411.38" y1="258.119" x2="1420.87" y2="258.119" gradientUnits="userSpaceOnUse">
<stop stop-color="#BAF281"/>
<stop offset="0.39" stop-color="#B8F181"/>
<stop offset="0.55" stop-color="#B1EF81"/>
<stop offset="0.67" stop-color="#A5EB82"/>
<stop offset="0.76" stop-color="#93E583"/>
<stop offset="0.85" stop-color="#7CDE84"/>
<stop offset="0.92" stop-color="#61D585"/>
<stop offset="0.98" stop-color="#45CC86"/>
</linearGradient>
<linearGradient id="paint74_linear" x1="1285.42" y1="574.367" x2="1366.82" y2="574.367" gradientUnits="userSpaceOnUse">
<stop stop-color="#00AEE9"/>
<stop offset="1" stop-color="#93E0FF"/>
</linearGradient>
<linearGradient id="paint75_linear" x1="1297.18" y1="531.618" x2="1371.22" y2="544.841" gradientUnits="userSpaceOnUse">
<stop stop-color="#00AEE9"/>
<stop offset="0.628125" stop-color="#73DCFF"/>
</linearGradient>
<linearGradient id="paint76_linear" x1="1368.87" y1="539.497" x2="1450.28" y2="539.497" gradientUnits="userSpaceOnUse">
<stop stop-color="#4C68EF"/>
<stop offset="1" stop-color="#0097D5"/>
</linearGradient>
<linearGradient id="paint77_linear" x1="1449.7" y1="494.334" x2="1531.1" y2="494.334" gradientUnits="userSpaceOnUse">
<stop stop-color="#FFCB33"/>
<stop offset="1" stop-color="#FFF865"/>
</linearGradient>
<linearGradient id="paint78_linear" x1="1226.91" y1="250.763" x2="1226.91" y2="622.57" gradientUnits="userSpaceOnUse">
<stop stop-color="#F4F9FF"/>
<stop offset="1" stop-color="#CAD8F3"/>
</linearGradient>
<linearGradient id="paint79_linear" x1="1.248e-07" y1="57.8596" x2="537.54" y2="72.5031" gradientUnits="userSpaceOnUse">
<stop stop-color="#4C68EF"/>
<stop offset="1" stop-color="#879CFF"/>
</linearGradient>
</defs>
</svg>
