<svg width="1680" height="786" viewBox="0 0 1680 786" fill="none" xmlns="http://www.w3.org/2000/svg">
<rect width="1680" height="786" fill="white"/>
<rect width="1538" height="234" transform="matrix(1 0 0 -1 142 418)" fill="url(#paint0_linear)"/>
<g filter="url(#filter0_f)">
<path d="M253.1 319L250.58 308.57H236.44L233.99 319H222.09L236.72 270.49H250.65L265.28 319H253.1ZM238.4 300.24H248.62L243.51 278.82L238.4 300.24ZM289.629 280.64C294.296 280.64 297.772 282.367 300.059 285.82C302.346 289.273 303.489 294.103 303.489 300.31C303.489 304.137 302.882 307.567 301.669 310.6C300.502 313.587 298.799 315.943 296.559 317.67C294.319 319.35 291.706 320.19 288.719 320.19C284.986 320.19 281.976 318.907 279.689 316.34V333.35L268.629 334.54V281.83H278.359L278.919 285.96C280.366 284.14 282.022 282.81 283.889 281.97C285.756 281.083 287.669 280.64 289.629 280.64ZM285.359 312.07C289.792 312.07 292.009 308.197 292.009 300.45C292.009 296.063 291.519 293.03 290.539 291.35C289.559 289.623 288.089 288.76 286.129 288.76C284.869 288.76 283.679 289.133 282.559 289.88C281.486 290.627 280.529 291.7 279.689 293.1V308.78C281.182 310.973 283.072 312.07 285.359 312.07ZM331.397 280.64C336.063 280.64 339.54 282.367 341.827 285.82C344.113 289.273 345.257 294.103 345.257 300.31C345.257 304.137 344.65 307.567 343.437 310.6C342.27 313.587 340.567 315.943 338.327 317.67C336.087 319.35 333.473 320.19 330.487 320.19C326.753 320.19 323.743 318.907 321.457 316.34V333.35L310.397 334.54V281.83H320.127L320.687 285.96C322.133 284.14 323.79 282.81 325.657 281.97C327.523 281.083 329.437 280.64 331.397 280.64ZM327.127 312.07C331.56 312.07 333.777 308.197 333.777 300.45C333.777 296.063 333.287 293.03 332.307 291.35C331.327 289.623 329.857 288.76 327.897 288.76C326.637 288.76 325.447 289.133 324.327 289.88C323.253 290.627 322.297 291.7 321.457 293.1V308.78C322.95 310.973 324.84 312.07 327.127 312.07ZM362.034 320.19C358.814 320.19 356.294 319.28 354.474 317.46C352.701 315.593 351.814 312.957 351.814 309.55V267.06L362.874 265.87V309.13C362.874 310.67 363.504 311.44 364.764 311.44C365.418 311.44 366.024 311.323 366.584 311.09L368.754 318.93C366.748 319.77 364.508 320.19 362.034 320.19ZM392.772 319.07C391.279 323.877 388.829 327.563 385.422 330.13C382.062 332.743 377.535 334.213 371.842 334.54L370.652 326.77C374.199 326.303 376.812 325.51 378.492 324.39C380.219 323.27 381.595 321.473 382.622 319H378.842L367.502 281.83H379.262L385.912 311.93L393.192 281.83H404.602L392.772 319.07ZM462.694 319H448.064L434.064 281.41C434.53 285.097 434.88 288.363 435.114 291.21C435.394 294.01 435.534 297.347 435.534 301.22V319H425.314V270.49H439.594L453.944 308.15C452.917 301.757 452.404 295.737 452.404 290.09V270.49H462.694V319ZM487.62 280.64C493.313 280.64 497.77 282.39 500.99 285.89C504.21 289.343 505.82 294.197 505.82 300.45C505.82 304.417 505.073 307.893 503.58 310.88C502.133 313.82 500.033 316.107 497.28 317.74C494.573 319.373 491.353 320.19 487.62 320.19C481.973 320.19 477.516 318.463 474.25 315.01C471.03 311.51 469.42 306.633 469.42 300.38C469.42 296.413 470.143 292.96 471.59 290.02C473.083 287.033 475.183 284.723 477.89 283.09C480.643 281.457 483.886 280.64 487.62 280.64ZM487.62 288.76C485.38 288.76 483.7 289.717 482.58 291.63C481.46 293.497 480.9 296.413 480.9 300.38C480.9 304.44 481.436 307.403 482.51 309.27C483.63 311.137 485.333 312.07 487.62 312.07C489.86 312.07 491.54 311.137 492.66 309.27C493.78 307.357 494.34 304.417 494.34 300.45C494.34 296.39 493.78 293.427 492.66 291.56C491.586 289.693 489.906 288.76 487.62 288.76ZM560.139 281.83L552.439 319H539.209L534.239 291.7L529.339 319H516.249L508.339 281.83H519.539L523.389 310.74L529.199 281.83H539.979L545.089 310.74L549.569 281.83H560.139ZM575.317 270.49L573.917 301.15H564.957L563.557 270.49H575.317ZM569.437 307.52C571.21 307.52 572.704 308.15 573.917 309.41C575.177 310.623 575.807 312.093 575.807 313.82C575.807 315.593 575.177 317.11 573.917 318.37C572.704 319.583 571.21 320.19 569.437 320.19C567.71 320.19 566.217 319.583 564.957 318.37C563.744 317.11 563.137 315.593 563.137 313.82C563.137 312.093 563.744 310.623 564.957 309.41C566.217 308.15 567.71 307.52 569.437 307.52Z" fill="white"/>
</g>
<path d="M253.1 319L250.58 308.57H236.44L233.99 319H222.09L236.72 270.49H250.65L265.28 319H253.1ZM238.4 300.24H248.62L243.51 278.82L238.4 300.24ZM289.629 280.64C294.296 280.64 297.772 282.367 300.059 285.82C302.346 289.273 303.489 294.103 303.489 300.31C303.489 304.137 302.882 307.567 301.669 310.6C300.502 313.587 298.799 315.943 296.559 317.67C294.319 319.35 291.706 320.19 288.719 320.19C284.986 320.19 281.976 318.907 279.689 316.34V333.35L268.629 334.54V281.83H278.359L278.919 285.96C280.366 284.14 282.022 282.81 283.889 281.97C285.756 281.083 287.669 280.64 289.629 280.64ZM285.359 312.07C289.792 312.07 292.009 308.197 292.009 300.45C292.009 296.063 291.519 293.03 290.539 291.35C289.559 289.623 288.089 288.76 286.129 288.76C284.869 288.76 283.679 289.133 282.559 289.88C281.486 290.627 280.529 291.7 279.689 293.1V308.78C281.182 310.973 283.072 312.07 285.359 312.07ZM331.397 280.64C336.063 280.64 339.54 282.367 341.827 285.82C344.113 289.273 345.257 294.103 345.257 300.31C345.257 304.137 344.65 307.567 343.437 310.6C342.27 313.587 340.567 315.943 338.327 317.67C336.087 319.35 333.473 320.19 330.487 320.19C326.753 320.19 323.743 318.907 321.457 316.34V333.35L310.397 334.54V281.83H320.127L320.687 285.96C322.133 284.14 323.79 282.81 325.657 281.97C327.523 281.083 329.437 280.64 331.397 280.64ZM327.127 312.07C331.56 312.07 333.777 308.197 333.777 300.45C333.777 296.063 333.287 293.03 332.307 291.35C331.327 289.623 329.857 288.76 327.897 288.76C326.637 288.76 325.447 289.133 324.327 289.88C323.253 290.627 322.297 291.7 321.457 293.1V308.78C322.95 310.973 324.84 312.07 327.127 312.07ZM362.034 320.19C358.814 320.19 356.294 319.28 354.474 317.46C352.701 315.593 351.814 312.957 351.814 309.55V267.06L362.874 265.87V309.13C362.874 310.67 363.504 311.44 364.764 311.44C365.418 311.44 366.024 311.323 366.584 311.09L368.754 318.93C366.748 319.77 364.508 320.19 362.034 320.19ZM392.772 319.07C391.279 323.877 388.829 327.563 385.422 330.13C382.062 332.743 377.535 334.213 371.842 334.54L370.652 326.77C374.199 326.303 376.812 325.51 378.492 324.39C380.219 323.27 381.595 321.473 382.622 319H378.842L367.502 281.83H379.262L385.912 311.93L393.192 281.83H404.602L392.772 319.07ZM462.694 319H448.064L434.064 281.41C434.53 285.097 434.88 288.363 435.114 291.21C435.394 294.01 435.534 297.347 435.534 301.22V319H425.314V270.49H439.594L453.944 308.15C452.917 301.757 452.404 295.737 452.404 290.09V270.49H462.694V319ZM487.62 280.64C493.313 280.64 497.77 282.39 500.99 285.89C504.21 289.343 505.82 294.197 505.82 300.45C505.82 304.417 505.073 307.893 503.58 310.88C502.133 313.82 500.033 316.107 497.28 317.74C494.573 319.373 491.353 320.19 487.62 320.19C481.973 320.19 477.516 318.463 474.25 315.01C471.03 311.51 469.42 306.633 469.42 300.38C469.42 296.413 470.143 292.96 471.59 290.02C473.083 287.033 475.183 284.723 477.89 283.09C480.643 281.457 483.886 280.64 487.62 280.64ZM487.62 288.76C485.38 288.76 483.7 289.717 482.58 291.63C481.46 293.497 480.9 296.413 480.9 300.38C480.9 304.44 481.436 307.403 482.51 309.27C483.63 311.137 485.333 312.07 487.62 312.07C489.86 312.07 491.54 311.137 492.66 309.27C493.78 307.357 494.34 304.417 494.34 300.45C494.34 296.39 493.78 293.427 492.66 291.56C491.586 289.693 489.906 288.76 487.62 288.76ZM560.139 281.83L552.439 319H539.209L534.239 291.7L529.339 319H516.249L508.339 281.83H519.539L523.389 310.74L529.199 281.83H539.979L545.089 310.74L549.569 281.83H560.139ZM575.317 270.49L573.917 301.15H564.957L563.557 270.49H575.317ZM569.437 307.52C571.21 307.52 572.704 308.15 573.917 309.41C575.177 310.623 575.807 312.093 575.807 313.82C575.807 315.593 575.177 317.11 573.917 318.37C572.704 319.583 571.21 320.19 569.437 320.19C567.71 320.19 566.217 319.583 564.957 318.37C563.744 317.11 563.137 315.593 563.137 313.82C563.137 312.093 563.744 310.623 564.957 309.41C566.217 308.15 567.71 307.52 569.437 307.52Z" fill="white"/>
<g opacity="0.55">
<path opacity="0.55" d="M1312.15 236.661C1317.27 240.012 1320.48 245.601 1320.8 251.708L1320.1 421.095C1320.1 426.65 1316.09 428.83 1311.31 426.088L1123.01 317.381C1117.9 314.022 1114.69 308.438 1114.36 302.334L1114.85 132.947C1114.85 127.463 1118.79 125.212 1123.57 127.955L1312.15 236.661Z" fill="url(#paint1_linear)"/>
</g>
<g opacity="0.42">
<path opacity="0.42" d="M1312.15 236.661C1317.27 240.012 1320.48 245.601 1320.8 251.708L1320.1 421.095C1320.1 426.65 1316.09 428.83 1311.31 426.088L1123.01 317.381C1117.9 314.022 1114.69 308.438 1114.36 302.334L1114.85 132.947C1114.85 127.463 1118.79 125.212 1123.57 127.955L1312.15 236.661Z" fill="url(#paint2_linear)"/>
</g>
<g opacity="0.42">
<path opacity="0.42" d="M1301.74 241.158C1306.86 244.509 1310.07 250.098 1310.39 256.205L1309.97 425.592C1309.97 431.077 1306.03 433.327 1301.18 430.585L1112.88 321.879C1107.77 318.519 1104.56 312.935 1104.23 306.831L1104.72 137.444C1104.72 131.96 1108.66 129.71 1113.44 132.452L1301.74 241.158Z" fill="url(#paint3_linear)"/>
</g>
<path d="M1291.62 246.082C1296.74 249.442 1299.97 255.019 1300.34 261.129L1299.85 430.517C1299.85 436.071 1295.91 438.251 1291.06 435.509L1102.82 326.803C1097.67 323.475 1094.43 317.879 1094.11 311.756L1094.6 142.368C1094.6 136.884 1098.54 134.634 1103.32 137.376L1291.62 246.082Z" fill="url(#paint4_linear)"/>
<g opacity="0.41">
<path opacity="0.41" d="M1231.57 266.397C1246.45 276.097 1255.81 292.322 1256.74 310.062C1256.74 326.094 1245.35 332.563 1231.36 324.547C1216.48 314.847 1207.12 298.622 1206.19 280.882C1206.26 264.639 1217.58 258.17 1231.57 266.397ZM1231.57 317.797C1220.11 310.359 1212.9 297.895 1212.16 284.257C1212.16 271.952 1220.95 266.96 1231.64 273.147C1243.1 280.585 1250.31 293.049 1251.05 306.687C1251.05 318.992 1242.26 323.984 1231.57 317.797Z" fill="url(#paint5_linear)"/>
</g>
<path d="M1183.26 273.434C1183.46 273.145 1183.62 272.839 1183.76 272.52V272.168C1183.76 272.168 1183.76 271.536 1184.11 271.254V270.832C1184.15 270.529 1184.15 270.222 1184.11 269.918C1184.15 269.757 1184.15 269.587 1184.11 269.426C1184.14 269.146 1184.14 268.863 1184.11 268.582C1184.08 268.302 1184.11 268.16 1184.11 268.02V267.106C1184.14 266.896 1184.14 266.683 1184.11 266.473C1184.15 266.146 1184.15 265.815 1184.11 265.488C1184.14 265.303 1184.14 265.112 1184.11 264.926C1184.07 264.74 1184.11 264.153 1184.11 263.801V263.309C1184.15 262.723 1184.15 262.136 1184.11 261.551C1184.11 260.496 1184.11 259.371 1184.11 258.176V256.488C1183.9 254.738 1183.6 253.001 1183.19 251.285C1179.87 237.402 1172 225.028 1160.83 216.128C1159.49 215.079 1158.08 214.117 1156.62 213.245V216.339C1142.55 208.253 1131.3 214.722 1131.23 230.402V231.245L1128.56 229.699C1129.94 249.046 1140.36 266.61 1156.69 277.091C1167.37 283.278 1176.73 281.731 1181.44 274.348L1183.26 273.434ZM1138.62 234.832L1142.55 237.152C1143.41 247.692 1149.1 257.243 1157.95 263.028C1160.98 265.186 1164.88 265.688 1168.36 264.364L1169.48 263.731L1170.47 262.887L1171.31 261.902L1171.94 260.848C1172.15 260.493 1172.32 260.115 1172.44 259.723C1172.44 259.723 1172.44 258.949 1172.44 258.598C1172.44 258.246 1172.44 258.598 1172.44 258.176C1172.47 257.755 1172.47 257.332 1172.44 256.91C1172.47 256.772 1172.47 256.627 1172.44 256.488C1172.47 255.88 1172.47 255.269 1172.44 254.66C1172.38 251.835 1171.88 249.035 1170.96 246.363C1169.64 242.258 1167.59 238.423 1164.91 235.042L1163.72 233.636C1162.61 232.377 1161.41 231.202 1160.13 230.121C1159.13 229.323 1158.07 228.594 1156.97 227.941V223.441C1146.28 217.253 1137.56 222.175 1137.49 234.55C1138.54 234.409 1138.62 234.691 1138.62 234.972V234.832Z" fill="url(#paint6_linear)"/>
<g opacity="0.54">
<path opacity="0.54" d="M1145.79 220.697C1160.69 230.351 1170.08 246.558 1171.03 264.292C1171.03 280.394 1159.57 286.863 1145.65 278.777C1130.74 269.093 1121.35 252.864 1120.4 235.112C1120.47 219.08 1131.86 212.611 1145.79 220.697ZM1145.79 272.027C1134.34 264.589 1127.15 252.119 1126.45 238.487C1126.45 226.182 1135.17 221.26 1145.93 227.448C1157.36 234.863 1164.55 247.307 1165.26 260.917C1165.26 273.292 1156.54 278.214 1145.79 272.027Z" fill="url(#paint7_linear)"/>
</g>
<path d="M1145.79 217.604C1162.37 228.225 1172.84 246.174 1173.91 265.84C1173.91 283.559 1161.33 290.731 1145.79 281.801C1129.47 271.321 1119.04 253.757 1117.66 234.409L1130.11 241.441C1130.97 251.981 1136.65 261.532 1145.51 267.316C1154.08 272.238 1161.05 268.301 1161.05 258.457C1160.5 247.595 1154.77 237.657 1145.65 231.737L1145.79 217.604Z" fill="url(#paint8_linear)"/>
<path d="M1145.79 217.604V231.667C1154.91 237.587 1160.64 247.525 1161.19 258.386C1161.65 262.485 1159.67 266.477 1156.12 268.582L1164 284.262C1170.76 280.61 1174.58 273.183 1173.63 265.559C1172.53 246.047 1162.19 228.231 1145.79 217.604Z" fill="url(#paint9_linear)"/>
<path opacity="0.11" d="M1196.98 318.291V321.807L1240.22 346.768V343.252L1196.98 318.291Z" fill="url(#paint10_linear)"/>
<path opacity="0.11" d="M1196.98 324.97V328.485L1226.58 345.572V342.056L1196.98 324.97Z" fill="url(#paint11_linear)"/>
<path opacity="0.11" d="M1196.98 332.848V336.363L1234.81 358.231V354.715L1196.98 332.848Z" fill="url(#paint12_linear)"/>
<path opacity="0.11" d="M1196.98 340.44V343.886L1240.22 368.918V365.402L1196.98 340.44Z" fill="url(#paint13_linear)"/>
<path d="M1192.12 321.249V324.765L1235.37 349.727V346.211L1192.12 321.249Z" fill="white"/>
<path d="M1192.12 327.923V331.439L1221.73 348.526V345.01L1192.12 327.923Z" fill="white"/>
<path d="M1192.12 335.868V339.313L1229.95 361.181V357.665L1192.12 335.868Z" fill="white"/>
<path d="M1192.12 343.395V346.911L1235.37 371.872V368.356L1192.12 343.395Z" fill="white"/>
<path opacity="0.11" d="M1165.76 305.214L1165.69 308.729L1176.51 314.987V311.471L1165.76 305.214Z" fill="url(#paint14_linear)"/>
<path opacity="0.11" d="M1120.26 279.197V282.712L1163.51 307.674V304.158L1120.26 279.197Z" fill="url(#paint15_linear)"/>
<path opacity="0.11" d="M1152.26 304.577V308.093L1176.51 322.085V318.57L1152.26 304.577Z" fill="url(#paint16_linear)"/>
<path opacity="0.11" d="M1120.26 285.879V289.395L1149.86 306.481V302.965L1120.26 285.879Z" fill="url(#paint17_linear)"/>
<path opacity="0.11" d="M1160.2 316.744V320.26L1176.52 329.682V326.166L1160.2 316.744Z" fill="url(#paint18_linear)"/>
<path opacity="0.11" d="M1120.26 293.754V297.27L1158.09 319.137V315.622L1120.26 293.754Z" fill="url(#paint19_linear)"/>
<path opacity="0.11" d="M1165.76 327.428L1165.69 330.943L1176.51 337.201V333.686L1165.76 327.428Z" fill="url(#paint20_linear)"/>
<path opacity="0.11" d="M1120.26 301.349V304.795L1163.51 329.756V326.311L1120.26 301.349Z" fill="url(#paint21_linear)"/>
<path d="M1160.83 308.168V311.684L1171.66 317.942V314.426L1160.83 308.168Z" fill="url(#paint22_linear)"/>
<path d="M1115.41 282.15V285.666L1158.65 310.628V307.112L1115.41 282.15Z" fill="white"/>
<path d="M1147.4 307.537V311.052L1171.66 325.045V321.599L1147.4 307.537Z" fill="url(#paint23_linear)"/>
<path d="M1115.41 288.83V292.346L1145.01 309.432V305.916L1115.41 288.83Z" fill="white"/>
<path d="M1155.35 319.696V323.212L1171.66 332.634V329.118L1155.35 319.696Z" fill="url(#paint24_linear)"/>
<path d="M1115.41 296.776V300.221L1153.24 322.089V318.573L1115.41 296.776Z" fill="white"/>
<path d="M1160.83 330.388V333.903L1171.66 340.161V336.646L1160.83 330.388Z" fill="url(#paint25_linear)"/>
<path d="M1115.41 304.302V307.818L1158.65 332.78V329.264L1115.41 304.302Z" fill="white"/>
<path d="M1142.48 184.274V189.969L1169.2 205.438V199.672L1142.48 184.274Z" fill="url(#paint26_linear)"/>
<path d="M1139.74 185.818V191.584L1166.46 206.983V201.217L1139.74 185.818Z" fill="url(#paint27_linear)"/>
<path d="M1136.37 433.255C1130.13 431.492 1123.64 430.779 1117.17 431.146C1113.37 432.833 1120.26 434.943 1119.77 437.404C1119.28 439.865 1094.53 452.24 1096.36 457.162C1098.18 462.084 1109.15 454.771 1109.15 454.771C1109.15 454.771 1102.9 459.623 1103.67 461.803C1104.44 463.983 1112.81 459.834 1112.81 459.834C1112.81 459.834 1109.29 462.998 1110.35 464.053C1111.4 465.108 1117.38 460.889 1117.38 460.889C1117.38 460.889 1114.5 463.209 1114.92 464.264C1122.59 460.796 1130.02 456.802 1137.14 452.311L1140.23 444.716L1136.37 433.255Z" fill="url(#paint28_linear)"/>
<path d="M1249.85 677.805C1249.85 677.805 1253.23 694.47 1249.85 701.994C1249.09 704.686 1247.27 706.954 1244.8 708.279C1242.34 709.604 1239.44 709.873 1236.77 709.025C1229.49 707.55 1222.05 707.006 1214.62 707.407C1208.72 708.532 1191.56 709.939 1189.52 705.368C1188.24 703.403 1187.88 700.98 1188.53 698.727C1189.18 696.474 1190.77 694.613 1192.9 693.626C1197.96 691.165 1213.29 691.165 1217.15 689.618C1221.02 688.071 1226.3 680.196 1226.3 680.196L1245.91 679.071L1249.85 677.805Z" fill="url(#paint29_linear)"/>
<path d="M1288.6 659.438C1288.6 659.438 1291.98 676.102 1288.6 683.626C1287.84 686.318 1286.02 688.586 1283.55 689.912C1281.09 691.237 1278.19 691.506 1275.52 690.657C1268.24 689.183 1260.8 688.639 1253.37 689.04C1247.47 690.165 1230.31 691.571 1228.27 687.001C1226.99 685.036 1226.63 682.613 1227.28 680.36C1227.93 678.107 1229.52 676.245 1231.65 675.259C1236.71 672.798 1252.04 672.798 1255.91 671.251C1259.77 669.704 1265.05 661.828 1265.05 661.828L1284.66 660.703L1288.6 659.438Z" fill="url(#paint30_linear)"/>
<path d="M1213.71 518.761C1213.71 518.761 1209.07 563.973 1210.05 575.012C1211.04 586.052 1223.27 681.96 1223.27 681.96C1224.99 687.734 1230.57 691.478 1236.56 690.89C1243.52 690.18 1249.09 684.81 1250.06 677.882C1250.06 676.054 1243.03 579.442 1243.03 579.442L1250.06 534.23C1250.06 534.23 1253.02 569.88 1254.35 579.02C1255.69 588.161 1262.16 653.976 1264.9 660.796C1267.64 667.616 1283.18 666.772 1286.42 663.538C1289.45 660.948 1291.16 657.123 1291.06 653.132C1291.06 648.561 1284.02 557.152 1284.02 557.152L1288.59 518.761L1286.27 497.667L1281.28 489.44H1266.66L1246.48 494.924L1231.43 501.323L1213.71 518.761Z" fill="url(#paint31_linear)"/>
<path d="M1214.27 341.566C1214.27 341.566 1197.47 345.925 1195.22 353.73C1192.97 361.535 1179.96 419.826 1176.02 423.201C1172.08 426.576 1136.36 431.427 1136.36 431.427C1136.36 431.427 1125.75 440.287 1138.83 453.647C1138.83 453.647 1186.99 449.991 1193.11 446.616C1199.23 443.241 1202.25 429.248 1202.25 429.248C1202.25 429.248 1197.33 507.508 1199.15 515.453C1200.98 523.399 1225.87 542.595 1269.47 535.001L1271.44 506.875L1275.09 533.383C1285.95 529.57 1294.92 521.711 1300.13 511.445L1297.67 460.538C1297.67 460.538 1307.44 466.937 1318.76 454.139C1318.76 454.139 1316.93 400.559 1313.56 380.45C1310.18 360.34 1305.05 341.707 1304.7 333.832C1304.35 325.956 1301.04 317.026 1293.73 315.831C1284.8 315.792 1275.91 316.807 1267.22 318.855L1223.34 334.113L1214.27 341.566Z" fill="url(#paint32_linear)"/>
<path d="M1255.9 306.198C1258.09 301.843 1260.76 297.741 1263.84 293.963C1268.56 286.655 1270.5 277.9 1269.33 269.283C1267.78 262.251 1251.96 255.923 1248.23 249.806C1244.51 243.688 1235.08 232.438 1226.58 232.157C1221.23 231.762 1216.05 234.085 1212.79 238.336C1209.53 242.587 1208.64 248.195 1210.4 253.251C1215.33 267.314 1213.78 271.814 1213.78 271.814L1209.35 283.416L1211.67 290.447L1214.97 295.932L1220.81 301.416L1228.69 305.987L1239.66 313.581C1239.66 313.581 1247.32 312.386 1248.23 313.581C1249.15 314.776 1255.26 311.823 1255.26 311.823L1256.81 309.151L1255.9 306.198Z" fill="url(#paint33_linear)"/>
<path d="M1258.71 311.889L1233.82 324.476C1233.82 324.476 1231.15 315.054 1229.32 314.28C1227.49 313.507 1215.26 315.054 1211.67 312.593C1208.09 310.132 1198.87 288.053 1214.27 260.63C1215.48 261.701 1216.86 262.558 1218.35 263.161C1220.11 263.583 1231.08 262.177 1233.61 266.045C1236.14 269.912 1222.85 265.201 1219.05 267.943C1215.26 270.685 1223.27 280.6 1222.15 284.115C1221.02 287.631 1219.12 292.131 1221.45 293.397C1223.77 294.663 1225.24 292.904 1226.3 292.553C1227.35 292.201 1230.09 286.647 1233.75 287.912C1235.28 288.207 1236.59 289.158 1237.35 290.513C1238.11 291.869 1238.23 293.49 1237.69 294.944C1236.3 297.083 1236.3 299.836 1237.69 301.975C1242.72 305.612 1248.26 308.48 1254.14 310.483C1254.85 308.989 1255.35 307.403 1255.62 305.772L1258.71 311.889Z" fill="url(#paint34_linear)"/>
<path d="M1211.53 502.093C1211.11 495.413 1219.9 487.468 1220.74 478.327C1221.59 469.186 1216.24 453.365 1214.27 446.052C1212.3 438.74 1218.7 430.794 1220.53 417.927C1221 408.385 1218.83 398.899 1214.27 390.504L1202.25 429.247C1202.25 429.247 1197.33 507.507 1199.16 515.452C1200.45 518.774 1202.73 521.62 1205.69 523.609C1215.19 518.476 1211.95 508.843 1211.53 502.093Z" fill="url(#paint35_linear)"/>
<path d="M1202.25 429.315L1198.24 440.566C1199.97 436.966 1201.31 433.195 1202.25 429.315Z" fill="url(#paint36_linear)"/>
<path d="M980.267 461.734C979.737 464.993 980.841 468.304 983.22 470.593C987.228 474.812 1003.12 484.656 1003.89 492.039C1004.67 499.422 1003.89 502.094 998.83 503.852C990.782 504.572 982.78 502.039 976.611 496.821C971.408 491.969 958.469 488.313 956.923 484.445C955.376 480.578 960.228 461.874 960.228 461.874L980.267 461.734Z" fill="url(#paint37_linear)"/>
<path d="M932.945 487.394C933.208 494.44 932.878 501.497 931.961 508.488C930.555 515.52 935.617 521.356 931.961 532.957C928.305 544.559 924.367 546.387 919.234 547.02C914.101 547.653 906.999 540.833 907.351 531.411C907.703 521.989 913.398 487.394 913.398 487.394H932.945Z" fill="url(#paint38_linear)"/>
<path d="M916.211 286.438C916.807 295.177 918.435 303.816 921.062 312.173C923.689 320.53 921.062 372.995 918.601 391.558C916.14 410.121 911.359 486.271 911.359 486.271C911.359 486.271 926.477 497.451 936.532 486.271C936.532 486.271 950.594 414.762 954.672 383.05C958.751 351.338 959.735 316.532 959.735 316.532L961.563 315.899C961.563 315.899 964.727 370.252 963.181 388.815C961.634 407.378 958.188 462.294 958.188 462.294C965.706 466.343 974.657 466.757 982.517 463.419C990.377 460.081 995.666 395.425 996.58 364.135C997.494 332.845 996.58 254.093 996.58 254.093C996.58 254.093 964.516 262.812 962.196 263.234C959.876 263.656 916.211 286.438 916.211 286.438Z" fill="url(#paint39_linear)"/>
<path d="M957.906 264.927C946.867 270.271 916.21 286.443 916.21 286.443C916.806 295.183 918.435 303.821 921.062 312.178C932.351 313.235 943.259 307.781 949.187 298.115C954.109 291.928 973.657 289.888 983.501 283.138C989.874 278.072 994.457 271.099 996.579 263.239L957.906 264.927Z" fill="url(#paint40_linear)"/>
<path d="M1018.73 198.336C1018.73 198.336 1028.01 219.43 1029.07 220.344C1034.42 218.96 1039.6 217.004 1044.53 214.508C1049.47 212.013 1078.29 198.828 1082.36 200.445C1086.44 202.063 1087.5 206 1084.97 211.555C1082.43 217.11 1039.26 242.775 1022.53 242.353C1005.79 241.931 996.158 210.782 996.158 210.782L1018.73 198.336Z" fill="url(#paint41_linear)"/>
<path d="M1122.65 159.167L1119.91 157.479L1074.91 184.339H1074.56L1028.5 230.466L1031.24 232.153L1065.07 208.316L1067.67 206.066L1075.82 201.004L1091.01 186.097L1122.65 159.167Z" fill="url(#paint42_linear)"/>
<path d="M991.869 144.687C991.869 144.687 998.9 145.882 1002.91 156.57C1006.92 167.258 1019.5 196.72 1019.5 196.72C1014.6 206.656 1003.79 212.222 992.853 210.431L988.423 182.305V166.203L991.869 144.687Z" fill="url(#paint43_linear)"/>
<path d="M944.055 156.147C944.055 156.147 915.929 171.054 909.39 180.687C902.85 190.32 888.295 214.508 888.295 214.508C888.295 214.508 890.405 229.415 911.851 228.571L919.445 218.727C919.445 218.727 919.445 252.9 916.21 286.58C916.21 286.58 954.039 297.76 983.361 278.072C1012.68 258.384 993.838 216.617 995.384 209.656C996.931 202.695 1003.12 159.944 998.83 150.662C994.541 141.381 980.478 144.475 980.478 144.475L944.055 156.147Z" fill="url(#paint44_linear)"/>
<path d="M957.851 178.889C967.825 177.939 975.331 171.089 974.617 163.589C973.903 156.09 965.238 150.78 955.264 151.73C945.291 152.679 937.784 159.529 938.498 167.029C939.213 174.529 947.877 179.839 957.851 178.889Z" fill="#4C68EF"/>
<path d="M943.563 144.547C944.718 149.164 944.718 153.994 943.563 158.61C941.453 166.275 943.563 175.626 954.18 176.189C960.417 177.528 966.735 174.296 969.298 168.455C969.983 163.91 969.983 159.288 969.298 154.743L954.18 143.141L943.563 144.547Z" fill="url(#paint45_linear)"/>
<path d="M983.36 114.31C985.553 112.671 986.727 110.003 986.454 107.279C986.454 102.849 984.907 102.427 984.907 102.427C984.907 102.427 987.017 96.0286 984.907 93.0051C983.593 91.1091 981.65 89.7389 979.423 89.1375C977.396 85.6372 974.638 82.6157 971.337 80.2783C968.618 79.2526 965.618 79.2526 962.899 80.2783C960.18 81.3039 955.867 74.7936 952.774 76.1999C950.852 77.1276 949.094 78.3623 947.57 79.856C946.046 81.3496 939.695 78.0278 938.078 82.1061L936.461 86.114C936.461 86.114 930.624 85.1298 928.796 88.9268C927.689 90.7386 927.384 92.9282 927.952 94.9737C928.521 97.0193 922.749 97.7864 923.312 101.232C923.874 104.677 925.14 105.521 925.14 105.521C925.14 105.521 921.273 109.107 921.905 110.935C922.366 112.129 923.144 113.174 924.156 113.959C925.167 114.743 922.538 117.404 923.523 118.599C924.299 119.427 925.264 120.054 926.335 120.427C927.407 120.801 924.507 124.857 925.913 126.686C926.907 127.818 928.284 128.544 929.781 128.725C929.756 130.849 930.477 132.914 931.82 134.561C933.005 136.329 935.294 136.983 937.234 136.107L947.148 138.006L954.18 134.35L960.156 128.936L963.461 126.264L983.36 114.31Z" fill="url(#paint46_linear)"/>
<path d="M980.197 109.88C984.401 117.915 986.091 127.029 985.049 136.037C984.556 154.741 977.596 160.788 968.173 161.421C956.899 162.762 946.375 155.545 943.563 144.545C940.752 133.545 935.829 142.084 934.915 136.67C934 131.256 935.969 128.584 938.43 128.303C940.891 128.021 944.337 134.631 946.938 133.858C949.54 133.084 946.938 126.826 946.938 126.826C946.938 126.826 949.61 125.56 949.47 123.381C949.329 121.201 948.696 120.779 948.696 120.779C948.696 120.779 952.423 120.287 953.196 118.318C953.724 117.383 953.518 116.205 952.704 115.505C955.099 115.6 957.49 115.218 959.736 114.381C960.605 113.795 960.955 112.687 960.579 111.709C962.931 112.071 965.333 111.902 967.611 111.216C969.65 110.021 969.65 108.966 969.65 108.966C971.318 110.789 974.068 111.118 976.119 109.74C977.309 110.651 978.947 110.708 980.197 109.88Z" fill="url(#paint47_linear)"/>
<path d="M909.39 180.689C902.78 190.392 888.295 214.51 888.295 214.51C888.295 214.51 890.405 229.416 911.851 228.573L919.445 218.728C919.445 218.728 925.281 192.502 911.992 177.736C911.028 178.63 910.156 179.619 909.39 180.689Z" fill="url(#paint48_linear)"/>
<path d="M909.39 180.686C903.554 189.264 891.53 208.812 888.858 213.593C888.577 214.268 888.577 215.027 888.858 215.703C889.913 219.148 894.202 228.711 910.867 228.5C911.666 228.454 912.407 228.071 912.906 227.445L919.937 218.586C919.937 218.586 925.773 192.358 912.484 177.592C911.34 178.505 910.303 179.543 909.39 180.686Z" fill="url(#paint49_linear)"/>
<path d="M931.047 279.48C934.141 278.917 936.742 276.386 934.703 274.066C932.664 271.746 929.5 274.558 924.648 270.972C916.043 262.947 908.504 253.848 902.218 243.901C900.39 239.26 909.671 228.502 909.671 228.502C895.187 228.502 890.405 220.627 888.577 216.76C888.577 216.76 873.811 238.487 875.077 246.995C876.343 255.503 891.319 268.651 904.187 280.253C917.054 291.855 941.313 293.402 941.313 289.605C941.313 285.808 931.047 279.48 931.047 279.48Z" fill="url(#paint50_linear)"/>
<path d="M1030.89 232.581L1078.21 203.12L1122.3 159.595L1077.3 186.385L1030.89 232.44V232.581Z" fill="url(#paint51_linear)"/>
<path d="M961.283 315.623L980.057 307.537C976.809 311.426 974.414 315.953 973.026 320.826C973.44 326.828 973.276 332.856 972.533 338.827C970.986 342.553 968.877 343.749 969.018 345.858C969.942 351.002 967.628 356.189 963.181 358.936L961.283 315.623Z" fill="url(#paint52_linear)"/>
<defs>
<filter id="filter0_f" x="178.09" y="221.87" width="441.717" height="156.67" filterUnits="userSpaceOnUse" color-interpolation-filters="sRGB">
<feFlood flood-opacity="0" result="BackgroundImageFix"/>
<feBlend mode="normal" in="SourceGraphic" in2="BackgroundImageFix" result="shape"/>
<feGaussianBlur stdDeviation="22" result="effect1_foregroundBlur"/>
</filter>
<linearGradient id="paint0_linear" x1="3.47721e-07" y1="99.5526" x2="1495.91" y2="165.543" gradientUnits="userSpaceOnUse">
<stop stop-color="#637EFF"/>
<stop offset="1" stop-color="#3E58D3"/>
</linearGradient>
<linearGradient id="paint1_linear" x1="1320.59" y1="277.021" x2="1114.36" y2="277.021" gradientUnits="userSpaceOnUse">
<stop stop-color="#0E83AE"/>
<stop offset="0.98" stop-color="#003686"/>
</linearGradient>
<linearGradient id="paint2_linear" x1="1320.59" y1="277.021" x2="1114.36" y2="277.021" gradientUnits="userSpaceOnUse">
<stop stop-color="#7352FA"/>
<stop offset="1" stop-color="#A44BFE"/>
</linearGradient>
<linearGradient id="paint3_linear" x1="1310.46" y1="281.518" x2="1104.23" y2="281.518" gradientUnits="userSpaceOnUse">
<stop stop-color="#7352FA"/>
<stop offset="1" stop-color="#A44BFE"/>
</linearGradient>
<linearGradient id="paint4_linear" x1="1197.19" y1="136.181" x2="1197.19" y2="436.704" gradientUnits="userSpaceOnUse">
<stop stop-color="#00366A"/>
<stop offset="0.33" stop-color="#003368"/>
<stop offset="0.57" stop-color="#012A62"/>
<stop offset="0.78" stop-color="#031A57"/>
<stop offset="0.97" stop-color="#050448"/>
<stop offset="1" stop-color="#050046"/>
</linearGradient>
<linearGradient id="paint5_linear" x1="1256.74" y1="295.226" x2="1206.19" y2="295.226" gradientUnits="userSpaceOnUse">
<stop stop-color="#7352FA"/>
<stop offset="1" stop-color="#A44BFE"/>
</linearGradient>
<linearGradient id="paint6_linear" x1="1185.94" y1="247.066" x2="1130.11" y2="247.066" gradientUnits="userSpaceOnUse">
<stop stop-color="#00366A"/>
<stop offset="0.33" stop-color="#003368"/>
<stop offset="0.57" stop-color="#012A62"/>
<stop offset="0.78" stop-color="#031A57"/>
<stop offset="0.97" stop-color="#050448"/>
<stop offset="1" stop-color="#050046"/>
</linearGradient>
<linearGradient id="paint7_linear" x1="1171.03" y1="249.737" x2="1120.47" y2="249.737" gradientUnits="userSpaceOnUse">
<stop stop-color="#7352FA"/>
<stop offset="1" stop-color="#A44BFE"/>
</linearGradient>
<linearGradient id="paint8_linear" x1="1117.8" y1="251.636" x2="1173.63" y2="251.636" gradientUnits="userSpaceOnUse">
<stop stop-color="#7352FA"/>
<stop offset="1" stop-color="#A44BFE"/>
</linearGradient>
<linearGradient id="paint9_linear" x1="1145.79" y1="251.074" x2="1173.63" y2="251.074" gradientUnits="userSpaceOnUse">
<stop offset="0.02" stop-color="white"/>
<stop offset="0.21" stop-color="#F4F9FF"/>
<stop offset="1" stop-color="#CAD8F3"/>
</linearGradient>
<linearGradient id="paint10_linear" x1="1240.29" y1="332.494" x2="1196.98" y2="332.494" gradientUnits="userSpaceOnUse">
<stop stop-color="#7352FA"/>
<stop offset="1" stop-color="#A44BFE"/>
</linearGradient>
<linearGradient id="paint11_linear" x1="1226.58" y1="335.236" x2="1196.98" y2="335.236" gradientUnits="userSpaceOnUse">
<stop stop-color="#7352FA"/>
<stop offset="1" stop-color="#A44BFE"/>
</linearGradient>
<linearGradient id="paint12_linear" x1="1234.88" y1="345.574" x2="1196.98" y2="345.574" gradientUnits="userSpaceOnUse">
<stop stop-color="#7352FA"/>
<stop offset="1" stop-color="#A44BFE"/>
</linearGradient>
<linearGradient id="paint13_linear" x1="1240.29" y1="354.644" x2="1196.98" y2="354.644" gradientUnits="userSpaceOnUse">
<stop stop-color="#7352FA"/>
<stop offset="1" stop-color="#A44BFE"/>
</linearGradient>
<linearGradient id="paint14_linear" x1="1176.58" y1="310.065" x2="1165.76" y2="310.065" gradientUnits="userSpaceOnUse">
<stop stop-color="#7352FA"/>
<stop offset="1" stop-color="#A44BFE"/>
</linearGradient>
<linearGradient id="paint15_linear" x1="1163.58" y1="293.4" x2="1120.26" y2="293.4" gradientUnits="userSpaceOnUse">
<stop stop-color="#7352FA"/>
<stop offset="1" stop-color="#A44BFE"/>
</linearGradient>
<linearGradient id="paint16_linear" x1="1176.58" y1="313.296" x2="1152.26" y2="313.296" gradientUnits="userSpaceOnUse">
<stop stop-color="#7352FA"/>
<stop offset="1" stop-color="#A44BFE"/>
</linearGradient>
<linearGradient id="paint17_linear" x1="1149.86" y1="296.145" x2="1120.26" y2="296.145" gradientUnits="userSpaceOnUse">
<stop stop-color="#7352FA"/>
<stop offset="1" stop-color="#A44BFE"/>
</linearGradient>
<linearGradient id="paint18_linear" x1="1176.59" y1="323.213" x2="1160.2" y2="323.213" gradientUnits="userSpaceOnUse">
<stop stop-color="#7352FA"/>
<stop offset="1" stop-color="#A44BFE"/>
</linearGradient>
<linearGradient id="paint19_linear" x1="1158.16" y1="306.481" x2="1120.26" y2="306.481" gradientUnits="userSpaceOnUse">
<stop stop-color="#7352FA"/>
<stop offset="1" stop-color="#A44BFE"/>
</linearGradient>
<linearGradient id="paint20_linear" x1="1176.58" y1="332.279" x2="1165.76" y2="332.279" gradientUnits="userSpaceOnUse">
<stop stop-color="#7352FA"/>
<stop offset="1" stop-color="#A44BFE"/>
</linearGradient>
<linearGradient id="paint21_linear" x1="1163.58" y1="315.553" x2="1120.26" y2="315.553" gradientUnits="userSpaceOnUse">
<stop stop-color="#7352FA"/>
<stop offset="1" stop-color="#A44BFE"/>
</linearGradient>
<linearGradient id="paint22_linear" x1="1171.66" y1="313.09" x2="1160.83" y2="313.09" gradientUnits="userSpaceOnUse">
<stop stop-color="#7352FA"/>
<stop offset="1" stop-color="#A44BFE"/>
</linearGradient>
<linearGradient id="paint23_linear" x1="1171.66" y1="316.326" x2="1147.33" y2="316.326" gradientUnits="userSpaceOnUse">
<stop stop-color="#7352FA"/>
<stop offset="1" stop-color="#A44BFE"/>
</linearGradient>
<linearGradient id="paint24_linear" x1="1171.66" y1="326.165" x2="1155.28" y2="326.165" gradientUnits="userSpaceOnUse">
<stop stop-color="#7352FA"/>
<stop offset="1" stop-color="#A44BFE"/>
</linearGradient>
<linearGradient id="paint25_linear" x1="1171.66" y1="335.31" x2="1160.83" y2="335.31" gradientUnits="userSpaceOnUse">
<stop stop-color="#7352FA"/>
<stop offset="1" stop-color="#A44BFE"/>
</linearGradient>
<linearGradient id="paint26_linear" x1="1169.2" y1="194.821" x2="1142.48" y2="194.821" gradientUnits="userSpaceOnUse">
<stop stop-color="#00366A"/>
<stop offset="0.33" stop-color="#003368"/>
<stop offset="0.57" stop-color="#012A62"/>
<stop offset="0.78" stop-color="#031A57"/>
<stop offset="0.97" stop-color="#050448"/>
<stop offset="1" stop-color="#050046"/>
</linearGradient>
<linearGradient id="paint27_linear" x1="1166.46" y1="196.365" x2="1139.67" y2="196.365" gradientUnits="userSpaceOnUse">
<stop stop-color="#7352FA"/>
<stop offset="1" stop-color="#A44BFE"/>
</linearGradient>
<linearGradient id="paint28_linear" x1="1118.29" y1="463.983" x2="1118.29" y2="430.724" gradientUnits="userSpaceOnUse">
<stop stop-color="#F9AFAF"/>
<stop offset="0.23" stop-color="#FBBABA"/>
<stop offset="0.61" stop-color="#FEC6C6"/>
<stop offset="1" stop-color="#FFCACA"/>
</linearGradient>
<linearGradient id="paint29_linear" x1="1219.83" y1="709.166" x2="1219.83" y2="677.805" gradientUnits="userSpaceOnUse">
<stop stop-color="#FFF52A"/>
<stop offset="0.51" stop-color="#FFF32A"/>
<stop offset="0.71" stop-color="#FFEC2C"/>
<stop offset="0.86" stop-color="#FFE02F"/>
<stop offset="0.98" stop-color="#FFCF32"/>
<stop offset="1" stop-color="#FFCB33"/>
</linearGradient>
<linearGradient id="paint30_linear" x1="1258.58" y1="690.798" x2="1258.58" y2="659.438" gradientUnits="userSpaceOnUse">
<stop stop-color="#FFF52A"/>
<stop offset="0.51" stop-color="#FFF32A"/>
<stop offset="0.71" stop-color="#FFEC2C"/>
<stop offset="0.86" stop-color="#FFE02F"/>
<stop offset="0.98" stop-color="#FFCF32"/>
<stop offset="1" stop-color="#FFCB33"/>
</linearGradient>
<linearGradient id="paint31_linear" x1="1250.2" y1="690.89" x2="1250.2" y2="489.51" gradientUnits="userSpaceOnUse">
<stop stop-color="#00265C"/>
<stop offset="0.55" stop-color="#00245B"/>
<stop offset="0.74" stop-color="#011D57"/>
<stop offset="0.88" stop-color="#031250"/>
<stop offset="1" stop-color="#050046"/>
</linearGradient>
<linearGradient id="paint32_linear" x1="1225.31" y1="536.759" x2="1225.31" y2="316.042" gradientUnits="userSpaceOnUse">
<stop stop-color="#FFF52A"/>
<stop offset="0.51" stop-color="#FFF32A"/>
<stop offset="0.71" stop-color="#FFEC2C"/>
<stop offset="0.86" stop-color="#FFE02F"/>
<stop offset="0.98" stop-color="#FFCF32"/>
<stop offset="1" stop-color="#FFCB33"/>
</linearGradient>
<linearGradient id="paint33_linear" x1="1209.07" y1="273.08" x2="1269.68" y2="273.08" gradientUnits="userSpaceOnUse">
<stop stop-color="#00265C"/>
<stop offset="0.55" stop-color="#00245B"/>
<stop offset="0.74" stop-color="#011D57"/>
<stop offset="0.88" stop-color="#031250"/>
<stop offset="1" stop-color="#050046"/>
</linearGradient>
<linearGradient id="paint34_linear" x1="1205.7" y1="292.553" x2="1258.71" y2="292.553" gradientUnits="userSpaceOnUse">
<stop stop-color="#F9AFAF"/>
<stop offset="0.23" stop-color="#FBBABA"/>
<stop offset="0.61" stop-color="#FEC6C6"/>
<stop offset="1" stop-color="#FFCACA"/>
</linearGradient>
<linearGradient id="paint35_linear" x1="1209.84" y1="523.68" x2="1209.84" y2="390.575" gradientUnits="userSpaceOnUse">
<stop stop-color="#FFF52A"/>
<stop offset="0.51" stop-color="#FFF32A"/>
<stop offset="0.71" stop-color="#FFEC2C"/>
<stop offset="0.86" stop-color="#FFE02F"/>
<stop offset="0.98" stop-color="#FFCF32"/>
<stop offset="1" stop-color="#FFCB33"/>
</linearGradient>
<linearGradient id="paint36_linear" x1="1200.21" y1="440.566" x2="1200.21" y2="429.315" gradientUnits="userSpaceOnUse">
<stop stop-color="#7A6AFE"/>
<stop offset="0.48" stop-color="#7869FD"/>
<stop offset="0.68" stop-color="#7165F8"/>
<stop offset="0.84" stop-color="#645EF0"/>
<stop offset="0.96" stop-color="#5354E5"/>
<stop offset="1" stop-color="#4C50E1"/>
</linearGradient>
<linearGradient id="paint37_linear" x1="980.408" y1="504.274" x2="980.408" y2="461.734" gradientUnits="userSpaceOnUse">
<stop stop-color="#7352FA"/>
<stop offset="1" stop-color="#A44BFE"/>
</linearGradient>
<linearGradient id="paint38_linear" x1="920.359" y1="546.528" x2="920.359" y2="486.902" gradientUnits="userSpaceOnUse">
<stop stop-color="#7352FA"/>
<stop offset="1" stop-color="#A44BFE"/>
</linearGradient>
<linearGradient id="paint39_linear" x1="953.829" y1="491.193" x2="953.829" y2="254.093" gradientUnits="userSpaceOnUse">
<stop stop-color="#CDDAF4"/>
<stop offset="0.13" stop-color="#DAE4F8"/>
<stop offset="0.38" stop-color="#EDF3FD"/>
<stop offset="0.56" stop-color="#F4F9FF"/>
<stop offset="0.72" stop-color="#F1F7FE"/>
<stop offset="0.84" stop-color="#E8F0FC"/>
<stop offset="0.93" stop-color="#D9E4F7"/>
<stop offset="1" stop-color="#CAD8F3"/>
</linearGradient>
<linearGradient id="paint40_linear" x1="956.219" y1="312.319" x2="956.219" y2="262.888" gradientUnits="userSpaceOnUse">
<stop stop-color="#CDDAF4"/>
<stop offset="0.13" stop-color="#DAE4F8"/>
<stop offset="0.38" stop-color="#EDF3FD"/>
<stop offset="0.56" stop-color="#F4F9FF"/>
<stop offset="0.72" stop-color="#F1F7FE"/>
<stop offset="0.84" stop-color="#E8F0FC"/>
<stop offset="0.93" stop-color="#D9E4F7"/>
<stop offset="1" stop-color="#CAD8F3"/>
</linearGradient>
<linearGradient id="paint41_linear" x1="1041.23" y1="242.142" x2="1041.23" y2="198.336" gradientUnits="userSpaceOnUse">
<stop stop-color="#FF8888"/>
<stop offset="0.11" stop-color="#FE9393"/>
<stop offset="0.32" stop-color="#FDA1A1"/>
<stop offset="0.58" stop-color="#FCA9A9"/>
<stop offset="1" stop-color="#FCACAC"/>
</linearGradient>
<linearGradient id="paint42_linear" x1="1075.47" y1="232.575" x2="1075.47" y2="157.479" gradientUnits="userSpaceOnUse">
<stop stop-color="#00265C"/>
<stop offset="0.13" stop-color="#021753"/>
<stop offset="0.31" stop-color="#040A4C"/>
<stop offset="0.54" stop-color="#050247"/>
<stop offset="1" stop-color="#050046"/>
</linearGradient>
<linearGradient id="paint43_linear" x1="1003.96" y1="210.572" x2="1003.96" y2="144.687" gradientUnits="userSpaceOnUse">
<stop stop-color="#4C68EF"/>
<stop offset="1" stop-color="#869BFF"/>
</linearGradient>
<linearGradient id="paint44_linear" x1="944.336" y1="289.603" x2="944.336" y2="143.842" gradientUnits="userSpaceOnUse">
<stop stop-color="#4C68EF"/>
<stop offset="1" stop-color="#758DFF"/>
</linearGradient>
<linearGradient id="paint45_linear" x1="956.36" y1="175.908" x2="956.36" y2="142.79" gradientUnits="userSpaceOnUse">
<stop stop-color="#FF8888"/>
<stop offset="0.11" stop-color="#FE9393"/>
<stop offset="0.32" stop-color="#FDA1A1"/>
<stop offset="0.58" stop-color="#FCA9A9"/>
<stop offset="1" stop-color="#FCACAC"/>
</linearGradient>
<linearGradient id="paint46_linear" x1="954.18" y1="138.358" x2="954.18" y2="76.3405" gradientUnits="userSpaceOnUse">
<stop stop-color="#00265C"/>
<stop offset="0.55" stop-color="#00245B"/>
<stop offset="0.74" stop-color="#011D57"/>
<stop offset="0.88" stop-color="#031250"/>
<stop offset="1" stop-color="#050046"/>
</linearGradient>
<linearGradient id="paint47_linear" x1="959.876" y1="161.491" x2="959.876" y2="108.966" gradientUnits="userSpaceOnUse">
<stop stop-color="#FF8888"/>
<stop offset="0.11" stop-color="#FE9393"/>
<stop offset="0.32" stop-color="#FDA1A1"/>
<stop offset="0.58" stop-color="#FCA9A9"/>
<stop offset="1" stop-color="#FCACAC"/>
</linearGradient>
<linearGradient id="paint48_linear" x1="904.538" y1="228.502" x2="904.538" y2="177.595" gradientUnits="userSpaceOnUse">
<stop stop-color="#7CDAA3"/>
<stop offset="0.03" stop-color="#79D8A3"/>
<stop offset="0.43" stop-color="#5BBE9E"/>
<stop offset="0.76" stop-color="#48AE9B"/>
<stop offset="1" stop-color="#41A89A"/>
</linearGradient>
<linearGradient id="paint49_linear" x1="904.609" y1="228.5" x2="904.609" y2="177.592" gradientUnits="userSpaceOnUse">
<stop stop-color="#4C68EF"/>
<stop offset="1" stop-color="#8398FF"/>
</linearGradient>
<linearGradient id="paint50_linear" x1="908.476" y1="291.433" x2="908.476" y2="216.76" gradientUnits="userSpaceOnUse">
<stop stop-color="#FF8888"/>
<stop offset="0.11" stop-color="#FE9393"/>
<stop offset="0.32" stop-color="#FDA1A1"/>
<stop offset="0.58" stop-color="#FCA9A9"/>
<stop offset="1" stop-color="#FCACAC"/>
</linearGradient>
<linearGradient id="paint51_linear" x1="1076.81" y1="232.581" x2="1076.81" y2="159.103" gradientUnits="userSpaceOnUse">
<stop stop-color="#00265C"/>
<stop offset="0.55" stop-color="#00245B"/>
<stop offset="0.74" stop-color="#011D57"/>
<stop offset="0.88" stop-color="#031250"/>
<stop offset="1" stop-color="#050046"/>
</linearGradient>
<linearGradient id="paint52_linear" x1="970.635" y1="359.499" x2="970.635" y2="307.818" gradientUnits="userSpaceOnUse">
<stop stop-color="#CDDAF4"/>
<stop offset="0.13" stop-color="#DAE4F8"/>
<stop offset="0.38" stop-color="#EDF3FD"/>
<stop offset="0.56" stop-color="#F4F9FF"/>
<stop offset="0.72" stop-color="#F1F7FE"/>
<stop offset="0.84" stop-color="#E8F0FC"/>
<stop offset="0.93" stop-color="#D9E4F7"/>
<stop offset="1" stop-color="#CAD8F3"/>
</linearGradient>
</defs>
</svg>
