<svg width="1400" height="923" viewBox="0 0 1400 923" fill="none" xmlns="http://www.w3.org/2000/svg">
<rect width="976" height="136" transform="matrix(1 0 0 -1 43 433)" fill="url(#paint0_linear)"/>
<g filter="url(#filter0_f)">
<path d="M112.1 332.63L110.57 343.16H88.61V358.1H107.78V368.45H88.61V384.38H112.1V395H73.85V332.63H112.1ZM157.966 381.14C157.966 382.94 158.206 384.26 158.686 385.1C159.226 385.94 160.066 386.57 161.206 386.99L158.236 396.26C155.296 396.02 152.896 395.39 151.036 394.37C149.176 393.29 147.736 391.61 146.716 389.33C143.596 394.13 138.796 396.53 132.316 396.53C127.576 396.53 123.796 395.15 120.976 392.39C118.156 389.63 116.746 386.03 116.746 381.59C116.746 376.37 118.666 372.38 122.506 369.62C126.346 366.86 131.896 365.48 139.156 365.48H144.016V363.41C144.016 360.59 143.416 358.67 142.216 357.65C141.016 356.57 138.916 356.03 135.916 356.03C134.356 356.03 132.466 356.27 130.246 356.75C128.026 357.17 125.746 357.77 123.406 358.55L120.166 349.19C123.166 348.05 126.226 347.18 129.346 346.58C132.526 345.98 135.466 345.68 138.166 345.68C145.006 345.68 150.016 347.09 153.196 349.91C156.376 352.73 157.966 356.96 157.966 362.6V381.14ZM136.456 386.36C139.696 386.36 142.216 384.83 144.016 381.77V373.31H140.506C137.266 373.31 134.836 373.88 133.216 375.02C131.656 376.16 130.876 377.93 130.876 380.33C130.876 382.25 131.356 383.75 132.316 384.83C133.336 385.85 134.716 386.36 136.456 386.36ZM195.213 345.86C196.953 345.86 198.543 346.07 199.983 346.49L197.733 360.26C195.933 359.84 194.493 359.63 193.413 359.63C190.593 359.63 188.433 360.62 186.933 362.6C185.493 364.52 184.353 367.43 183.513 371.33V395H169.293V347.21H181.713L182.883 356.48C183.963 353.18 185.583 350.6 187.743 348.74C189.963 346.82 192.453 345.86 195.213 345.86ZM233.406 345.68C237.546 345.68 240.786 346.94 243.126 349.46C245.466 351.98 246.636 355.52 246.636 360.08V395H232.416V362.51C232.416 360.11 232.026 358.46 231.246 357.56C230.526 356.6 229.416 356.12 227.916 356.12C225.036 356.12 222.276 358.19 219.636 362.33V395H205.416V347.21H217.836L218.826 352.88C220.866 350.48 223.056 348.68 225.396 347.48C227.796 346.28 230.466 345.68 233.406 345.68ZM304.727 369.44L320.117 395H304.007L295.727 377.09L287.627 395H272.147L287.537 369.89L273.677 347.21H289.607L296.267 362.51L302.657 347.21H317.777L304.727 369.44ZM367.701 332.63L366.261 343.97H350.871V395H336.111V343.97H320.001V332.63H367.701ZM389.153 345.68C396.473 345.68 402.203 347.93 406.343 352.43C410.483 356.87 412.553 363.11 412.553 371.15C412.553 376.25 411.593 380.72 409.673 384.56C407.813 388.34 405.113 391.28 401.573 393.38C398.093 395.48 393.953 396.53 389.153 396.53C381.893 396.53 376.163 394.31 371.963 389.87C367.823 385.37 365.753 379.1 365.753 371.06C365.753 365.96 366.683 361.52 368.543 357.74C370.463 353.9 373.163 350.93 376.643 348.83C380.183 346.73 384.353 345.68 389.153 345.68ZM389.153 356.12C386.273 356.12 384.113 357.35 382.673 359.81C381.233 362.21 380.513 365.96 380.513 371.06C380.513 376.28 381.203 380.09 382.583 382.49C384.023 384.89 386.213 386.09 389.153 386.09C392.033 386.09 394.193 384.89 395.633 382.49C397.073 380.03 397.793 376.25 397.793 371.15C397.793 365.93 397.073 362.12 395.633 359.72C394.253 357.32 392.093 356.12 389.153 356.12ZM435.232 326.69V395H421.012V328.22L435.232 326.69ZM464.752 347.21L450.262 368.18L465.922 395H449.902L435.682 368.9L450.262 347.21H464.752ZM511.197 370.16C511.197 372.14 511.107 373.85 510.927 375.29H481.317C481.797 379.31 482.937 382.13 484.737 383.75C486.537 385.37 489.027 386.18 492.207 386.18C494.127 386.18 495.987 385.85 497.787 385.19C499.587 384.47 501.537 383.39 503.637 381.95L509.487 389.87C503.907 394.31 497.697 396.53 490.857 396.53C483.117 396.53 477.177 394.25 473.037 389.69C468.897 385.13 466.827 379.01 466.827 371.33C466.827 366.47 467.697 362.12 469.437 358.28C471.177 354.38 473.727 351.32 477.087 349.1C480.447 346.82 484.467 345.68 489.147 345.68C496.047 345.68 501.447 347.84 505.347 352.16C509.247 356.48 511.197 362.48 511.197 370.16ZM497.247 366.11C497.127 358.79 494.547 355.13 489.507 355.13C487.047 355.13 485.127 356.03 483.747 357.83C482.427 359.63 481.617 362.6 481.317 366.74H497.247V366.11ZM547.175 345.68C551.315 345.68 554.555 346.94 556.895 349.46C559.235 351.98 560.405 355.52 560.405 360.08V395H546.185V362.51C546.185 360.11 545.795 358.46 545.015 357.56C544.295 356.6 543.185 356.12 541.685 356.12C538.805 356.12 536.045 358.19 533.405 362.33V395H519.185V347.21H531.605L532.595 352.88C534.635 350.48 536.825 348.68 539.165 347.48C541.565 346.28 544.235 345.68 547.175 345.68Z" fill="white"/>
</g>
<path d="M93.92 211.1C98.6 211.1 102.65 211.76 106.07 213.08C109.55 214.4 112.7 216.41 115.52 219.11L108.68 227.12C104.42 223.64 99.86 221.9 95 221.9C92.42 221.9 90.38 222.44 88.88 223.52C87.38 224.54 86.63 226.04 86.63 228.02C86.63 229.4 86.96 230.54 87.62 231.44C88.28 232.28 89.45 233.09 91.13 233.87C92.81 234.65 95.33 235.58 98.69 236.66C105.05 238.7 109.73 241.22 112.73 244.22C115.73 247.16 117.23 251.36 117.23 256.82C117.23 260.72 116.24 264.17 114.26 267.17C112.28 270.11 109.43 272.42 105.71 274.1C101.99 275.72 97.58 276.53 92.48 276.53C87.38 276.53 82.85 275.72 78.89 274.1C74.99 272.48 71.63 270.32 68.81 267.62L76.28 259.43C78.68 261.47 81.14 263 83.66 264.02C86.24 265.04 89.03 265.55 92.03 265.55C95.09 265.55 97.49 264.89 99.23 263.57C101.03 262.19 101.93 260.3 101.93 257.9C101.93 256.34 101.6 255.05 100.94 254.03C100.28 252.95 99.14 251.99 97.52 251.15C95.9 250.31 93.56 249.41 90.5 248.45C83.6 246.35 78.68 243.77 75.74 240.71C72.86 237.65 71.42 233.78 71.42 229.1C71.42 225.5 72.38 222.35 74.3 219.65C76.22 216.89 78.89 214.79 82.31 213.35C85.73 211.85 89.6 211.1 93.92 211.1ZM155.054 272.75C153.314 273.95 151.274 274.88 148.934 275.54C146.654 276.2 144.374 276.53 142.094 276.53C131.654 276.47 126.434 270.71 126.434 259.25V237.11H119.684V227.21H126.434V216.86L140.654 215.24V227.21H151.634L150.104 237.11H140.654V259.07C140.654 261.29 141.014 262.88 141.734 263.84C142.454 264.8 143.594 265.28 145.154 265.28C146.774 265.28 148.484 264.77 150.284 263.75L155.054 272.75ZM196.726 261.14C196.726 262.94 196.966 264.26 197.446 265.1C197.986 265.94 198.826 266.57 199.966 266.99L196.996 276.26C194.056 276.02 191.656 275.39 189.796 274.37C187.936 273.29 186.496 271.61 185.476 269.33C182.356 274.13 177.556 276.53 171.076 276.53C166.336 276.53 162.556 275.15 159.736 272.39C156.916 269.63 155.506 266.03 155.506 261.59C155.506 256.37 157.426 252.38 161.266 249.62C165.106 246.86 170.656 245.48 177.916 245.48H182.776V243.41C182.776 240.59 182.176 238.67 180.976 237.65C179.776 236.57 177.676 236.03 174.676 236.03C173.116 236.03 171.226 236.27 169.006 236.75C166.786 237.17 164.506 237.77 162.166 238.55L158.926 229.19C161.926 228.05 164.986 227.18 168.106 226.58C171.286 225.98 174.226 225.68 176.926 225.68C183.766 225.68 188.776 227.09 191.956 229.91C195.136 232.73 196.726 236.96 196.726 242.6V261.14ZM175.216 266.36C178.456 266.36 180.976 264.83 182.776 261.77V253.31H179.266C176.026 253.31 173.596 253.88 171.976 255.02C170.416 256.16 169.636 257.93 169.636 260.33C169.636 262.25 170.116 263.75 171.076 264.83C172.096 265.85 173.476 266.36 175.216 266.36ZM222.273 206.69V275H208.053V208.22L222.273 206.69ZM251.793 227.21L237.303 248.18L252.963 275H236.943L222.723 248.9L237.303 227.21H251.793ZM298.238 250.16C298.238 252.14 298.148 253.85 297.968 255.29H268.358C268.838 259.31 269.978 262.13 271.778 263.75C273.578 265.37 276.068 266.18 279.248 266.18C281.168 266.18 283.028 265.85 284.828 265.19C286.628 264.47 288.578 263.39 290.678 261.95L296.528 269.87C290.948 274.31 284.738 276.53 277.898 276.53C270.158 276.53 264.218 274.25 260.078 269.69C255.938 265.13 253.868 259.01 253.868 251.33C253.868 246.47 254.738 242.12 256.478 238.28C258.218 234.38 260.768 231.32 264.128 229.1C267.488 226.82 271.508 225.68 276.188 225.68C283.088 225.68 288.488 227.84 292.388 232.16C296.288 236.48 298.238 242.48 298.238 250.16ZM284.288 246.11C284.168 238.79 281.588 235.13 276.548 235.13C274.088 235.13 272.168 236.03 270.788 237.83C269.468 239.63 268.658 242.6 268.358 246.74H284.288V246.11ZM389.774 275H375.284L374.204 250.61C373.904 244.79 373.754 239.6 373.754 235.04C373.754 231.56 373.844 228.26 374.024 225.14L364.394 268.43H350.444L340.184 225.14C340.544 230.36 340.724 235.28 340.724 239.9C340.724 243.38 340.634 247.01 340.454 250.79L339.374 275H324.974L329.654 212.63H348.284L357.644 254.93L366.374 212.63H385.094L389.774 275ZM413.366 212.63V275H398.606V212.63H413.366ZM445.043 211.1C449.723 211.1 453.773 211.76 457.193 213.08C460.673 214.4 463.823 216.41 466.643 219.11L459.803 227.12C455.543 223.64 450.983 221.9 446.123 221.9C443.543 221.9 441.503 222.44 440.003 223.52C438.503 224.54 437.753 226.04 437.753 228.02C437.753 229.4 438.083 230.54 438.743 231.44C439.403 232.28 440.573 233.09 442.253 233.87C443.933 234.65 446.453 235.58 449.813 236.66C456.173 238.7 460.853 241.22 463.853 244.22C466.853 247.16 468.353 251.36 468.353 256.82C468.353 260.72 467.363 264.17 465.383 267.17C463.403 270.11 460.553 272.42 456.833 274.1C453.113 275.72 448.703 276.53 443.603 276.53C438.503 276.53 433.973 275.72 430.013 274.1C426.113 272.48 422.753 270.32 419.933 267.62L427.403 259.43C429.803 261.47 432.263 263 434.783 264.02C437.363 265.04 440.153 265.55 443.153 265.55C446.213 265.55 448.613 264.89 450.353 263.57C452.153 262.19 453.053 260.3 453.053 257.9C453.053 256.34 452.723 255.05 452.063 254.03C451.403 252.95 450.263 251.99 448.643 251.15C447.023 250.31 444.683 249.41 441.623 248.45C434.723 246.35 429.803 243.77 426.863 240.71C423.983 237.65 422.543 233.78 422.543 229.1C422.543 225.5 423.503 222.35 425.423 219.65C427.343 216.89 430.013 214.79 433.433 213.35C436.853 211.85 440.723 211.1 445.043 211.1ZM474.587 252.32V241.34H503.297V252.32H474.587ZM535.703 249.44L551.093 275H534.983L526.703 257.09L518.603 275H503.123L518.513 249.89L504.653 227.21H520.583L527.243 242.51L533.633 227.21H548.753L535.703 249.44ZM598.678 212.63L597.238 223.97H581.848V275H567.088V223.97H550.978V212.63H598.678ZM620.13 225.68C627.45 225.68 633.18 227.93 637.32 232.43C641.46 236.87 643.53 243.11 643.53 251.15C643.53 256.25 642.57 260.72 640.65 264.56C638.79 268.34 636.09 271.28 632.55 273.38C629.07 275.48 624.93 276.53 620.13 276.53C612.87 276.53 607.14 274.31 602.94 269.87C598.8 265.37 596.73 259.1 596.73 251.06C596.73 245.96 597.66 241.52 599.52 237.74C601.44 233.9 604.14 230.93 607.62 228.83C611.16 226.73 615.33 225.68 620.13 225.68ZM620.13 236.12C617.25 236.12 615.09 237.35 613.65 239.81C612.21 242.21 611.49 245.96 611.49 251.06C611.49 256.28 612.18 260.09 613.56 262.49C615 264.89 617.19 266.09 620.13 266.09C623.01 266.09 625.17 264.89 626.61 262.49C628.05 260.03 628.77 256.25 628.77 251.15C628.77 245.93 628.05 242.12 626.61 239.72C625.23 237.32 623.07 236.12 620.13 236.12ZM666.208 206.69V275H651.988V208.22L666.208 206.69ZM695.728 227.21L681.238 248.18L696.898 275H680.878L666.658 248.9L681.238 227.21H695.728ZM742.174 250.16C742.174 252.14 742.084 253.85 741.904 255.29H712.294C712.774 259.31 713.914 262.13 715.714 263.75C717.514 265.37 720.004 266.18 723.184 266.18C725.104 266.18 726.964 265.85 728.764 265.19C730.564 264.47 732.514 263.39 734.614 261.95L740.464 269.87C734.884 274.31 728.674 276.53 721.834 276.53C714.094 276.53 708.154 274.25 704.014 269.69C699.874 265.13 697.804 259.01 697.804 251.33C697.804 246.47 698.674 242.12 700.414 238.28C702.154 234.38 704.704 231.32 708.064 229.1C711.424 226.82 715.444 225.68 720.124 225.68C727.024 225.68 732.424 227.84 736.324 232.16C740.224 236.48 742.174 242.48 742.174 250.16ZM728.224 246.11C728.104 238.79 725.524 235.13 720.484 235.13C718.024 235.13 716.104 236.03 714.724 237.83C713.404 239.63 712.594 242.6 712.294 246.74H728.224V246.11ZM778.152 225.68C782.292 225.68 785.532 226.94 787.872 229.46C790.212 231.98 791.382 235.52 791.382 240.08V275H777.162V242.51C777.162 240.11 776.772 238.46 775.992 237.56C775.272 236.6 774.162 236.12 772.662 236.12C769.782 236.12 767.022 238.19 764.382 242.33V275H750.162V227.21H762.582L763.572 232.88C765.612 230.48 767.802 228.68 770.142 227.48C772.542 226.28 775.212 225.68 778.152 225.68Z" fill="#262626"/>
<path d="M112.1 332.63L110.57 343.16H88.61V358.1H107.78V368.45H88.61V384.38H112.1V395H73.85V332.63H112.1ZM157.966 381.14C157.966 382.94 158.206 384.26 158.686 385.1C159.226 385.94 160.066 386.57 161.206 386.99L158.236 396.26C155.296 396.02 152.896 395.39 151.036 394.37C149.176 393.29 147.736 391.61 146.716 389.33C143.596 394.13 138.796 396.53 132.316 396.53C127.576 396.53 123.796 395.15 120.976 392.39C118.156 389.63 116.746 386.03 116.746 381.59C116.746 376.37 118.666 372.38 122.506 369.62C126.346 366.86 131.896 365.48 139.156 365.48H144.016V363.41C144.016 360.59 143.416 358.67 142.216 357.65C141.016 356.57 138.916 356.03 135.916 356.03C134.356 356.03 132.466 356.27 130.246 356.75C128.026 357.17 125.746 357.77 123.406 358.55L120.166 349.19C123.166 348.05 126.226 347.18 129.346 346.58C132.526 345.98 135.466 345.68 138.166 345.68C145.006 345.68 150.016 347.09 153.196 349.91C156.376 352.73 157.966 356.96 157.966 362.6V381.14ZM136.456 386.36C139.696 386.36 142.216 384.83 144.016 381.77V373.31H140.506C137.266 373.31 134.836 373.88 133.216 375.02C131.656 376.16 130.876 377.93 130.876 380.33C130.876 382.25 131.356 383.75 132.316 384.83C133.336 385.85 134.716 386.36 136.456 386.36ZM195.213 345.86C196.953 345.86 198.543 346.07 199.983 346.49L197.733 360.26C195.933 359.84 194.493 359.63 193.413 359.63C190.593 359.63 188.433 360.62 186.933 362.6C185.493 364.52 184.353 367.43 183.513 371.33V395H169.293V347.21H181.713L182.883 356.48C183.963 353.18 185.583 350.6 187.743 348.74C189.963 346.82 192.453 345.86 195.213 345.86ZM233.406 345.68C237.546 345.68 240.786 346.94 243.126 349.46C245.466 351.98 246.636 355.52 246.636 360.08V395H232.416V362.51C232.416 360.11 232.026 358.46 231.246 357.56C230.526 356.6 229.416 356.12 227.916 356.12C225.036 356.12 222.276 358.19 219.636 362.33V395H205.416V347.21H217.836L218.826 352.88C220.866 350.48 223.056 348.68 225.396 347.48C227.796 346.28 230.466 345.68 233.406 345.68ZM304.727 369.44L320.117 395H304.007L295.727 377.09L287.627 395H272.147L287.537 369.89L273.677 347.21H289.607L296.267 362.51L302.657 347.21H317.777L304.727 369.44ZM367.701 332.63L366.261 343.97H350.871V395H336.111V343.97H320.001V332.63H367.701ZM389.153 345.68C396.473 345.68 402.203 347.93 406.343 352.43C410.483 356.87 412.553 363.11 412.553 371.15C412.553 376.25 411.593 380.72 409.673 384.56C407.813 388.34 405.113 391.28 401.573 393.38C398.093 395.48 393.953 396.53 389.153 396.53C381.893 396.53 376.163 394.31 371.963 389.87C367.823 385.37 365.753 379.1 365.753 371.06C365.753 365.96 366.683 361.52 368.543 357.74C370.463 353.9 373.163 350.93 376.643 348.83C380.183 346.73 384.353 345.68 389.153 345.68ZM389.153 356.12C386.273 356.12 384.113 357.35 382.673 359.81C381.233 362.21 380.513 365.96 380.513 371.06C380.513 376.28 381.203 380.09 382.583 382.49C384.023 384.89 386.213 386.09 389.153 386.09C392.033 386.09 394.193 384.89 395.633 382.49C397.073 380.03 397.793 376.25 397.793 371.15C397.793 365.93 397.073 362.12 395.633 359.72C394.253 357.32 392.093 356.12 389.153 356.12ZM435.232 326.69V395H421.012V328.22L435.232 326.69ZM464.752 347.21L450.262 368.18L465.922 395H449.902L435.682 368.9L450.262 347.21H464.752ZM511.197 370.16C511.197 372.14 511.107 373.85 510.927 375.29H481.317C481.797 379.31 482.937 382.13 484.737 383.75C486.537 385.37 489.027 386.18 492.207 386.18C494.127 386.18 495.987 385.85 497.787 385.19C499.587 384.47 501.537 383.39 503.637 381.95L509.487 389.87C503.907 394.31 497.697 396.53 490.857 396.53C483.117 396.53 477.177 394.25 473.037 389.69C468.897 385.13 466.827 379.01 466.827 371.33C466.827 366.47 467.697 362.12 469.437 358.28C471.177 354.38 473.727 351.32 477.087 349.1C480.447 346.82 484.467 345.68 489.147 345.68C496.047 345.68 501.447 347.84 505.347 352.16C509.247 356.48 511.197 362.48 511.197 370.16ZM497.247 366.11C497.127 358.79 494.547 355.13 489.507 355.13C487.047 355.13 485.127 356.03 483.747 357.83C482.427 359.63 481.617 362.6 481.317 366.74H497.247V366.11ZM547.175 345.68C551.315 345.68 554.555 346.94 556.895 349.46C559.235 351.98 560.405 355.52 560.405 360.08V395H546.185V362.51C546.185 360.11 545.795 358.46 545.015 357.56C544.295 356.6 543.185 356.12 541.685 356.12C538.805 356.12 536.045 358.19 533.405 362.33V395H519.185V347.21H531.605L532.595 352.88C534.635 350.48 536.825 348.68 539.165 347.48C541.565 346.28 544.235 345.68 547.175 345.68Z" fill="white"/>
<path d="M876.293 144.644L838.195 147.65L1077.92 8.30325C1096.96 -2.76775 1120.48 -2.76775 1139.52 8.30325L891.147 153.282L876.293 144.644Z" fill="url(#paint1_linear)"/>
<path d="M578.526 576.417V694.379L582.793 696.829V691.893L607.475 677.489V559.281C607.486 557.38 606.927 555.519 605.87 553.939L607.034 553.446L602.838 551.048L602.344 550.766C599.37 549.171 595.772 549.275 592.895 551.039C584 556.397 578.563 566.025 578.57 576.408L578.526 576.417Z" fill="url(#paint2_linear)"/>
<path d="M611.706 561.677V679.947L582.828 696.827V578.866C582.83 568.48 588.268 558.852 597.161 553.488C600.125 551.696 603.823 551.637 606.842 553.335C609.861 555.032 611.732 558.223 611.741 561.686L611.706 561.677Z" fill="url(#paint3_linear)"/>
<path d="M1059.48 569.214L1172.47 503.102L1032.31 420.427L991.655 532.191L1059.48 569.214Z" fill="url(#paint4_linear)"/>
<path d="M1059.48 589.11L876.295 482.45V465.278L1059.48 569.215V589.11Z" fill="url(#paint5_linear)"/>
<path d="M876.295 385.934L1095.26 256.672V46.1543L876.295 174.27" fill="url(#paint6_linear)"/>
<path d="M825.899 173.653V453.086L876.294 482.44V144.669C865.925 138.611 853.106 138.567 842.696 144.555C832.286 150.542 825.877 161.644 825.899 173.653Z" fill="url(#paint7_linear)"/>
<path d="M566 571.207C565.975 573.942 567.175 576.546 569.271 578.303C569.685 578.629 570.152 578.973 570.655 579.299L736.419 676.537L732.012 668.929L1357.87 295.177L1197.92 200.857C1191.52 197.111 1183.59 197.111 1177.18 200.857L578.509 549.47C570.773 553.978 566.011 562.253 566 571.207Z" fill="url(#paint8_linear)"/>
<path opacity="0.2" d="M591.51 541.896L584.996 545.696L764.635 649.421L771.079 645.578L591.51 541.896Z" fill="white"/>
<path opacity="0.2" d="M647.106 509.503L640.583 513.302L819.526 616.613L825.952 612.779L647.106 509.503Z" fill="white"/>
<path opacity="0.2" d="M702.71 477.142L696.205 480.941L874.443 583.846L880.878 580.012L702.71 477.142Z" fill="white"/>
<path opacity="0.2" d="M758.306 444.748L751.783 448.547L929.342 551.065L935.786 547.23L758.306 444.748Z" fill="white"/>
<path opacity="0.2" d="M813.893 412.37L807.37 416.169L984.242 518.317L990.685 514.482L813.893 412.37Z" fill="white"/>
<path opacity="0.2" d="M1031.31 480.978C1031.8 481.266 1032.37 481.416 1032.94 481.41C1034.47 481.477 1035.84 480.469 1036.24 478.987C1036.63 477.504 1035.95 475.946 1034.58 475.24L869.48 379.924L862.939 383.723L1031.31 480.978Z" fill="white"/>
<path opacity="0.2" d="M1074.86 441.626C1075.36 441.902 1075.93 442.05 1076.5 442.058C1077.97 442.047 1079.26 441.051 1079.64 439.625C1080.02 438.199 1079.4 436.695 1078.13 435.95L925.085 347.615L918.544 351.414L1074.86 441.626Z" fill="white"/>
<path opacity="0.2" d="M1118.41 402.313C1118.91 402.595 1119.48 402.744 1120.05 402.745C1121.53 402.746 1122.82 401.758 1123.21 400.333C1123.6 398.909 1122.98 397.401 1121.71 396.654L980.672 315.23L974.122 319.03L1118.41 402.313Z" fill="white"/>
<path d="M1361.04 302.175C1361.04 311.364 1356.16 319.862 1348.22 324.494L745.446 676.43C742.629 678.024 739.18 678.014 736.372 676.403C733.564 674.793 731.813 671.821 731.766 668.585C731.768 659.4 736.643 650.907 744.574 646.274L1347.34 294.32C1350.16 292.718 1353.61 292.723 1356.43 294.334C1359.24 295.946 1360.99 298.924 1361.04 302.166V302.175Z" fill="url(#paint9_linear)"/>
<path d="M1182.16 321.72L1182.35 336.123C1182.14 342.815 1179.16 349.119 1174.12 353.524C1157.79 369.391 1122.56 374.75 1095.4 365.503C1091.74 364.289 1088.2 362.743 1084.82 360.884C1073.73 354.714 1067.68 346.199 1067.58 337.463L1067.4 323.06C1067.52 331.795 1073.57 340.293 1084.65 346.481C1088.03 348.341 1091.57 349.887 1095.23 351.1C1122.37 360.347 1157.62 355.023 1173.96 339.12C1179.02 334.734 1182 328.416 1182.16 321.72Z" fill="url(#paint10_linear)"/>
<path d="M1182.16 321.719L1182.35 336.122V336.625L1182.18 322.23V321.719" fill="url(#paint11_linear)"/>
<path d="M1181.84 325.483C1181.63 326.575 1181.34 327.649 1180.96 328.692C1180.55 329.818 1180.06 330.912 1179.48 331.962C1178.82 333.169 1178.07 334.327 1177.24 335.426C1176.22 336.732 1175.12 337.964 1173.93 339.111L1173.67 339.358C1171.45 341.451 1169.02 343.309 1166.42 344.902C1162.3 347.409 1157.9 349.44 1153.32 350.958C1149.76 352.164 1146.12 353.127 1142.43 353.841C1140.02 354.317 1137.56 354.722 1135.07 354.978C1132.98 355.225 1130.86 355.401 1128.74 355.507C1126.61 355.613 1124.81 355.639 1122.9 355.613C1120.99 355.586 1119.15 355.533 1117.29 355.401C1115.43 355.269 1113.59 355.101 1111.76 354.863C1109.92 354.625 1107.96 354.326 1106.09 353.982C1104.22 353.638 1102.02 353.1 1100.04 352.598C1098.39 352.148 1096.76 351.663 1095.16 351.126C1094.42 350.879 1093.71 350.614 1093 350.35C1090.11 349.276 1087.31 347.988 1084.62 346.498C1073.51 340.327 1067.48 331.812 1067.38 323.077L1067.54 337.48C1067.65 346.216 1073.71 354.713 1084.78 360.901C1087.48 362.392 1090.28 363.679 1093.17 364.754C1093.87 365.018 1094.59 365.283 1095.33 365.529C1096.93 366.076 1098.55 366.561 1100.21 367.001C1102.2 367.53 1104.21 367.992 1106.26 368.385C1108.29 368.773 1110.02 369.055 1111.93 369.267C1113.83 369.478 1115.62 369.672 1117.46 369.805C1119.3 369.937 1121.19 369.998 1123.07 370.016C1124.95 370.034 1126.99 370.016 1128.9 369.91C1130.82 369.805 1133.16 369.619 1135.26 369.381C1137.74 369.099 1140.2 368.72 1142.61 368.244C1146.3 367.535 1149.94 366.574 1153.5 365.371C1158.08 363.853 1162.47 361.821 1166.6 359.315C1169.19 357.714 1171.62 355.856 1173.85 353.77L1174.1 353.532C1175.28 352.377 1176.38 351.143 1177.39 349.839C1178.22 348.741 1178.97 347.586 1179.64 346.383C1180.22 345.334 1180.71 344.24 1181.11 343.113C1181.5 342.071 1181.8 340.997 1182 339.904C1182.19 338.83 1182.3 337.743 1182.32 336.652L1182.14 322.248C1182.13 323.333 1182.03 324.416 1181.84 325.483Z" fill="#4C68EF"/>
<path d="M1100.12 354.573C1102.1 355.111 1104.13 355.569 1106.17 355.957C1108.21 356.345 1109.94 356.627 1111.84 356.839C1113.73 357.05 1115.52 357.244 1117.38 357.368C1119.24 357.491 1121.11 357.57 1122.98 357.579C1124.85 357.588 1126.9 357.579 1128.82 357.473C1130.75 357.368 1133.06 357.191 1135.16 356.953C1137.65 356.662 1140.11 356.283 1142.51 355.807C1146.2 355.093 1149.84 354.133 1153.41 352.934C1157.99 351.409 1162.38 349.374 1166.5 346.869C1169.1 345.277 1171.54 343.416 1173.75 341.316L1174.02 341.069C1175.21 339.917 1176.31 338.68 1177.31 337.366C1178.15 336.283 1178.91 335.137 1179.57 333.937C1180.14 332.883 1180.64 331.787 1181.04 330.658C1181.42 329.616 1181.72 328.547 1181.92 327.458C1182.13 326.383 1182.24 325.292 1182.25 324.197V322.311C1182.21 324.485 1181.81 326.638 1181.07 328.684C1180.67 329.81 1180.18 330.903 1179.61 331.954C1178.94 333.16 1178.19 334.315 1177.35 335.41C1176.34 336.72 1175.24 337.954 1174.05 339.103L1173.79 339.35C1171.57 341.44 1169.14 343.295 1166.53 344.886C1162.41 347.398 1158.02 349.433 1153.43 350.95C1149.88 352.157 1146.24 353.12 1142.55 353.833C1140.13 354.3 1137.67 354.714 1135.19 354.97C1133.1 355.217 1130.97 355.393 1128.86 355.499C1126.74 355.605 1124.94 355.622 1123.01 355.605C1121.09 355.587 1119.27 355.508 1117.41 355.393C1115.55 355.278 1113.71 355.093 1111.87 354.855C1110.04 354.617 1108.07 354.318 1106.2 353.974C1104.34 353.63 1102.13 353.092 1100.16 352.581C1098.51 352.14 1096.87 351.655 1095.27 351.109C1094.53 350.871 1093.82 350.606 1093.11 350.342C1090.23 349.266 1087.43 347.978 1084.73 346.49C1073.63 340.319 1067.6 331.804 1067.49 323.069V325.193C1067.66 333.867 1073.66 342.312 1084.73 348.482C1087.42 349.973 1090.23 351.258 1093.11 352.325C1093.82 352.59 1094.53 352.854 1095.27 353.101C1096.86 353.675 1098.48 354.166 1100.12 354.573Z" fill="white"/>
<path d="M1164.92 298.087C1183.51 308.453 1187.93 325.316 1173.96 338.891C1157.61 354.758 1122.37 360.117 1095.23 350.87C1091.57 349.658 1088.03 348.111 1084.65 346.251C1066.04 335.885 1061.64 319.004 1075.62 305.429C1091.94 289.562 1127.19 284.203 1154.32 293.45C1157.99 294.674 1161.53 296.226 1164.92 298.087Z" fill="#4C68EF"/>
<path d="M1156.9 302.564C1171.78 310.859 1175.31 324.363 1164.12 335.232C1151.03 347.917 1122.83 352.254 1101.09 344.814C1098.17 343.833 1095.35 342.595 1092.65 341.112C1077.77 332.808 1074.24 319.312 1085.42 308.444C1098.52 295.75 1126.72 291.422 1148.45 298.853C1151.37 299.831 1154.2 301.073 1156.9 302.564Z" fill="#4C68EF"/>
<path d="M1158.73 301.436C1155.88 299.867 1152.89 298.554 1149.8 297.513C1126.82 289.668 1097.01 294.225 1083.18 307.65C1071.4 319.11 1075.1 333.39 1090.82 342.169C1093.67 343.747 1096.66 345.06 1099.74 346.092C1122.71 353.937 1152.54 349.38 1166.37 335.972C1178.2 324.478 1174.48 310.206 1158.73 301.436ZM1164.12 335.197C1151.03 347.89 1122.83 352.218 1101.09 344.779C1098.17 343.806 1095.34 342.567 1092.65 341.076C1077.77 332.781 1074.24 319.277 1085.42 308.408C1098.52 295.724 1126.72 291.387 1148.45 298.826C1151.37 299.805 1154.2 301.044 1156.9 302.529C1171.78 310.832 1175.31 324.337 1164.12 335.206V335.197Z" fill="white"/>
<path d="M1107.95 314.905C1112.92 312.874 1118.37 312.264 1123.67 313.142C1124.84 313.338 1125.99 313.6 1127.13 313.927C1128.37 314.314 1129.7 314.245 1130.89 313.733L1139.45 309.325L1147.3 314.561L1138.72 318.969C1137.74 319.462 1137.41 320.282 1137.84 321.023C1140.39 325.174 1138.44 329.67 1132.68 332.597C1124.06 336.476 1114.08 335.917 1105.94 331.098C1098.83 326.338 1099.25 319.313 1106.92 315.381C1107.22 315.231 1107.58 315.081 1107.95 314.905Z" fill="white"/>
<path d="M1139.16 309.66L1146.67 314.658C1146.76 314.705 1146.8 314.818 1146.75 314.913C1146.74 314.953 1146.71 314.985 1146.67 315.002C1146.49 315.09 1146.27 315.09 1146.09 315.002L1138.57 310.004C1138.48 309.953 1138.45 309.843 1138.49 309.748C1138.51 309.71 1138.54 309.68 1138.57 309.66C1138.76 309.571 1138.97 309.571 1139.16 309.66ZM1140.75 308.849C1139.64 308.18 1138.28 308.1 1137.1 308.637C1136.5 308.82 1136.16 309.453 1136.33 310.056C1136.43 310.378 1136.66 310.64 1136.97 310.77L1144.47 315.777C1145.58 316.445 1146.95 316.521 1148.12 315.98C1148.58 315.845 1148.9 315.437 1148.93 314.96C1148.96 314.482 1148.69 314.038 1148.25 313.847L1140.75 308.849Z" fill="white"/>
<path d="M1109.05 317.92C1103.27 320.864 1102.98 326.18 1108.4 329.794C1111.45 331.68 1114.94 332.732 1118.53 332.844C1121.61 333.071 1124.7 332.626 1127.6 331.539C1126.91 329.819 1125.67 328.377 1124.07 327.44C1121.05 325.457 1115.71 324.937 1111.95 321.675C1110.72 320.649 1109.73 319.368 1109.05 317.92Z" fill="#4C68EF"/>
<path d="M1355.02 305.664C1355.03 311.131 1352.12 316.189 1347.4 318.94L745.905 670.814C744.23 671.794 742.158 671.802 740.475 670.835C738.793 669.868 737.757 668.074 737.76 666.133C737.755 660.679 740.635 655.63 745.332 652.858L1346.81 300.984C1348.04 300.248 1349.51 300.031 1350.9 300.382C1352.29 300.732 1353.49 301.621 1354.22 302.852C1354.75 303.697 1355.02 304.671 1355.02 305.664Z" fill="#4C68EF"/>
<path d="M873.142 144.643L1053.12 249.382C1090.09 270.907 1112.83 310.46 1112.83 353.239V622.006L1361.5 477.23V208.507C1361.5 165.73 1338.76 126.175 1301.8 104.641L1136.3 8.32025L1110.12 6.01074L873.142 144.643Z" fill="url(#paint12_linear)"/>
<path d="M866.542 138.783V191.981L1068.46 309.552V256.344L866.542 138.783Z" fill="url(#paint13_linear)"/>
<path d="M733.686 675.46V793.422L737.952 795.855V790.936L762.634 776.532V658.315C762.646 656.413 762.084 654.551 761.021 652.974L762.202 652.489L757.997 650.091L757.512 649.8C754.534 648.212 750.939 648.312 748.054 650.065C739.165 655.437 733.732 665.066 733.73 675.452L733.686 675.46Z" fill="url(#paint14_linear)"/>
<path d="M766.865 660.758V779.019L737.97 795.856V677.868C737.972 667.48 743.409 657.85 752.303 652.481C755.275 650.69 758.982 650.64 762.002 652.349C765.022 654.058 766.887 657.262 766.883 660.732L766.865 660.758Z" fill="url(#paint15_linear)"/>
<path d="M1000.51 519.04V637.01L1004.78 639.46V634.533L1029.46 620.129V501.903C1029.47 500.001 1028.91 498.139 1027.85 496.562L1029.01 496.068L1024.8 493.635L1024.31 493.353C1022.92 492.621 1021.38 492.235 1019.81 492.225C1018.06 492.224 1016.35 492.709 1014.86 493.626C1005.96 498.988 1000.52 508.617 1000.52 519.004L1000.51 519.04Z" fill="url(#paint16_linear)"/>
<path d="M1033.7 504.346V622.616L1004.78 639.452V521.491C1004.78 511.105 1010.22 501.477 1019.11 496.113C1022.08 494.317 1025.79 494.262 1028.81 495.971C1031.84 497.679 1033.7 500.884 1033.69 504.355L1033.7 504.346Z" fill="url(#paint17_linear)"/>
<path d="M861.855 272.152L831.108 254.258V324.971L861.864 342.901L861.855 272.152Z" fill="url(#paint18_linear)"/>
<path d="M866.985 269.243L836.23 251.349L831.108 254.258L861.855 272.152L866.985 269.243Z" fill="url(#paint19_linear)"/>
<path d="M866.986 269.242V339.956L861.864 342.864V272.151L866.986 269.242Z" fill="url(#paint20_linear)"/>
<path d="M857.519 274.584L835.481 261.74V283.619L857.519 296.462V274.584Z" fill="#4C68EF"/>
<path d="M857.519 302.351L852.045 299.16V304.581L857.519 307.772V302.351Z" fill="white"/>
<path d="M849.215 297.539L843.75 294.348V299.786L849.206 302.969L849.215 297.539Z" fill="white"/>
<path d="M840.928 292.601L835.454 289.41V294.831L840.928 298.022V292.601Z" fill="white"/>
<path d="M857.519 311.458L852.045 308.267V313.688L857.519 316.879V311.458Z" fill="white"/>
<path d="M849.215 306.681L843.75 303.499V308.929L849.206 312.111L849.215 306.681Z" fill="white"/>
<path d="M840.928 301.752L835.454 298.569V303.999L840.928 307.182V301.752Z" fill="white"/>
<path d="M857.519 320.608L852.045 317.426V322.847L857.519 326.029V320.608Z" fill="white"/>
<path d="M849.215 315.838L843.75 312.656V318.086L849.206 321.277L849.215 315.838Z" fill="white"/>
<path d="M840.928 310.92L835.454 307.729V313.159L840.928 316.35V310.92Z" fill="white"/>
<path d="M857.519 329.757L852.045 326.575V331.996L857.519 335.179V329.757Z" fill="#ED1B1C"/>
<path d="M849.215 324.989L843.75 321.807V327.237L849.206 330.428L849.215 324.989Z" fill="#D7E4F9"/>
<path d="M840.928 320.071L835.454 316.88V322.319L840.928 325.501V320.071Z" fill="#7CED14"/>
<path d="M1025.94 247.523V271.967L903.734 200.743V176.299L1025.94 247.523Z" fill="url(#paint21_linear)"/>
<path d="M1029.44 245.496V269.922L1025.91 271.967V247.524L1029.44 245.496Z" fill="url(#paint22_linear)"/>
<path d="M1029.44 245.495L907.216 174.271L903.69 176.316L1025.94 247.523L1029.44 245.495Z" fill="url(#paint23_linear)"/>
<path d="M1020.47 261.153V263.471L908.979 198.091V184.868L910.831 185.952V196.865L1020.47 261.153Z" fill="url(#paint24_linear)"/>
<path d="M1020.47 250.255V261.15L910.849 196.872V185.994L1020.47 250.255Z" fill="#4C68EF"/>
<path d="M1128.2 561.589V602.79L1147.25 591.719V550.5L1128.2 561.589Z" fill="url(#paint25_linear)"/>
<path opacity="0.28" d="M1232.19 469.933H1150.76V577.722H1232.19V469.933Z" fill="url(#paint26_linear)"/>
<path d="M1232.19 610.346V627.535C1232.19 641.048 1213.97 651.996 1191.47 651.996C1168.98 651.996 1150.76 641.048 1150.76 627.535V610.346H1232.19Z" fill="url(#paint27_linear)"/>
<path d="M1191.47 634.797C1213.96 634.797 1232.19 623.849 1232.19 610.344C1232.19 596.839 1213.96 585.892 1191.47 585.892C1168.99 585.892 1150.76 596.839 1150.76 610.344C1150.76 623.849 1168.99 634.797 1191.47 634.797Z" fill="url(#paint28_linear)"/>
<path d="M1191.47 629.412C1209.01 629.412 1223.22 620.875 1223.22 610.345C1223.22 599.815 1209.01 591.278 1191.47 591.278C1173.94 591.278 1159.72 599.815 1159.72 610.345C1159.72 620.875 1173.94 629.412 1191.47 629.412Z" fill="url(#paint29_linear)"/>
<path d="M1159.58 532.685L1157.13 534.307C1157.54 533.972 1158.01 533.645 1158.43 533.346V533.24L1159.58 532.685Z" fill="#F39600"/>
<path d="M1191.47 624.045C1204.06 624.045 1214.27 617.912 1214.27 610.347C1214.27 602.781 1204.06 596.648 1191.47 596.648C1178.88 596.648 1168.68 602.781 1168.68 610.347C1168.68 617.912 1178.88 624.045 1191.47 624.045Z" fill="#475254"/>
<path d="M1232.19 577.738V595.007C1232.19 608.511 1213.97 619.468 1191.47 619.468C1168.98 619.468 1150.76 608.511 1150.76 595.007V577.738H1232.19Z" fill="url(#paint30_linear)"/>
<path d="M1191.47 602.191C1213.96 602.191 1232.19 591.244 1232.19 577.739C1232.19 564.234 1213.96 553.286 1191.47 553.286C1168.99 553.286 1150.76 564.234 1150.76 577.739C1150.76 591.244 1168.99 602.191 1191.47 602.191Z" fill="#FEED00"/>
<path d="M1235.31 471.916V484.345C1235.31 498.89 1215.67 510.675 1191.47 510.675C1167.27 510.675 1147.63 498.89 1147.63 484.345V471.916H1235.31Z" fill="url(#paint31_linear)"/>
<path d="M1191.47 498.245C1215.68 498.245 1235.31 486.457 1235.31 471.915C1235.31 457.373 1215.68 445.585 1191.47 445.585C1167.26 445.585 1147.63 457.373 1147.63 471.915C1147.63 486.457 1167.26 498.245 1191.47 498.245Z" fill="url(#paint32_linear)"/>
<path d="M1209.57 459.874V467.534C1209.57 473.546 1201.47 478.412 1191.45 478.412C1181.42 478.412 1173.33 473.546 1173.33 467.534V459.874H1209.57Z" fill="url(#paint33_linear)"/>
<path d="M1191.47 470.751C1201.48 470.751 1209.6 465.881 1209.6 459.874C1209.6 453.866 1201.48 448.996 1191.47 448.996C1181.46 448.996 1173.35 453.866 1173.35 459.874C1173.35 465.881 1181.46 470.751 1191.47 470.751Z" fill="url(#paint34_linear)"/>
<path d="M1191.47 465.357C1196.51 465.357 1200.6 462.903 1200.6 459.874C1200.6 456.846 1196.51 454.392 1191.47 454.392C1186.43 454.392 1182.35 456.846 1182.35 459.874C1182.35 462.903 1186.43 465.357 1191.47 465.357Z" fill="#F39600"/>
<path d="M1201.23 459.873V428.722C1201.79 415.405 1194.92 402.875 1183.4 396.177L1148.55 375.947C1145.31 374.078 1141.32 374.078 1138.08 375.947C1135.87 377.23 1134.27 379.338 1133.62 381.807C1132.96 384.276 1133.32 386.902 1134.61 389.107C1135.41 390.499 1136.56 391.664 1137.94 392.492L1172.45 413.419C1178.15 416.893 1181.63 423.093 1181.62 429.77V459.882C1181.62 459.882 1182.92 465.339 1191.88 465.339C1200.83 465.339 1201.23 459.873 1201.23 459.873Z" fill="url(#paint35_linear)"/>
<path opacity="0.28" d="M1315.51 435.086H1234.07V542.875H1315.51V435.086Z" fill="url(#paint36_linear)"/>
<path d="M1315.52 575.499V592.688C1315.52 606.193 1297.28 617.141 1274.8 617.141C1252.32 617.141 1234.07 606.193 1234.07 592.688V575.499H1315.52Z" fill="url(#paint37_linear)"/>
<path d="M1274.8 599.952C1297.29 599.952 1315.52 589.004 1315.52 575.499C1315.52 561.995 1297.29 551.047 1274.8 551.047C1252.31 551.047 1234.08 561.995 1234.08 575.499C1234.08 589.004 1252.31 599.952 1274.8 599.952Z" fill="url(#paint38_linear)"/>
<path d="M1274.8 594.566C1292.34 594.566 1306.55 586.03 1306.55 575.499C1306.55 564.969 1292.34 556.433 1274.8 556.433C1257.26 556.433 1243.05 564.969 1243.05 575.499C1243.05 586.03 1257.26 594.566 1274.8 594.566Z" fill="url(#paint39_linear)"/>
<path d="M1242.89 497.84L1240.42 499.453L1241.74 498.501V498.395L1242.89 497.84Z" fill="#F39600"/>
<path d="M1274.8 589.189C1287.39 589.189 1297.59 583.056 1297.59 575.49C1297.59 567.925 1287.39 561.792 1274.8 561.792C1262.21 561.792 1252 567.925 1252 575.49C1252 583.056 1262.21 589.189 1274.8 589.189Z" fill="#475254"/>
<path d="M1315.52 542.885V560.153C1315.52 573.658 1297.28 584.606 1274.8 584.606C1252.32 584.606 1234.07 573.658 1234.07 560.153V542.885H1315.52Z" fill="url(#paint40_linear)"/>
<path d="M1274.8 567.336C1297.29 567.336 1315.52 556.388 1315.52 542.883C1315.52 529.378 1297.29 518.431 1274.8 518.431C1252.31 518.431 1234.08 529.378 1234.08 542.883C1234.08 556.388 1252.31 567.336 1274.8 567.336Z" fill="#FEED00"/>
<path d="M1318.64 437.078V449.49C1318.64 464.034 1299 475.837 1274.8 475.837C1250.6 475.837 1230.95 464.052 1230.95 449.49V437.078H1318.64Z" fill="url(#paint41_linear)"/>
<path d="M1274.8 463.409C1299.01 463.409 1318.64 451.621 1318.64 437.079C1318.64 422.537 1299.01 410.749 1274.8 410.749C1250.59 410.749 1230.96 422.537 1230.96 437.079C1230.96 451.621 1250.59 463.409 1274.8 463.409Z" fill="url(#paint42_linear)"/>
<path d="M1292.91 425.028V432.68C1292.91 438.7 1284.8 443.575 1274.8 443.575C1264.79 443.575 1256.68 438.7 1256.68 432.68V425.028H1292.91Z" fill="url(#paint43_linear)"/>
<path d="M1274.8 435.907C1284.81 435.907 1292.92 431.037 1292.92 425.029C1292.92 419.021 1284.81 414.151 1274.8 414.151C1264.79 414.151 1256.68 419.021 1256.68 425.029C1256.68 431.037 1264.79 435.907 1274.8 435.907Z" fill="url(#paint44_linear)"/>
<path d="M1274.8 430.52C1279.84 430.52 1283.92 428.066 1283.92 425.038C1283.92 422.009 1279.84 419.555 1274.8 419.555C1269.76 419.555 1265.67 422.009 1265.67 425.038C1265.67 428.066 1269.76 430.52 1274.8 430.52Z" fill="#F39600"/>
<path d="M1284.55 425.029V393.877C1285.08 380.579 1278.21 368.079 1266.69 361.411L1231.84 341.137C1228.6 339.268 1224.61 339.268 1221.37 341.137C1218.43 342.847 1216.62 345.978 1216.59 349.376C1216.55 352.774 1218.32 355.937 1221.22 357.7L1255.72 378.653C1261.42 382.131 1264.89 388.329 1264.88 395.005V425.117C1264.88 425.117 1266.2 430.564 1275.15 430.564C1284.11 430.564 1284.55 425.029 1284.55 425.029Z" fill="url(#paint45_linear)"/>
<path opacity="0.28" d="M1396.52 390.968H1315.08V498.757H1396.52V390.968Z" fill="url(#paint46_linear)"/>
<path d="M1396.52 531.371V548.587C1396.52 562.091 1378.3 573.048 1355.8 573.048C1333.3 573.048 1315.08 562.091 1315.08 548.587V531.371H1396.52Z" fill="url(#paint47_linear)"/>
<path d="M1355.8 555.824C1378.29 555.824 1396.52 544.876 1396.52 531.372C1396.52 517.867 1378.29 506.919 1355.8 506.919C1333.31 506.919 1315.08 517.867 1315.08 531.372C1315.08 544.876 1333.31 555.824 1355.8 555.824Z" fill="url(#paint48_linear)"/>
<path d="M1355.8 550.439C1373.34 550.439 1387.55 541.903 1387.55 531.372C1387.55 520.842 1373.34 512.306 1355.8 512.306C1338.26 512.306 1324.05 520.842 1324.05 531.372C1324.05 541.903 1338.26 550.439 1355.8 550.439Z" fill="url(#paint49_linear)"/>
<path d="M1323.9 453.721L1321.45 455.343C1321.87 455.017 1322.33 454.69 1322.75 454.382V454.32L1323.9 453.721Z" fill="#F39600"/>
<path d="M1355.8 545.071C1368.39 545.071 1378.59 538.938 1378.59 531.372C1378.59 523.807 1368.39 517.674 1355.8 517.674C1343.21 517.674 1333 523.807 1333 531.372C1333 538.938 1343.21 545.071 1355.8 545.071Z" fill="#475254"/>
<path d="M1396.52 498.757V516.025C1396.52 529.539 1378.3 540.487 1355.8 540.487C1333.3 540.487 1315.08 529.539 1315.08 516.025V498.757H1396.52Z" fill="url(#paint50_linear)"/>
<path d="M1355.8 523.21C1378.29 523.21 1396.52 512.262 1396.52 498.757C1396.52 485.252 1378.29 474.305 1355.8 474.305C1333.31 474.305 1315.08 485.252 1315.08 498.757C1315.08 512.262 1333.31 523.21 1355.8 523.21Z" fill="#FEED00"/>
<path d="M1399.64 392.96V405.389C1399.64 419.934 1380 431.719 1355.8 431.719C1331.6 431.719 1311.96 419.934 1311.96 405.389V392.96H1399.64Z" fill="url(#paint51_linear)"/>
<path d="M1355.8 419.29C1380.01 419.29 1399.64 407.502 1399.64 392.96C1399.64 378.418 1380.01 366.63 1355.8 366.63C1331.59 366.63 1311.96 378.418 1311.96 392.96C1311.96 407.502 1331.59 419.29 1355.8 419.29Z" fill="url(#paint52_linear)"/>
<path d="M1373.92 380.91V388.57C1373.92 394.582 1365.81 399.448 1355.8 399.448C1345.8 399.448 1337.69 394.582 1337.69 388.57V380.91H1373.92Z" fill="url(#paint53_linear)"/>
<path d="M1355.8 391.786C1365.81 391.786 1373.92 386.916 1373.92 380.909C1373.92 374.901 1365.81 370.031 1355.8 370.031C1345.79 370.031 1337.68 374.901 1337.68 380.909C1337.68 386.916 1345.79 391.786 1355.8 391.786Z" fill="url(#paint54_linear)"/>
<path d="M1355.8 386.393C1360.84 386.393 1364.92 383.938 1364.92 380.91C1364.92 377.882 1360.84 375.427 1355.8 375.427C1350.76 375.427 1346.68 377.882 1346.68 380.91C1346.68 383.938 1350.76 386.393 1355.8 386.393Z" fill="#F39600"/>
<path d="M1365.59 380.911V349.768C1366.15 336.448 1359.29 323.914 1347.76 317.214L1312.92 296.94C1309.68 295.071 1305.69 295.071 1302.45 296.94C1299.51 298.643 1297.69 301.774 1297.66 305.172C1297.63 308.571 1299.4 311.732 1302.31 313.485L1336.82 334.438C1342.52 337.933 1345.98 344.151 1345.94 350.834V380.946C1345.94 380.946 1347.25 386.402 1356.21 386.402C1365.16 386.402 1365.59 380.911 1365.59 380.911Z" fill="url(#paint55_linear)"/>
<path d="M1292.73 126.52C1299.19 130.249 1299.22 136.287 1292.73 140.016L1124.45 237.861C1117.13 241.59 1108.47 241.59 1101.15 237.861L931.687 140.016C925.235 136.287 925.208 130.249 931.625 126.52L1099.99 28.6745C1107.31 24.9457 1115.98 24.9457 1123.3 28.6745L1292.73 126.52Z" fill="url(#paint56_linear)"/>
<path d="M1099.07 42.1177L931.167 139.69L931.687 140.025L1101.15 237.836C1108.46 241.573 1117.13 241.573 1124.45 237.836L1292.34 140.263L1291.83 139.937L1122.42 42.0913C1115.08 38.3887 1106.41 38.3985 1099.07 42.1177Z" fill="url(#paint57_linear)"/>
<path d="M1112.15 158.245C1111.94 158.255 1111.73 158.199 1111.55 158.087L1027.22 109.402C1026.65 109.071 1026.45 108.339 1026.77 107.762C1027.1 107.192 1027.83 106.995 1028.4 107.321L1112.74 156.024C1113.02 156.179 1113.22 156.438 1113.3 156.743C1113.39 157.048 1113.34 157.373 1113.19 157.646C1112.98 158.023 1112.58 158.254 1112.15 158.245H1112.15Z" fill="white"/>
<path d="M1158.88 131.289C1158.68 131.287 1158.47 131.226 1158.3 131.112L1074 82.4892C1073.72 82.3372 1073.52 82.0821 1073.44 81.7808C1073.35 81.4795 1073.39 81.1569 1073.55 80.8849C1073.89 80.321 1074.61 80.1296 1075.19 80.453L1159.47 129.085C1159.95 129.355 1160.18 129.91 1160.04 130.435C1159.9 130.961 1159.42 131.325 1158.87 131.324L1158.88 131.289Z" fill="white"/>
<path d="M1018.34 151.37L1053.11 171.644L1176.73 91.8341L1151.39 75.8086L1147.15 82.5344L1140.37 91.9223L1129.2 101.196L1122.82 106.388L1112.24 111.483L1098.47 115.969L1074.31 121.858L1050.86 125.243L1033.27 132.709L1021.7 144.107L1018.34 151.37Z" fill="url(#paint58_linear)"/>
<path d="M1018.34 151.369C1018.18 151.366 1018.03 151.337 1017.89 151.28C1017.28 151.039 1016.98 150.349 1017.22 149.738C1017.57 148.856 1026.24 128.106 1055.3 123.293C1058.74 122.72 1062.35 122.226 1066.11 121.689C1093.43 117.766 1127.52 112.962 1149.7 76.2389C1150.1 75.7684 1150.78 75.6646 1151.3 75.9959C1151.82 76.3272 1152.02 76.9919 1151.76 77.5524C1128.96 115.183 1094.29 120.102 1066.44 124.06C1062.67 124.598 1059.11 125.091 1055.7 125.664C1044.9 127.227 1034.88 132.196 1027.1 139.847C1023.94 142.953 1021.35 146.598 1019.47 150.61C1019.28 151.066 1018.83 151.364 1018.34 151.369Z" fill="url(#paint59_linear)"/>
<path d="M1038.56 163.261L1042.86 153.979L1047.76 148.743L1051.59 146.098L1067.27 137.512L1073.33 135.423L1080.93 133.025L1087.62 127.789L1091.15 123.047L1093.79 117.476L1098.09 101.098C1098.09 101.098 1101 86.9323 1102.84 84.5346C1104.67 82.1369 1110.55 74.1506 1110.55 74.1506L1114.54 72.0527L1118.19 68.9498L1124.43 67.5747L1129.11 65.6178L1131.8 65.0889L1172.35 87.9195L1056.43 173.424L1038.56 163.261Z" fill="url(#paint60_linear)"/>
<path d="M1038.34 164.556H1038.2C1037.55 164.478 1037.08 163.894 1037.15 163.243C1037.25 162.459 1039.79 143.85 1074.84 133.951C1090.05 129.685 1093.18 116.621 1096.46 102.781C1100.55 85.6805 1104.78 67.9978 1131.3 64.5159C1131.62 64.4839 1131.93 64.5784 1132.17 64.7785C1132.42 64.9786 1132.57 65.2679 1132.61 65.5825C1132.67 66.2108 1132.23 66.7794 1131.61 66.8871C1106.73 70.1574 1102.69 87.0292 1098.79 103.346C1095.46 117.238 1092.03 131.615 1075.5 136.261C1057.95 141.179 1049.14 148.355 1044.79 153.503C1042.18 156.312 1040.37 159.77 1039.56 163.516C1039.47 164.126 1038.94 164.575 1038.33 164.556H1038.34Z" fill="#4C68EF"/>
<path d="M1069.95 182.54C1069.74 182.539 1069.53 182.488 1069.35 182.39L984.964 133.696C984.435 133.346 984.27 132.645 984.588 132.096C984.906 131.547 985.596 131.34 986.163 131.625L1070.5 180.318C1071.07 180.648 1071.27 181.37 1070.95 181.94C1070.73 182.319 1070.33 182.549 1069.9 182.54H1069.95Z" fill="white"/>
<path d="M1202.3 106.369C1202.1 106.373 1201.89 106.314 1201.71 106.202L1117.31 57.5084C1116.91 57.3119 1116.64 56.9043 1116.64 56.4535C1116.63 56.0027 1116.87 55.5849 1117.27 55.3722C1117.67 55.1595 1118.15 55.1879 1118.52 55.4457L1202.85 104.13C1203.43 104.461 1203.63 105.193 1203.3 105.77C1203.09 106.125 1202.72 106.35 1202.3 106.369Z" fill="white"/>
<path d="M1132 178.22C1122.68 173.487 1111.67 173.487 1102.35 178.22C1099.45 179.633 1097.29 182.227 1096.43 185.342L1101.67 184.963C1102.5 182.942 1104.02 181.285 1105.97 180.291C1113.04 176.685 1121.4 176.685 1128.47 180.291C1134.7 183.888 1134.73 189.732 1128.54 193.381C1125.52 195.015 1122.16 195.921 1118.73 196.026L1118.61 198.952C1123.33 198.874 1127.97 197.665 1132.13 195.426C1140.28 190.658 1140.23 182.962 1132 178.22Z" fill="url(#paint61_linear)"/>
<path d="M1105.04 194.112C1112.72 198.044 1121.81 198.044 1129.49 194.112C1131.88 192.955 1133.66 190.818 1134.37 188.25L1130.08 188.568C1129.4 190.232 1128.15 191.597 1126.55 192.411C1120.74 195.39 1113.86 195.41 1108.04 192.464C1102.89 189.493 1102.87 184.689 1107.98 181.71C1110.46 180.36 1113.23 179.612 1116.06 179.524L1116.17 177.108C1112.27 177.171 1108.45 178.166 1105.02 180.009C1098.23 183.869 1098.26 190.216 1105.04 194.112Z" fill="url(#paint62_linear)"/>
<path d="M1129.27 179.993C1121.59 176.07 1112.5 176.07 1104.82 179.993C1102.42 181.162 1100.63 183.306 1099.92 185.881L1104.21 185.546C1104.9 183.889 1106.15 182.527 1107.74 181.703C1113.57 178.741 1120.47 178.741 1126.3 181.703C1131.43 184.673 1131.45 189.495 1126.3 192.448C1123.81 193.802 1121.04 194.559 1118.21 194.661L1118.11 197.067C1122 197.007 1125.83 196.01 1129.26 194.158C1136.06 190.236 1136.03 183.907 1129.27 179.993Z" fill="#4C68EF"/>
<path d="M1176.3 149.739C1166.99 144.996 1155.97 144.996 1146.66 149.739C1143.75 151.15 1141.59 153.745 1140.72 156.861L1145.96 156.465C1146.8 154.448 1148.32 152.797 1150.27 151.81C1157.34 148.205 1165.71 148.205 1172.78 151.81C1179.01 155.407 1179.03 161.251 1172.85 164.901C1169.83 166.528 1166.47 167.433 1163.04 167.545L1162.9 170.463C1167.63 170.397 1172.27 169.188 1176.43 166.937C1184.55 162.194 1184.51 154.499 1176.3 149.739Z" fill="#4C68EF"/>
<path d="M1149.29 165.64C1156.97 169.571 1166.06 169.571 1173.74 165.64C1176.13 164.469 1177.91 162.328 1178.62 159.76L1174.33 160.087C1173.65 161.748 1172.4 163.113 1170.8 163.939C1164.98 166.88 1158.11 166.88 1152.29 163.939C1147.14 160.959 1147.12 156.146 1152.22 153.184C1154.71 151.835 1157.48 151.08 1160.31 150.981L1160.42 148.565C1156.52 148.625 1152.7 149.623 1149.27 151.474C1142.5 155.388 1142.58 161.726 1149.29 165.64Z" fill="url(#paint63_linear)"/>
<path d="M1173.5 151.52C1165.82 147.589 1156.73 147.589 1149.05 151.52C1146.66 152.683 1144.87 154.816 1144.14 157.382L1148.45 157.073C1149.12 155.406 1150.37 154.037 1151.97 153.221C1157.8 150.25 1164.7 150.25 1170.54 153.221C1175.68 156.192 1175.68 160.996 1170.54 163.966C1168.05 165.32 1165.28 166.077 1162.45 166.179L1162.35 168.585C1166.24 168.529 1170.07 167.531 1173.5 165.676C1180.33 161.763 1180.3 155.416 1173.5 151.52Z" fill="url(#paint64_linear)"/>
<path d="M1218.01 124.387C1208.7 119.644 1197.68 119.644 1188.37 124.387C1185.46 125.8 1183.3 128.394 1182.44 131.51L1187.67 131.131C1188.51 129.107 1190.03 127.447 1191.98 126.45C1199.05 122.854 1207.42 122.854 1214.49 126.45C1220.72 130.055 1220.76 135.891 1214.57 139.549C1211.55 141.176 1208.19 142.081 1204.76 142.193L1204.63 145.138C1209.31 145.031 1213.89 143.823 1218.01 141.612C1226.21 136.808 1226.17 129.112 1218.01 124.387Z" fill="url(#paint65_linear)"/>
<path d="M1190.96 140.271C1198.64 144.193 1207.73 144.193 1215.4 140.271C1217.81 139.117 1219.59 136.974 1220.29 134.4L1216.01 134.717C1215.33 136.375 1214.08 137.736 1212.49 138.561C1206.66 141.54 1199.75 141.54 1193.92 138.561C1188.79 135.608 1188.77 130.786 1193.92 127.815C1196.4 126.495 1199.15 125.768 1201.95 125.691L1202.07 123.267C1198.17 123.332 1194.35 124.329 1190.92 126.176C1184.16 130.019 1184.19 136.366 1190.96 140.271Z" fill="#00FFFF"/>
<path d="M1215.2 126.142C1207.52 122.22 1198.43 122.22 1190.75 126.142C1188.35 127.313 1186.57 129.457 1185.87 132.03L1190.15 131.695C1190.84 130.042 1192.09 128.683 1193.68 127.852C1199.51 124.89 1206.41 124.89 1212.25 127.852C1217.38 130.823 1217.4 135.697 1212.31 138.598C1209.82 139.947 1207.05 140.704 1204.22 140.81L1204.1 143.217C1208 143.16 1211.83 142.162 1215.26 140.308C1222.01 136.394 1221.91 130.056 1215.2 126.142Z" fill="url(#paint66_linear)"/>
<path d="M1125.67 206.56L1128.31 208.103L1146.47 197.631L1143.83 196.07L1125.67 206.56Z" fill="white"/>
<path d="M1130.77 209.54L1133.42 211.082L1151.57 200.592L1148.93 199.05L1130.77 209.54Z" fill="white"/>
<path d="M1136.77 212.986L1139.42 214.529L1149.12 208.949L1146.47 207.354L1136.77 212.986Z" fill="white"/>
<path d="M1172.9 176.74L1175.54 178.3L1193.7 167.819L1191.06 166.268L1172.9 176.74Z" fill="white"/>
<path d="M1178 179.719L1180.65 181.279L1198.81 170.79L1196.16 169.229L1178 179.719Z" fill="white"/>
<path d="M1184.01 183.174L1186.65 184.734L1196.35 179.136L1193.7 177.559L1184.01 183.174Z" fill="white"/>
<path d="M1215.48 149.853L1218.13 151.404L1236.29 140.915L1233.64 139.372L1215.48 149.853Z" fill="white"/>
<path d="M1220.59 152.797L1223.23 154.358L1241.39 143.868L1238.75 142.325L1220.59 152.797Z" fill="white"/>
<path d="M1226.57 156.253L1229.22 157.813L1238.91 152.233L1236.27 150.638L1226.57 156.253Z" fill="white"/>
<path d="M989.037 130.029L991.682 131.572L1001.38 126.001L998.734 124.414L989.037 130.029Z" fill="white"/>
<path d="M994.15 133.617L996.795 135.16L1006.49 129.589L1003.85 127.984L994.15 133.617Z" fill="white"/>
<path d="M1030.02 104.817L1032.66 106.369L1042.36 100.78L1039.71 99.2021L1030.02 104.817Z" fill="white"/>
<path d="M1076.81 78.6366L1079.45 80.1968L1089.15 74.6082L1086.5 73.0215L1076.81 78.6366Z" fill="white"/>
<path d="M961.332 130.029L963.977 131.572L973.673 126.001L971.081 124.414L961.332 130.029Z" fill="white"/>
<path d="M965.818 133.324L968.463 134.884L978.159 129.304L975.568 127.709L965.818 133.324Z" fill="white"/>
<path d="M958.775 135.846C961.006 137.151 961.014 139.204 958.775 140.483C956.264 141.761 953.292 141.761 950.78 140.483C948.568 139.169 948.55 137.124 950.78 135.846C953.29 134.559 956.266 134.559 958.775 135.846Z" fill="white"/>
<path d="M1302.13 224.896C1313.44 218.355 1322.63 223.591 1322.66 236.619C1322.7 249.648 1313.51 265.418 1302.26 271.967L1178.72 343.28C1167.41 349.829 1158.2 344.593 1158.16 331.583C1158.12 318.572 1167.32 302.775 1178.58 296.235L1302.13 224.896Z" fill="url(#paint67_linear)"/>
<path d="M1309.48 222.25C1306.88 222.647 1304.38 223.545 1302.13 224.894L1178.59 296.295C1167.28 302.845 1158.14 318.659 1158.17 331.643C1157.93 335.751 1159.26 339.798 1161.89 342.962C1164.49 342.558 1166.98 341.66 1169.24 340.317L1292.77 268.969C1304.08 262.428 1313.22 246.623 1313.19 233.621C1313.44 229.497 1312.11 225.432 1309.48 222.25Z" fill="url(#paint68_linear)"/>
<path d="M1190.58 305.798C1187.79 307.611 1186.04 310.649 1185.87 313.97C1185.87 316.976 1188 318.192 1190.61 316.676C1193.39 314.859 1195.15 311.825 1195.33 308.504C1195.32 305.499 1193.2 304.291 1190.58 305.798Z" fill="url(#paint69_linear)"/>
<path d="M1020.45 512.243C1017.66 514.049 1015.91 517.091 1015.75 520.414C1015.75 523.42 1017.88 524.637 1020.48 523.12C1023.27 521.304 1025.02 518.27 1025.2 514.949C1025.2 511.925 1023.07 510.735 1020.45 512.243Z" fill="url(#paint70_linear)"/>
<path d="M752.401 666.118C749.616 667.934 747.864 670.969 747.685 674.289C747.685 677.304 749.809 678.52 752.427 677.013C755.215 675.197 756.965 672.156 757.134 668.833C757.152 665.827 755.019 664.646 752.401 666.118Z" fill="url(#paint71_linear)"/>
<path d="M1218.96 287.612C1216.16 289.42 1214.41 292.46 1214.24 295.784C1214.24 298.79 1216.37 300.015 1218.98 298.49C1221.77 296.681 1223.52 293.645 1223.69 290.327C1223.67 287.313 1221.58 286.105 1218.96 287.612Z" fill="url(#paint72_linear)"/>
<path d="M1247.3 269.427C1244.53 271.251 1242.78 274.282 1242.59 277.599C1242.59 280.596 1244.72 281.821 1247.35 280.305C1250.14 278.491 1251.89 275.454 1252.06 272.133C1252.06 269.127 1249.93 267.92 1247.3 269.427Z" fill="url(#paint73_linear)"/>
<path d="M1275.68 251.225C1272.89 253.032 1271.13 256.073 1270.96 259.397C1270.96 262.394 1273.1 263.61 1275.71 262.103C1278.49 260.28 1280.25 257.239 1280.43 253.914C1280.42 250.943 1278.33 249.727 1275.68 251.225Z" fill="url(#paint74_linear)"/>
<path d="M1232.19 544.823V578.778C1232.19 592.292 1213.97 603.24 1191.47 603.24C1168.98 603.24 1150.76 592.292 1150.76 578.778V544.823H1232.19Z" fill="url(#paint75_linear)"/>
<path d="M1191.47 569.275C1213.96 569.275 1232.19 558.328 1232.19 544.823C1232.19 531.318 1213.96 520.37 1191.47 520.37C1168.99 520.37 1150.76 531.318 1150.76 544.823C1150.76 558.328 1168.99 569.275 1191.47 569.275Z" fill="url(#paint76_linear)"/>
<path d="M1315.52 509.828V543.783C1315.52 557.297 1297.29 568.245 1274.8 568.245C1252.31 568.245 1234.07 557.297 1234.07 543.783V509.828H1315.52Z" fill="url(#paint77_linear)"/>
<path d="M1274.8 534.282C1297.29 534.282 1315.52 523.334 1315.52 509.83C1315.52 496.325 1297.29 485.377 1274.8 485.377C1252.31 485.377 1234.08 496.325 1234.08 509.83C1234.08 523.334 1252.31 534.282 1274.8 534.282Z" fill="#4C68EF"/>
<path d="M1396.52 464.802V498.757C1396.52 512.27 1378.3 523.218 1355.8 523.218C1333.3 523.218 1315.08 512.27 1315.08 498.757V464.802H1396.52Z" fill="url(#paint78_linear)"/>
<path d="M1355.8 489.254C1378.29 489.254 1396.52 478.306 1396.52 464.801C1396.52 451.296 1378.29 440.349 1355.8 440.349C1333.31 440.349 1315.08 451.296 1315.08 464.801C1315.08 478.306 1333.31 489.254 1355.8 489.254Z" fill="#FFCB33"/>
<path d="M1116.26 622.017L1059.76 589.181V251.385C1094.71 271.745 1116.22 309.133 1116.26 349.583V622.017Z" fill="url(#paint79_linear)"/>
<defs>
<filter id="filter0_f" x="0.849609" y="253.69" width="632.555" height="215.84" filterUnits="userSpaceOnUse" color-interpolation-filters="sRGB">
<feFlood flood-opacity="0" result="BackgroundImageFix"/>
<feBlend mode="normal" in="SourceGraphic" in2="BackgroundImageFix" result="shape"/>
<feGaussianBlur stdDeviation="36.5" result="effect1_foregroundBlur"/>
</filter>
<linearGradient id="paint0_linear" x1="6.47557e-07" y1="57.8596" x2="786.515" y2="97.4787" gradientUnits="userSpaceOnUse">
<stop stop-color="#4C68EF"/>
<stop offset="0.690625" stop-color="#778EFB"/>
<stop offset="1" stop-color="#879CFF" stop-opacity="0.1"/>
</linearGradient>
<linearGradient id="paint1_linear" x1="843.449" y1="75.0798" x2="1144.65" y2="75.0798" gradientUnits="userSpaceOnUse">
<stop stop-color="#F4F9FF"/>
<stop offset="0.02" stop-color="#EFF5FE"/>
<stop offset="0.13" stop-color="#DEE8F9"/>
<stop offset="0.27" stop-color="#D3DFF5"/>
<stop offset="0.46" stop-color="#CCD9F4"/>
<stop offset="1" stop-color="#CAD8F3"/>
</linearGradient>
<linearGradient id="paint2_linear" x1="597.369" y1="549.383" x2="597.369" y2="696.514" gradientUnits="userSpaceOnUse">
<stop stop-color="#F4F9FF"/>
<stop offset="0.02" stop-color="#EFF5FE"/>
<stop offset="0.13" stop-color="#DEE8F9"/>
<stop offset="0.27" stop-color="#D3DFF5"/>
<stop offset="0.46" stop-color="#CCD9F4"/>
<stop offset="1" stop-color="#CAD8F3"/>
</linearGradient>
<linearGradient id="paint3_linear" x1="603.301" y1="551.342" x2="603.301" y2="695.998" gradientUnits="userSpaceOnUse">
<stop stop-color="#F4F9FF"/>
<stop offset="1" stop-color="#CAD8F3"/>
</linearGradient>
<linearGradient id="paint4_linear" x1="1117.9" y1="646.298" x2="915.074" y2="-138.644" gradientUnits="userSpaceOnUse">
<stop stop-color="#4C68EF"/>
<stop offset="1" stop-color="#4C68EF" stop-opacity="0"/>
</linearGradient>
<linearGradient id="paint5_linear" x1="874.05" y1="526.612" x2="1057.15" y2="526.612" gradientUnits="userSpaceOnUse">
<stop stop-color="#F4F9FF"/>
<stop offset="1" stop-color="#CAD8F3"/>
</linearGradient>
<linearGradient id="paint6_linear" x1="1086.1" y1="652.059" x2="883.755" y2="-133.526" gradientUnits="userSpaceOnUse">
<stop stop-color="#4C68EF"/>
<stop offset="1" stop-color="white"/>
</linearGradient>
<linearGradient id="paint7_linear" x1="842.545" y1="139.569" x2="842.545" y2="481.763" gradientUnits="userSpaceOnUse">
<stop stop-color="#F4F9FF"/>
<stop offset="1" stop-color="#CAD8F3"/>
</linearGradient>
<linearGradient id="paint8_linear" x1="620.145" y1="629.821" x2="1149.69" y2="330.47" gradientUnits="userSpaceOnUse">
<stop stop-color="#00366A"/>
<stop offset="0.33" stop-color="#003368"/>
<stop offset="0.57" stop-color="#012A62"/>
<stop offset="0.78" stop-color="#031A57"/>
<stop offset="0.97" stop-color="#050448"/>
<stop offset="1" stop-color="#050046"/>
</linearGradient>
<linearGradient id="paint9_linear" x1="736.449" y1="486.032" x2="1365.46" y2="486.032" gradientUnits="userSpaceOnUse">
<stop stop-color="#00366A"/>
<stop offset="0.33" stop-color="#003368"/>
<stop offset="0.57" stop-color="#012A62"/>
<stop offset="0.78" stop-color="#031A57"/>
<stop offset="0.97" stop-color="#050448"/>
<stop offset="1" stop-color="#050046"/>
</linearGradient>
<linearGradient id="paint10_linear" x1="1036.24" y1="346.932" x2="1151.13" y2="346.932" gradientUnits="userSpaceOnUse">
<stop stop-color="#FFF52A"/>
<stop offset="0.51" stop-color="#FFF32A"/>
<stop offset="0.71" stop-color="#FFEC2C"/>
<stop offset="0.86" stop-color="#FFE02F"/>
<stop offset="0.98" stop-color="#FFCF32"/>
<stop offset="1" stop-color="#FFCB33"/>
</linearGradient>
<linearGradient id="paint11_linear" x1="1351.33" y1="327.43" x2="1351.39" y2="327.43" gradientUnits="userSpaceOnUse">
<stop stop-color="#FFF52A"/>
<stop offset="0.51" stop-color="#FFF32A"/>
<stop offset="0.71" stop-color="#FFEC2C"/>
<stop offset="0.86" stop-color="#FFE02F"/>
<stop offset="0.98" stop-color="#FFCF32"/>
<stop offset="1" stop-color="#FFCB33"/>
</linearGradient>
<linearGradient id="paint12_linear" x1="3888.54" y1="-4376.92" x2="4162.47" y2="-4842.04" gradientUnits="userSpaceOnUse">
<stop stop-color="#F4F9FF"/>
<stop offset="0.3" stop-color="#F0F5FE"/>
<stop offset="0.63" stop-color="#E2EBFA"/>
<stop offset="0.97" stop-color="#CCDAF4"/>
<stop offset="1" stop-color="#CAD8F3"/>
</linearGradient>
<linearGradient id="paint13_linear" x1="965.218" y1="144.892" x2="965.218" y2="299.718" gradientUnits="userSpaceOnUse">
<stop stop-color="#F4F9FF"/>
<stop offset="0.54" stop-color="#F2F8FE"/>
<stop offset="0.73" stop-color="#EBF2FD"/>
<stop offset="0.87" stop-color="#E0E9F9"/>
<stop offset="0.98" stop-color="#CFDCF4"/>
<stop offset="1" stop-color="#CAD8F3"/>
</linearGradient>
<linearGradient id="paint14_linear" x1="752.345" y1="650.267" x2="752.345" y2="797.927" gradientUnits="userSpaceOnUse">
<stop stop-color="#F4F9FF"/>
<stop offset="0.02" stop-color="#EFF5FE"/>
<stop offset="0.13" stop-color="#DEE8F9"/>
<stop offset="0.27" stop-color="#D3DFF5"/>
<stop offset="0.46" stop-color="#CCD9F4"/>
<stop offset="1" stop-color="#CAD8F3"/>
</linearGradient>
<linearGradient id="paint15_linear" x1="756.562" y1="652.798" x2="756.562" y2="797.479" gradientUnits="userSpaceOnUse">
<stop stop-color="#F4F9FF"/>
<stop offset="1" stop-color="#CAD8F3"/>
</linearGradient>
<linearGradient id="paint16_linear" x1="1008.93" y1="491.972" x2="1008.93" y2="639.103" gradientUnits="userSpaceOnUse">
<stop stop-color="#F4F9FF"/>
<stop offset="0.02" stop-color="#EFF5FE"/>
<stop offset="0.13" stop-color="#DEE8F9"/>
<stop offset="0.27" stop-color="#D3DFF5"/>
<stop offset="0.46" stop-color="#CCD9F4"/>
<stop offset="1" stop-color="#CAD8F3"/>
</linearGradient>
<linearGradient id="paint17_linear" x1="1019.21" y1="493.587" x2="1019.21" y2="638.243" gradientUnits="userSpaceOnUse">
<stop stop-color="#F4F9FF"/>
<stop offset="1" stop-color="#CAD8F3"/>
</linearGradient>
<linearGradient id="paint18_linear" x1="856.697" y1="252.562" x2="856.697" y2="341.125" gradientUnits="userSpaceOnUse">
<stop stop-color="#F4F9FF"/>
<stop offset="1" stop-color="#CAD8F3"/>
</linearGradient>
<linearGradient id="paint19_linear" x1="855.247" y1="253.385" x2="855.247" y2="274.191" gradientUnits="userSpaceOnUse">
<stop stop-color="#CEDDFE"/>
<stop offset="0.44" stop-color="#CBDAFC"/>
<stop offset="0.71" stop-color="#C3D2F6"/>
<stop offset="0.93" stop-color="#B5C4EB"/>
<stop offset="1" stop-color="#AEBDE6"/>
</linearGradient>
<linearGradient id="paint20_linear" x1="867.223" y1="269.296" x2="867.223" y2="342.886" gradientUnits="userSpaceOnUse">
<stop stop-color="#CEDDFE"/>
<stop offset="0.44" stop-color="#CBDAFC"/>
<stop offset="0.71" stop-color="#C3D2F6"/>
<stop offset="0.93" stop-color="#B5C4EB"/>
<stop offset="1" stop-color="#AEBDE6"/>
</linearGradient>
<linearGradient id="paint21_linear" x1="898.94" y1="224.98" x2="1021.1" y2="224.98" gradientUnits="userSpaceOnUse">
<stop stop-color="#CEDDFE"/>
<stop offset="0.44" stop-color="#CBDAFC"/>
<stop offset="0.71" stop-color="#C3D2F6"/>
<stop offset="0.93" stop-color="#B5C4EB"/>
<stop offset="1" stop-color="#AEBDE6"/>
</linearGradient>
<linearGradient id="paint22_linear" x1="1024.97" y1="259.711" x2="1028.5" y2="259.711" gradientUnits="userSpaceOnUse">
<stop stop-color="#CEDDFE"/>
<stop offset="0.44" stop-color="#CBDAFC"/>
<stop offset="0.71" stop-color="#C3D2F6"/>
<stop offset="0.93" stop-color="#B5C4EB"/>
<stop offset="1" stop-color="#AEBDE6"/>
</linearGradient>
<linearGradient id="paint23_linear" x1="912.354" y1="210.832" x2="1037.99" y2="210.832" gradientUnits="userSpaceOnUse">
<stop stop-color="#CEDDFE"/>
<stop offset="0.44" stop-color="#CBDAFC"/>
<stop offset="0.71" stop-color="#C3D2F6"/>
<stop offset="0.93" stop-color="#B5C4EB"/>
<stop offset="1" stop-color="#AEBDE6"/>
</linearGradient>
<linearGradient id="paint24_linear" x1="906.96" y1="224.578" x2="1018.39" y2="224.578" gradientUnits="userSpaceOnUse">
<stop stop-color="#F4F9FF"/>
<stop offset="0.54" stop-color="#F2F8FE"/>
<stop offset="0.73" stop-color="#EBF2FD"/>
<stop offset="0.87" stop-color="#E0E9F9"/>
<stop offset="0.98" stop-color="#CFDCF4"/>
<stop offset="1" stop-color="#CAD8F3"/>
</linearGradient>
<linearGradient id="paint25_linear" x1="1128.14" y1="576.624" x2="1147.18" y2="576.624" gradientUnits="userSpaceOnUse">
<stop stop-color="#00366A"/>
<stop offset="0.33" stop-color="#003368"/>
<stop offset="0.57" stop-color="#012A62"/>
<stop offset="0.78" stop-color="#031A57"/>
<stop offset="0.97" stop-color="#050448"/>
<stop offset="1" stop-color="#050046"/>
</linearGradient>
<linearGradient id="paint26_linear" x1="1146.42" y1="524.237" x2="1227.82" y2="524.237" gradientUnits="userSpaceOnUse">
<stop stop-color="#00366A"/>
<stop offset="0.33" stop-color="#003368"/>
<stop offset="0.57" stop-color="#012A62"/>
<stop offset="0.78" stop-color="#031A57"/>
<stop offset="0.97" stop-color="#050448"/>
<stop offset="1" stop-color="#050046"/>
</linearGradient>
<linearGradient id="paint27_linear" x1="1146.42" y1="632.113" x2="1227.82" y2="632.113" gradientUnits="userSpaceOnUse">
<stop stop-color="#CEDDFE"/>
<stop offset="0.44" stop-color="#CBDAFC"/>
<stop offset="0.71" stop-color="#C3D2F6"/>
<stop offset="0.93" stop-color="#B5C4EB"/>
<stop offset="1" stop-color="#AEBDE6"/>
</linearGradient>
<linearGradient id="paint28_linear" x1="1146.42" y1="609.412" x2="1227.82" y2="609.412" gradientUnits="userSpaceOnUse">
<stop stop-color="#F4F9FF"/>
<stop offset="1" stop-color="#CAD8F3"/>
</linearGradient>
<linearGradient id="paint29_linear" x1="1184.24" y1="629.263" x2="1207.07" y2="589.649" gradientUnits="userSpaceOnUse">
<stop stop-color="#F4F9FF"/>
<stop offset="1" stop-color="#CAD8F3"/>
</linearGradient>
<linearGradient id="paint30_linear" x1="1146.42" y1="600.386" x2="1227.82" y2="600.386" gradientUnits="userSpaceOnUse">
<stop stop-color="#CEDDFE"/>
<stop offset="0.44" stop-color="#CBDAFC"/>
<stop offset="0.71" stop-color="#C3D2F6"/>
<stop offset="0.93" stop-color="#B5C4EB"/>
<stop offset="1" stop-color="#AEBDE6"/>
</linearGradient>
<linearGradient id="paint31_linear" x1="1147.8" y1="492.234" x2="1235.43" y2="492.234" gradientUnits="userSpaceOnUse">
<stop stop-color="#CEDDFE"/>
<stop offset="0.44" stop-color="#CBDAFC"/>
<stop offset="0.71" stop-color="#C3D2F6"/>
<stop offset="0.93" stop-color="#B5C4EB"/>
<stop offset="1" stop-color="#AEBDE6"/>
</linearGradient>
<linearGradient id="paint32_linear" x1="1147.71" y1="471.88" x2="1235.34" y2="471.88" gradientUnits="userSpaceOnUse">
<stop stop-color="#F4F9FF"/>
<stop offset="1" stop-color="#CAD8F3"/>
</linearGradient>
<linearGradient id="paint33_linear" x1="1177.45" y1="468.067" x2="1213.67" y2="468.067" gradientUnits="userSpaceOnUse">
<stop stop-color="#CEDDFE"/>
<stop offset="0.44" stop-color="#CBDAFC"/>
<stop offset="0.71" stop-color="#C3D2F6"/>
<stop offset="0.93" stop-color="#B5C4EB"/>
<stop offset="1" stop-color="#AEBDE6"/>
</linearGradient>
<linearGradient id="paint34_linear" x1="1177.45" y1="461.963" x2="1213.67" y2="461.963" gradientUnits="userSpaceOnUse">
<stop stop-color="#F4F9FF"/>
<stop offset="1" stop-color="#CAD8F3"/>
</linearGradient>
<linearGradient id="paint35_linear" x1="1258.95" y1="361.738" x2="1134.82" y2="445.673" gradientUnits="userSpaceOnUse">
<stop stop-color="#00366A"/>
<stop offset="0.33" stop-color="#003368"/>
<stop offset="0.57" stop-color="#012A62"/>
<stop offset="0.78" stop-color="#031A57"/>
<stop offset="0.97" stop-color="#050448"/>
<stop offset="1" stop-color="#050046"/>
</linearGradient>
<linearGradient id="paint36_linear" x1="1229.59" y1="489.15" x2="1311" y2="489.15" gradientUnits="userSpaceOnUse">
<stop stop-color="#00366A"/>
<stop offset="0.33" stop-color="#003368"/>
<stop offset="0.57" stop-color="#012A62"/>
<stop offset="0.78" stop-color="#031A57"/>
<stop offset="0.97" stop-color="#050448"/>
<stop offset="1" stop-color="#050046"/>
</linearGradient>
<linearGradient id="paint37_linear" x1="1229.68" y1="597.27" x2="1311.09" y2="597.27" gradientUnits="userSpaceOnUse">
<stop stop-color="#CEDDFE"/>
<stop offset="0.44" stop-color="#CBDAFC"/>
<stop offset="0.71" stop-color="#C3D2F6"/>
<stop offset="0.93" stop-color="#B5C4EB"/>
<stop offset="1" stop-color="#AEBDE6"/>
</linearGradient>
<linearGradient id="paint38_linear" x1="1229.59" y1="574.544" x2="1311" y2="574.544" gradientUnits="userSpaceOnUse">
<stop stop-color="#F4F9FF"/>
<stop offset="1" stop-color="#CAD8F3"/>
</linearGradient>
<linearGradient id="paint39_linear" x1="1267.64" y1="594.394" x2="1290.47" y2="554.78" gradientUnits="userSpaceOnUse">
<stop stop-color="#F4F9FF"/>
<stop offset="1" stop-color="#CAD8F3"/>
</linearGradient>
<linearGradient id="paint40_linear" x1="1229.68" y1="563.742" x2="1311.09" y2="563.742" gradientUnits="userSpaceOnUse">
<stop stop-color="#CEDDFE"/>
<stop offset="0.44" stop-color="#CBDAFC"/>
<stop offset="0.71" stop-color="#C3D2F6"/>
<stop offset="0.93" stop-color="#B5C4EB"/>
<stop offset="1" stop-color="#AEBDE6"/>
</linearGradient>
<linearGradient id="paint41_linear" x1="1220.19" y1="457.408" x2="1307.85" y2="457.408" gradientUnits="userSpaceOnUse">
<stop stop-color="#CEDDFE"/>
<stop offset="0.44" stop-color="#CBDAFC"/>
<stop offset="0.71" stop-color="#C3D2F6"/>
<stop offset="0.93" stop-color="#B5C4EB"/>
<stop offset="1" stop-color="#AEBDE6"/>
</linearGradient>
<linearGradient id="paint42_linear" x1="1230.96" y1="437.012" x2="1318.59" y2="437.012" gradientUnits="userSpaceOnUse">
<stop stop-color="#F4F9FF"/>
<stop offset="1" stop-color="#CAD8F3"/>
</linearGradient>
<linearGradient id="paint43_linear" x1="1260.84" y1="433.216" x2="1297.06" y2="433.216" gradientUnits="userSpaceOnUse">
<stop stop-color="#CEDDFE"/>
<stop offset="0.44" stop-color="#CBDAFC"/>
<stop offset="0.71" stop-color="#C3D2F6"/>
<stop offset="0.93" stop-color="#B5C4EB"/>
<stop offset="1" stop-color="#AEBDE6"/>
</linearGradient>
<linearGradient id="paint44_linear" x1="1260.84" y1="427.129" x2="1297.06" y2="427.129" gradientUnits="userSpaceOnUse">
<stop stop-color="#F4F9FF"/>
<stop offset="1" stop-color="#CAD8F3"/>
</linearGradient>
<linearGradient id="paint45_linear" x1="1329.21" y1="326.661" x2="1204.99" y2="410.595" gradientUnits="userSpaceOnUse">
<stop stop-color="#00366A"/>
<stop offset="0.33" stop-color="#003368"/>
<stop offset="0.57" stop-color="#012A62"/>
<stop offset="0.78" stop-color="#031A57"/>
<stop offset="0.97" stop-color="#050448"/>
<stop offset="1" stop-color="#050046"/>
</linearGradient>
<linearGradient id="paint46_linear" x1="1310.6" y1="445.377" x2="1392.3" y2="445.377" gradientUnits="userSpaceOnUse">
<stop stop-color="#00366A"/>
<stop offset="0.33" stop-color="#003368"/>
<stop offset="0.57" stop-color="#012A62"/>
<stop offset="0.78" stop-color="#031A57"/>
<stop offset="0.97" stop-color="#050448"/>
<stop offset="1" stop-color="#050046"/>
</linearGradient>
<linearGradient id="paint47_linear" x1="1310.6" y1="552.694" x2="1392.3" y2="552.694" gradientUnits="userSpaceOnUse">
<stop stop-color="#CEDDFE"/>
<stop offset="0.44" stop-color="#CBDAFC"/>
<stop offset="0.71" stop-color="#C3D2F6"/>
<stop offset="0.93" stop-color="#B5C4EB"/>
<stop offset="1" stop-color="#AEBDE6"/>
</linearGradient>
<linearGradient id="paint48_linear" x1="1310.6" y1="530.548" x2="1392.3" y2="530.548" gradientUnits="userSpaceOnUse">
<stop stop-color="#F4F9FF"/>
<stop offset="1" stop-color="#CAD8F3"/>
</linearGradient>
<linearGradient id="paint49_linear" x1="1348.64" y1="550.29" x2="1371.47" y2="510.677" gradientUnits="userSpaceOnUse">
<stop stop-color="#F4F9FF"/>
<stop offset="1" stop-color="#CAD8F3"/>
</linearGradient>
<linearGradient id="paint50_linear" x1="1310.6" y1="519.678" x2="1392.3" y2="519.678" gradientUnits="userSpaceOnUse">
<stop stop-color="#CEDDFE"/>
<stop offset="0.44" stop-color="#CBDAFC"/>
<stop offset="0.71" stop-color="#C3D2F6"/>
<stop offset="0.93" stop-color="#B5C4EB"/>
<stop offset="1" stop-color="#AEBDE6"/>
</linearGradient>
<linearGradient id="paint51_linear" x1="1312.14" y1="412.389" x2="1399.78" y2="412.389" gradientUnits="userSpaceOnUse">
<stop stop-color="#CEDDFE"/>
<stop offset="0.44" stop-color="#CBDAFC"/>
<stop offset="0.71" stop-color="#C3D2F6"/>
<stop offset="0.93" stop-color="#B5C4EB"/>
<stop offset="1" stop-color="#AEBDE6"/>
</linearGradient>
<linearGradient id="paint52_linear" x1="1312.14" y1="392.933" x2="1399.78" y2="392.933" gradientUnits="userSpaceOnUse">
<stop stop-color="#F4F9FF"/>
<stop offset="1" stop-color="#CAD8F3"/>
</linearGradient>
<linearGradient id="paint53_linear" x1="1341.78" y1="389.094" x2="1378" y2="389.094" gradientUnits="userSpaceOnUse">
<stop stop-color="#CEDDFE"/>
<stop offset="0.44" stop-color="#CBDAFC"/>
<stop offset="0.71" stop-color="#C3D2F6"/>
<stop offset="0.93" stop-color="#B5C4EB"/>
<stop offset="1" stop-color="#AEBDE6"/>
</linearGradient>
<linearGradient id="paint54_linear" x1="1341.87" y1="382.925" x2="1378.09" y2="382.925" gradientUnits="userSpaceOnUse">
<stop stop-color="#F4F9FF"/>
<stop offset="1" stop-color="#CAD8F3"/>
</linearGradient>
<linearGradient id="paint55_linear" x1="1422.73" y1="282.734" x2="1298.85" y2="366.995" gradientUnits="userSpaceOnUse">
<stop stop-color="#00366A"/>
<stop offset="0.33" stop-color="#003368"/>
<stop offset="0.57" stop-color="#012A62"/>
<stop offset="0.78" stop-color="#031A57"/>
<stop offset="0.97" stop-color="#050448"/>
<stop offset="1" stop-color="#050046"/>
</linearGradient>
<linearGradient id="paint56_linear" x1="929.413" y1="133.81" x2="1300.01" y2="133.81" gradientUnits="userSpaceOnUse">
<stop stop-color="#00366A"/>
<stop offset="0.33" stop-color="#003368"/>
<stop offset="0.57" stop-color="#012A62"/>
<stop offset="0.78" stop-color="#031A57"/>
<stop offset="0.97" stop-color="#050448"/>
<stop offset="1" stop-color="#050046"/>
</linearGradient>
<linearGradient id="paint57_linear" x1="1120.47" y1="40.2451" x2="1120.47" y2="241.484" gradientUnits="userSpaceOnUse">
<stop stop-color="#00366A"/>
<stop offset="0.33" stop-color="#003368"/>
<stop offset="0.57" stop-color="#012A62"/>
<stop offset="0.78" stop-color="#031A57"/>
<stop offset="0.97" stop-color="#050448"/>
<stop offset="1" stop-color="#050046"/>
</linearGradient>
<linearGradient id="paint58_linear" x1="1108.32" y1="140.837" x2="1086.67" y2="102.924" gradientUnits="userSpaceOnUse">
<stop stop-color="#BAF281" stop-opacity="0"/>
<stop offset="0.38" stop-color="#B9F281" stop-opacity="0.01"/>
<stop offset="0.52" stop-color="#B5F081" stop-opacity="0.04"/>
<stop offset="0.62" stop-color="#AEEE82" stop-opacity="0.1"/>
<stop offset="0.7" stop-color="#A5EB82" stop-opacity="0.18"/>
<stop offset="0.76" stop-color="#98E782" stop-opacity="0.29"/>
<stop offset="0.82" stop-color="#88E283" stop-opacity="0.42"/>
<stop offset="0.88" stop-color="#76DC84" stop-opacity="0.58"/>
<stop offset="0.93" stop-color="#60D585" stop-opacity="0.77"/>
<stop offset="0.97" stop-color="#49CD86" stop-opacity="0.97"/>
<stop offset="0.98" stop-color="#45CC86"/>
</linearGradient>
<linearGradient id="paint59_linear" x1="1010.31" y1="112.496" x2="1145.02" y2="112.496" gradientUnits="userSpaceOnUse">
<stop stop-color="#BAF281"/>
<stop offset="0.39" stop-color="#B8F181"/>
<stop offset="0.55" stop-color="#B1EF81"/>
<stop offset="0.67" stop-color="#A5EB82"/>
<stop offset="0.76" stop-color="#93E583"/>
<stop offset="0.85" stop-color="#7CDE84"/>
<stop offset="0.92" stop-color="#61D585"/>
<stop offset="0.98" stop-color="#45CC86"/>
</linearGradient>
<linearGradient id="paint60_linear" x1="1082.07" y1="100.802" x2="1119.6" y2="138.595" gradientUnits="userSpaceOnUse">
<stop stop-color="#4C68EF" stop-opacity="0.99"/>
<stop offset="0.08" stop-color="#4C68EF" stop-opacity="0.79"/>
<stop offset="0.15" stop-color="#4C68EF" stop-opacity="0.6"/>
<stop offset="0.24" stop-color="#4C68EF" stop-opacity="0.44"/>
<stop offset="0.32" stop-color="#4C68EF" stop-opacity="0.3"/>
<stop offset="0.42" stop-color="#4C68EF" stop-opacity="0.19"/>
<stop offset="0.52" stop-color="#4C68EF" stop-opacity="0.11"/>
<stop offset="0.64" stop-color="#4C68EF" stop-opacity="0.05"/>
<stop offset="0.77" stop-color="#4C68EF" stop-opacity="0.01"/>
<stop offset="1" stop-color="#4C68EF" stop-opacity="0"/>
</linearGradient>
<linearGradient id="paint61_linear" x1="1135.51" y1="196.328" x2="1111.19" y2="172.005" gradientUnits="userSpaceOnUse">
<stop stop-color="#BAF281"/>
<stop offset="0.39" stop-color="#B8F181"/>
<stop offset="0.55" stop-color="#B1EF81"/>
<stop offset="0.67" stop-color="#A5EB82"/>
<stop offset="0.76" stop-color="#93E583"/>
<stop offset="0.85" stop-color="#7CDE84"/>
<stop offset="0.92" stop-color="#61D585"/>
<stop offset="0.98" stop-color="#45CC86"/>
</linearGradient>
<linearGradient id="paint62_linear" x1="1105.72" y1="186.779" x2="1140.12" y2="186.779" gradientUnits="userSpaceOnUse">
<stop stop-color="#FFF52A"/>
<stop offset="0.03" stop-color="#FFF02B"/>
<stop offset="0.14" stop-color="#FFDF2F"/>
<stop offset="0.27" stop-color="#FFD431"/>
<stop offset="0.47" stop-color="#FFCD33"/>
<stop offset="1" stop-color="#FFCB33"/>
</linearGradient>
<linearGradient id="paint63_linear" x1="1146.15" y1="160.784" x2="1180.56" y2="160.784" gradientUnits="userSpaceOnUse">
<stop stop-color="#BAF281"/>
<stop offset="0.39" stop-color="#B8F181"/>
<stop offset="0.55" stop-color="#B1EF81"/>
<stop offset="0.67" stop-color="#A5EB82"/>
<stop offset="0.76" stop-color="#93E583"/>
<stop offset="0.85" stop-color="#7CDE84"/>
<stop offset="0.92" stop-color="#61D585"/>
<stop offset="0.98" stop-color="#45CC86"/>
</linearGradient>
<linearGradient id="paint64_linear" x1="1141.84" y1="156.21" x2="1176.3" y2="156.21" gradientUnits="userSpaceOnUse">
<stop stop-color="#FFF52A"/>
<stop offset="0.03" stop-color="#FFF02B"/>
<stop offset="0.14" stop-color="#FFDF2F"/>
<stop offset="0.27" stop-color="#FFD431"/>
<stop offset="0.47" stop-color="#FFCD33"/>
<stop offset="1" stop-color="#FFCB33"/>
</linearGradient>
<linearGradient id="paint65_linear" x1="1219.15" y1="142.886" x2="1195.01" y2="118.626" gradientUnits="userSpaceOnUse">
<stop stop-color="#BAF281"/>
<stop offset="0.39" stop-color="#B8F181"/>
<stop offset="0.55" stop-color="#B1EF81"/>
<stop offset="0.67" stop-color="#A5EB82"/>
<stop offset="0.76" stop-color="#93E583"/>
<stop offset="0.85" stop-color="#7CDE84"/>
<stop offset="0.92" stop-color="#61D585"/>
<stop offset="0.98" stop-color="#45CC86"/>
</linearGradient>
<linearGradient id="paint66_linear" x1="1185.21" y1="135.386" x2="1219.62" y2="135.386" gradientUnits="userSpaceOnUse">
<stop stop-color="#FFF52A"/>
<stop offset="0.03" stop-color="#FFF02B"/>
<stop offset="0.14" stop-color="#FFDF2F"/>
<stop offset="0.27" stop-color="#FFD431"/>
<stop offset="0.47" stop-color="#FFCD33"/>
<stop offset="1" stop-color="#FFCB33"/>
</linearGradient>
<linearGradient id="paint67_linear" x1="1155.95" y1="284.221" x2="1320.39" y2="284.221" gradientUnits="userSpaceOnUse">
<stop stop-color="#F4F9FF"/>
<stop offset="0.3" stop-color="#F0F5FE"/>
<stop offset="0.63" stop-color="#E2EBFA"/>
<stop offset="0.97" stop-color="#CCDAF4"/>
<stop offset="1" stop-color="#CAD8F3"/>
</linearGradient>
<linearGradient id="paint68_linear" x1="1167.32" y1="283.729" x2="1322.32" y2="283.729" gradientUnits="userSpaceOnUse">
<stop stop-color="#00366A"/>
<stop offset="0.33" stop-color="#003368"/>
<stop offset="0.57" stop-color="#012A62"/>
<stop offset="0.78" stop-color="#031A57"/>
<stop offset="0.97" stop-color="#050448"/>
<stop offset="1" stop-color="#050046"/>
</linearGradient>
<linearGradient id="paint69_linear" x1="1187.4" y1="312.244" x2="1196.86" y2="312.244" gradientUnits="userSpaceOnUse">
<stop stop-color="#BAF281"/>
<stop offset="0.39" stop-color="#B8F181"/>
<stop offset="0.55" stop-color="#B1EF81"/>
<stop offset="0.67" stop-color="#A5EB82"/>
<stop offset="0.76" stop-color="#93E583"/>
<stop offset="0.85" stop-color="#7CDE84"/>
<stop offset="0.92" stop-color="#61D585"/>
<stop offset="0.98" stop-color="#45CC86"/>
</linearGradient>
<linearGradient id="paint70_linear" x1="1017.29" y1="517.937" x2="1026.75" y2="517.937" gradientUnits="userSpaceOnUse">
<stop stop-color="#00366A"/>
<stop offset="0.33" stop-color="#003368"/>
<stop offset="0.57" stop-color="#012A62"/>
<stop offset="0.78" stop-color="#031A57"/>
<stop offset="0.97" stop-color="#050448"/>
<stop offset="1" stop-color="#050046"/>
</linearGradient>
<linearGradient id="paint71_linear" x1="741.473" y1="670.656" x2="750.932" y2="670.656" gradientUnits="userSpaceOnUse">
<stop stop-color="#00366A"/>
<stop offset="0.33" stop-color="#003368"/>
<stop offset="0.57" stop-color="#012A62"/>
<stop offset="0.78" stop-color="#031A57"/>
<stop offset="0.97" stop-color="#050448"/>
<stop offset="1" stop-color="#050046"/>
</linearGradient>
<linearGradient id="paint72_linear" x1="1208.35" y1="293.443" x2="1217.81" y2="293.443" gradientUnits="userSpaceOnUse">
<stop stop-color="#BAF281"/>
<stop offset="0.39" stop-color="#B8F181"/>
<stop offset="0.55" stop-color="#B1EF81"/>
<stop offset="0.67" stop-color="#A5EB82"/>
<stop offset="0.76" stop-color="#93E583"/>
<stop offset="0.85" stop-color="#7CDE84"/>
<stop offset="0.92" stop-color="#61D585"/>
<stop offset="0.98" stop-color="#45CC86"/>
</linearGradient>
<linearGradient id="paint73_linear" x1="1245.57" y1="276.409" x2="1255.03" y2="276.409" gradientUnits="userSpaceOnUse">
<stop stop-color="#BAF281"/>
<stop offset="0.39" stop-color="#B8F181"/>
<stop offset="0.55" stop-color="#B1EF81"/>
<stop offset="0.67" stop-color="#A5EB82"/>
<stop offset="0.76" stop-color="#93E583"/>
<stop offset="0.85" stop-color="#7CDE84"/>
<stop offset="0.92" stop-color="#61D585"/>
<stop offset="0.98" stop-color="#45CC86"/>
</linearGradient>
<linearGradient id="paint74_linear" x1="1272.38" y1="258.119" x2="1281.87" y2="258.119" gradientUnits="userSpaceOnUse">
<stop stop-color="#BAF281"/>
<stop offset="0.39" stop-color="#B8F181"/>
<stop offset="0.55" stop-color="#B1EF81"/>
<stop offset="0.67" stop-color="#A5EB82"/>
<stop offset="0.76" stop-color="#93E583"/>
<stop offset="0.85" stop-color="#7CDE84"/>
<stop offset="0.92" stop-color="#61D585"/>
<stop offset="0.98" stop-color="#45CC86"/>
</linearGradient>
<linearGradient id="paint75_linear" x1="1146.42" y1="574.366" x2="1227.82" y2="574.366" gradientUnits="userSpaceOnUse">
<stop stop-color="#00AEE9"/>
<stop offset="1" stop-color="#93E0FF"/>
</linearGradient>
<linearGradient id="paint76_linear" x1="1158.18" y1="531.618" x2="1232.22" y2="544.841" gradientUnits="userSpaceOnUse">
<stop stop-color="#00AEE9"/>
<stop offset="0.628125" stop-color="#73DCFF"/>
</linearGradient>
<linearGradient id="paint77_linear" x1="1229.87" y1="539.497" x2="1311.28" y2="539.497" gradientUnits="userSpaceOnUse">
<stop stop-color="#4C68EF"/>
<stop offset="1" stop-color="#0097D5"/>
</linearGradient>
<linearGradient id="paint78_linear" x1="1310.7" y1="494.334" x2="1392.1" y2="494.334" gradientUnits="userSpaceOnUse">
<stop stop-color="#FFCB33"/>
<stop offset="1" stop-color="#FFF865"/>
</linearGradient>
<linearGradient id="paint79_linear" x1="1087.91" y1="250.764" x2="1087.91" y2="622.57" gradientUnits="userSpaceOnUse">
<stop stop-color="#F4F9FF"/>
<stop offset="1" stop-color="#CAD8F3"/>
</linearGradient>
</defs>
</svg>
